<?xml version="1.0" encoding="UTF-8"?>
<svg width="83px" height="40px" viewBox="0 0 83 40" version="1.1" xmlns="http://www.w3.org/2000/svg" xmlns:xlink="http://www.w3.org/1999/xlink">
    <!-- Generator: Sketch 48.2 (47327) - http://www.bohemiancoding.com/sketch -->
    <title>98</title>
    <desc>Created with Sketch.</desc>
    <defs>
        <polygon id="path-1" points="0 0.0918435754 27.324648 0.0918435754 27.324648 39.2289385 0 39.2289385"></polygon>
        <polygon id="path-3" points="0.00195605401 0.0918435754 18.4696695 0.0918435754 18.4696695 24.6981564 0.00195605401 24.6981564"></polygon>
        <polygon id="path-5" points="0.0567709497 0.0918435754 27.5462682 0.0918435754 27.5462682 39.8882458 0.0567709497 39.8882458"></polygon>
    </defs>
    <g id="Home" stroke="none" stroke-width="1" fill="none" fill-rule="evenodd" transform="translate(-693.000000, -1416.000000)">
        <g id="Adoptive" transform="translate(0.000000, 1064.000000)">
            <g id="Main-Points" transform="translate(531.000000, 208.000000)">
                <g id="Point-4" transform="translate(161.000000, 144.000000)">
                    <g id="98" transform="translate(1.000000, 0.000000)">
                        <g id="Group-3" transform="translate(0.000000, 0.019888)">
                            <mask id="mask-2" fill="white">
                                <use xlink:href="#path-1"></use>
                            </mask>
                            <g id="Clip-2"></g>
                            <path d="M23.3062123,22.4741899 L15.017162,38.0090503 C14.974257,38.0791061 14.954257,38.0939665 14.9544804,38.0939665 C14.9541453,38.0941899 14.9181676,38.1116201 14.7886704,38.1116201 L6.38732961,38.1116201 L14.0138101,23.8682682 L13.1658771,23.4437989 L12.9326927,23.5372067 C12.7149274,23.6242458 12.1316872,23.7717318 11.3272179,23.7717318 C8.47637989,23.7717318 5.88867039,22.6994413 4.04051397,20.7524022 C2.15548603,18.766257 1.11727374,15.9394413 1.11727374,12.7928492 C1.11727374,5.86435754 6.16978771,1.20916201 13.6897877,1.20916201 C21.1768268,1.20916201 26.2073296,5.82 26.2073296,12.6827933 C26.2073296,15.7670391 25.4204022,18.4218994 23.3062123,22.4741899 M23.4666592,3.5122905 C20.994257,1.27463687 17.6134749,0.0918435754 13.6897877,0.0918435754 C9.75649162,0.0918435754 6.36621229,1.27944134 3.88543017,3.52603352 C1.34353073,5.82815642 -4.46927374e-05,9.0322905 -4.46927374e-05,12.7928492 C-4.46927374e-05,16.2270391 1.14721788,19.3269274 3.23012291,21.521676 C5.29146369,23.6931844 8.16699441,24.8890503 11.3272179,24.8890503 C11.6535866,24.8890503 11.9568268,24.8681564 12.2290056,24.8343017 L5.28565363,37.8022346 L5.27850279,37.8162011 C5.10531844,38.1622346 5.10375419,38.5193296 5.27425698,38.7953073 C5.37448045,38.9572067 5.62286034,39.2289385 6.16263687,39.2289385 L14.7886704,39.2289385 C15.3491173,39.2289385 15.7061006,39.0327374 15.9818547,38.5731844 L15.9892291,38.5612291 L24.2943687,22.9955307 C26.1132514,19.5093855 27.324648,16.4214525 27.324648,12.6827933 C27.324648,8.9677095 25.9904581,5.79642458 23.4666592,3.5122905" id="Fill-1" fill="#55D0A5" mask="url(#mask-2)"></path>
                        </g>
                        <path d="M13.689743,8.8110838 C15.8859441,8.8110838 17.3615866,10.353095 17.3615866,12.6477318 C17.3615866,14.9755531 15.8859441,16.539352 13.689743,16.539352 C11.4606927,16.539352 9.96303911,14.9755531 9.96303911,12.6477318 C9.96303911,10.353095 11.4606927,8.8110838 13.689743,8.8110838 M13.689743,17.6566704 C16.5095196,17.6566704 18.478905,15.5970056 18.478905,12.6477318 C18.478905,9.73086034 16.5095196,7.69376536 13.689743,7.69376536 C10.837676,7.69376536 8.84572067,9.73086034 8.84572067,12.6477318 C8.84572067,15.5970056 10.837676,17.6566704 13.689743,17.6566704" id="Fill-4" fill="#55D0A5"></path>
                        <path d="M22.9238771,10.4032626 C22.3815307,7.92002235 20.9718101,5.89007821 18.9546034,4.68750838 C16.9077877,3.46739665 14.3957207,3.13499441 11.6896872,3.72594413 C11.3883464,3.79164246 11.1973966,4.08951955 11.2632067,4.39086034 C11.3291285,4.69231285 11.6273408,4.88326257 11.9282346,4.81756425 C14.3518101,4.2882905 16.5838771,4.57488268 18.3824246,5.64728492 C20.1567263,6.70493855 21.3496872,8.43197765 21.832257,10.6418101 C22.3100223,12.8286257 21.9389609,14.9711955 20.7873408,16.6748827 C19.5996313,18.4322011 17.6954972,19.6396872 15.2808603,20.1671732 C12.8147151,20.7059441 10.5451061,20.4091844 8.71762011,19.3092961 C6.92823464,18.2323128 5.7256648,16.4882905 5.24018994,14.2656089 C4.75661453,12.0513073 5.1256648,9.98315084 6.30745251,8.28493855 C6.48365363,8.03153073 6.42119553,7.68348603 6.16789944,7.50717318 C5.91493855,7.3310838 5.56655866,7.3935419 5.39024581,7.64683799 C4.04588827,9.5787933 3.60488268,12.0142123 4.14868156,14.5041564 C5.10477095,18.8809162 8.57717318,21.5419218 12.9760559,21.5416983 C13.7948268,21.5415866 14.6465587,21.4494078 15.5191844,21.2586816 C16.9657765,20.9428156 18.2501341,20.4012514 19.3405251,19.6611397 L18.4148268,21.443933 C18.2725922,21.717676 18.3792961,22.0549944 18.6531508,22.1971173 C18.7354972,22.2399106 18.8234302,22.2601341 18.9101341,22.2601341 C19.1120335,22.2601341 19.3068939,22.1504134 19.4064469,21.9587933 L22.4232067,16.1487374 C22.4692402,16.0599106 22.4866704,15.9647151 22.4833184,15.8715307 C23.1817542,14.208514 23.3420894,12.3178994 22.9238771,10.4032626" id="Fill-6" fill="#55D0A5"></path>
                        <path d="M7.32178771,6.92843575 C7.44759777,6.92843575 7.57418994,6.88608939 7.67854749,6.79927374 C8.28893855,6.29212291 8.99452514,5.85916201 9.77575419,5.51256983 C10.0577654,5.3875419 10.1850279,5.05759777 10.0598883,4.77536313 C9.93486034,4.49346369 9.6049162,4.36575419 9.32268156,4.49134078 C8.4473743,4.87949721 7.65396648,5.36698324 6.96435754,5.94005587 C6.72715084,6.1373743 6.69463687,6.48955307 6.89184358,6.72675978 C7.00234637,6.85972067 7.16134078,6.92843575 7.32178771,6.92843575" id="Fill-8" fill="#55D0A5"></path>
                        <path d="M12.803743,33.9265251 C12.5281006,33.7879777 12.1922346,33.8992626 12.0536872,34.1746816 L11.2606145,35.752 C11.1219553,36.0278659 11.2331285,36.3635084 11.5087709,36.5020559 C11.5893296,36.5426145 11.6749162,36.5618324 11.7592737,36.5618324 C11.963743,36.5618324 12.1607263,36.4489832 12.2588268,36.2538994 L13.0518994,34.676581 C13.1905587,34.4009385 13.0793855,34.0650726 12.803743,33.9265251" id="Fill-10" fill="#55D0A5"></path>
                        <path d="M14.5914525,30.3511061 C14.3156983,30.2125587 13.9799441,30.3236201 13.8413966,30.5992626 L13.048324,32.176581 C12.9096648,32.4524469 13.020838,32.7880894 13.2964804,32.9266369 C13.3770391,32.9671955 13.4626257,32.9864134 13.5469832,32.9864134 C13.7514525,32.9864134 13.9484358,32.8735642 14.0465363,32.6784804 L14.8396089,31.101162 C14.9782682,30.8255196 14.867095,30.4896536 14.5914525,30.3511061" id="Fill-12" fill="#55D0A5"></path>
                        <path d="M16.379162,26.7756872 C16.1034078,26.6371397 15.7676536,26.7482011 15.6291061,27.0238436 L14.8360335,28.601162 C14.6973743,28.8770279 14.8085475,29.2126704 15.0841899,29.3512179 C15.1647486,29.3917765 15.2503352,29.4109944 15.3346927,29.4109944 C15.539162,29.4109944 15.7361453,29.2981453 15.8342458,29.1030615 L16.6273184,27.525743 C16.7659777,27.2501006 16.6548045,26.9142346 16.379162,26.7756872" id="Fill-14" fill="#55D0A5"></path>
                        <path d="M18.1668715,23.2002682 C17.8911173,23.0617207 17.5553631,23.1727821 17.4168156,23.4484246 L16.623743,25.025743 C16.4850838,25.3016089 16.596257,25.6372514 16.8718994,25.7757989 C16.9524581,25.8163575 17.0380447,25.8355754 17.1224022,25.8355754 C17.3268715,25.8355754 17.5238547,25.7227263 17.6219553,25.5276425 L18.4150279,23.950324 C18.5536872,23.6746816 18.442514,23.3388156 18.1668715,23.2002682" id="Fill-16" fill="#55D0A5"></path>
                        <path d="M81.2846704,21.0193073 C80.7855642,22.5750615 79.3376313,23.467352 77.3122682,23.467352 C75.2676872,23.467352 73.8450056,22.5966257 73.3054525,21.0158436 C73.1320447,20.4654525 72.9997542,19.8939441 72.9997542,18.0536089 C72.9997542,16.2168492 73.1380782,15.6229944 73.3055642,15.0913743 C73.8450056,13.5103687 75.2676872,12.6398659 77.3122682,12.6398659 C79.3376313,12.6398659 80.7855642,13.5321564 81.2837765,15.0855642 C81.4704804,15.6767374 81.6250056,16.3082458 81.6250056,18.0536089 C81.6250056,19.8057877 81.4835531,20.3890279 81.2846704,21.0193073 M82.3484693,14.7465698 C81.7009832,12.7277989 79.8181899,11.5225475 77.3122682,11.5225475 C74.7862346,11.5225475 72.9395307,12.6943911 72.245676,14.7376313 L72.2417654,14.7492514 C72.0086927,15.4876872 71.8824358,16.233162 71.8824358,18.0536089 C71.8824358,19.8845587 72.0034413,20.6028827 72.2418771,21.3579665 L72.245676,21.3695866 C72.9395307,23.4128268 74.7862346,24.5846704 77.3122682,24.5846704 C79.8181899,24.5846704 81.7009832,23.379419 82.3492514,21.3579665 C82.571933,20.6529385 82.742324,19.9617654 82.742324,18.0536089 C82.742324,16.1489162 82.5643352,15.4303687 82.3484693,14.7465698" id="Fill-18" fill="#55D0A5"></path>
                        <path d="M58.6915978,9.73832402 C58.5241117,9.20692737 58.3857877,8.61340782 58.3857877,6.77608939 C58.3857877,4.93910615 58.5241117,4.34547486 58.6917095,3.81396648 C59.2236648,2.25597765 60.6835531,1.36256983 62.6983017,1.36256983 C64.7237765,1.36256983 66.1715978,2.25486034 66.6707039,3.81061453 L66.6784134,3.83307263 C66.8604246,4.32692737 67.0110391,4.88916201 67.0110391,6.77608939 C67.0110391,8.66335196 66.8604246,9.22569832 66.6784134,9.71932961 L66.6707039,9.74178771 C66.1717095,11.2977654 64.7237765,12.1898324 62.6983017,12.1898324 C60.6834413,12.1898324 59.2234413,11.2964246 58.6915978,9.73832402 M67.7308156,10.0946369 C67.9886927,9.39139665 68.1283575,8.64938547 68.1283575,6.77608939 C68.1283575,4.90312849 67.9886927,4.16111732 67.7308156,3.45776536 C67.0798659,1.44592179 65.1996425,0.245251397 62.6983017,0.245251397 C60.2095866,0.245251397 58.3155084,1.44703911 57.6318212,3.46022346 L57.6280223,3.47173184 C57.394838,4.2101676 57.2684693,4.95541899 57.2684693,6.77608939 C57.2684693,8.5972067 57.394838,9.3424581 57.6280223,10.0806704 L57.6318212,10.092067 C58.3155084,12.1054749 60.2094749,13.3071508 62.6983017,13.3071508 C65.1996425,13.3071508 67.0799777,12.1064804 67.7308156,10.0946369" id="Fill-20" fill="#55D0A5"></path>
                        <path d="M77.6996536,20.3360447 L77.679095,20.3916872 C77.6418883,20.5130279 77.5828939,20.631352 77.3122793,20.631352 C76.9941788,20.631352 76.9369721,20.4720223 76.9138436,20.3976089 C76.8671397,20.231352 76.8366369,19.9639777 76.8366369,18.0535866 C76.8366369,16.1955978 76.8659106,15.9141453 76.9139553,15.7117989 C76.9799888,15.545095 77.1657989,15.5093408 77.3122793,15.5093408 C77.6102682,15.5093408 77.6595419,15.6570503 77.6832291,15.728 L77.6900447,15.7474413 C77.7580894,15.9290056 77.7879218,16.2019665 77.7879218,18.0535866 C77.7879218,19.8302346 77.7606592,20.1935866 77.6996536,20.3360447 M77.3122793,14.3920223 C76.611162,14.3920223 76.0500447,14.7684469 75.8481453,15.3747039 L75.8360782,15.4157095 C75.7495978,15.7614078 75.7193184,16.060067 75.7193184,18.0535866 C75.7193184,20.1016313 75.7509385,20.3944804 75.8408827,20.709676 L75.8441229,20.7202905 C76.0393184,21.3544804 76.6018883,21.7486704 77.3122793,21.7486704 C78.0018883,21.7486704 78.5326145,21.375933 78.7377542,20.7495642 C78.8752961,20.4174972 78.9052402,20.1062123 78.9052402,18.0535866 C78.9052402,16.0302346 78.8737318,15.7255419 78.7396536,15.3644246 C78.5320559,14.7553743 77.9993184,14.3920223 77.3122793,14.3920223" id="Fill-22" fill="#55D0A5"></path>
                        <g id="Group-26" transform="translate(60.782123, 0.019888)">
                            <mask id="mask-4" fill="white">
                                <use xlink:href="#path-3"></use>
                            </mask>
                            <g id="Clip-25"></g>
                            <path d="M4.20061453,23.5286592 C4.18687151,23.5526816 4.17603352,23.5692179 4.16821229,23.5806145 C4.16340782,23.580838 4.15793296,23.580838 4.15178771,23.580838 L1.39011173,23.580838 L14.2780447,1.26351955 L14.2792737,1.26128492 C14.2930168,1.23748603 14.3038547,1.22072626 14.311676,1.20955307 C14.3163687,1.20932961 14.3218436,1.20910615 14.3281006,1.20910615 L17.0896648,1.20910615 L4.20061453,23.5286592 Z M18.3742458,0.467988827 C18.240838,0.232569832 17.9879888,0.0917877095 17.697933,0.0917877095 L14.3281006,0.0917877095 C13.7308939,0.0917877095 13.4609497,0.441843575 13.3098883,0.705642458 L0.13603352,23.5183799 C-0.0265363128,23.7892179 -0.0422905028,24.0949162 0.0943575419,24.3361453 C0.222625698,24.5628492 0.467206704,24.6981564 0.748547486,24.6981564 L4.15178771,24.6981564 C4.74977654,24.6981564 5.01960894,24.3472067 5.16944134,24.0850838 L18.343743,1.27178771 C18.5000559,1.01122905 18.5115642,0.710670391 18.3742458,0.467988827 Z" id="Fill-24" fill="#55D0A5" mask="url(#mask-4)"></path>
                        </g>
                        <path d="M62.2977877,9.11223464 C62.2535419,8.94921788 62.2227039,8.65089385 62.2227039,6.77614525 C62.2227039,4.90128492 62.2535419,4.60329609 62.2977877,4.44027933 C62.3770056,4.22240223 62.603486,4.19860335 62.6983464,4.19860335 C62.8911955,4.19860335 63.0209162,4.28184358 63.1040447,4.45938547 C63.1454972,4.62810056 63.1741006,4.9724581 63.1741006,6.77614525 C63.1741006,8.57994413 63.1454972,8.92430168 63.103933,9.09301676 C63.0209162,9.27089385 62.8913073,9.35379888 62.6983464,9.35379888 C62.603486,9.35379888 62.3770056,9.33 62.2977877,9.11223464 M64.1482905,9.49346369 L64.169743,9.43212291 C64.2580112,9.12340782 64.291419,8.81435754 64.291419,6.77614525 C64.291419,4.73815642 64.2580112,4.42910615 64.169743,4.12027933 L64.1482905,4.05916201 C63.8933184,3.44687151 63.3513073,3.08128492 62.6983464,3.08128492 C62.0146592,3.08128492 61.4399106,3.48005587 61.2342123,4.09715084 L61.2270615,4.12027933 C61.1387933,4.42910615 61.1053855,4.73815642 61.1053855,6.77614525 C61.1053855,8.81435754 61.1387933,9.12340782 61.2270615,9.43212291 L61.2342123,9.4552514 C61.4399106,10.0724581 62.0146592,10.4711173 62.6983464,10.4711173 C63.3513073,10.4711173 63.8933184,10.1056425 64.1482905,9.49346369" id="Fill-27" fill="#55D0A5"></path>
                        <path d="M42.4048268,31.2089497 C40.1781229,31.2089497 38.6230391,29.6538659 38.6230391,27.4270503 C38.6230391,25.1682793 40.1781229,23.5904022 42.4048268,23.5904022 C44.6315307,23.5904022 46.1866145,25.1682793 46.1866145,27.4270503 C46.1866145,29.6538659 44.6315307,31.2089497 42.4048268,31.2089497 M42.4048268,22.4730838 C39.5661676,22.4730838 37.5057207,24.5565475 37.5057207,27.4270503 C37.5057207,30.2658212 39.5661676,32.3262682 42.4048268,32.3262682 C45.243486,32.3262682 47.303933,30.2658212 47.303933,27.4270503 C47.303933,24.5565475 45.243486,22.4730838 42.4048268,22.4730838" id="Fill-29" fill="#55D0A5"></path>
                        <path d="M42.4048268,8.8110838 C44.2141006,8.8110838 45.5272849,10.1243799 45.5272849,11.9334302 C45.5272849,13.7428156 44.2141006,15.0561117 42.4048268,15.0561117 C40.5987933,15.0561117 39.3373408,13.7719777 39.3373408,11.9334302 C39.3373408,10.0951061 40.5987933,8.8110838 42.4048268,8.8110838 M42.4048268,16.1734302 C44.8219218,16.1734302 46.6446034,14.3505251 46.6446034,11.9334302 C46.6446034,9.5163352 44.8219218,7.69376536 42.4048268,7.69376536 C39.9800223,7.69376536 38.2200223,9.47689385 38.2200223,11.9334302 C38.2200223,14.3903017 39.9800223,16.1734302 42.4048268,16.1734302" id="Fill-31" fill="#55D0A5"></path>
                        <g id="Group-35" transform="translate(28.603352, 0.019888)">
                            <mask id="mask-6" fill="white">
                                <use xlink:href="#path-5"></use>
                            </mask>
                            <g id="Clip-34"></g>
                            <path d="M22.815095,35.7853408 C20.5402346,37.7104804 17.3391173,38.7709274 13.8014637,38.7709274 C10.2639218,38.7709274 7.0629162,37.7104804 4.78794413,35.7853408 C2.42381006,33.7842235 1.17408939,31.0012067 1.17408939,27.7369609 C1.17408939,23.2381899 3.70984358,20.7917095 5.22124022,19.7337207 L5.45956425,19.5667933 L5.45956425,18.8920447 L5.2429162,18.7242235 C4.48168715,18.1349497 1.99822346,15.8904804 1.99822346,11.7488045 C1.99822346,8.91953073 3.08660335,6.30846927 5.06269274,4.39673743 C7.21811173,2.3113743 10.2400112,1.20913966 13.8014637,1.20913966 C17.3630279,1.20913966 20.3848156,2.3113743 22.5402346,4.39673743 C24.5165475,6.30846927 25.6048156,8.91953073 25.6048156,11.7488045 C25.6048156,15.9298101 23.1633631,18.1447821 22.415095,18.7242235 L22.1983352,18.8920447 L22.1983352,19.5667933 L22.4366592,19.7337207 C23.9276089,20.7772961 26.4289497,23.2047821 26.4289497,27.7369609 C26.4289497,31.0012067 25.1792291,33.7842235 22.815095,35.7853408 M23.5836983,19.1961788 C24.7043687,18.1642235 26.7221341,15.7489162 26.7221341,11.7488045 C26.7221341,8.61394413 25.5129721,5.71785475 23.3171061,3.59372067 C20.9491732,1.30277095 17.6587821,0.0918212291 13.8014637,0.0918212291 C9.94425698,0.0918212291 6.65375419,1.30277095 4.28582123,3.59372067 C2.09017877,5.71785475 0.880905028,8.61394413 0.880905028,11.7488045 C0.880905028,15.7225475 2.93665922,18.1559553 4.0730838,19.1964022 C2.37967598,20.5385251 0.0567709497,23.2061229 0.0567709497,27.7369609 C0.0567709497,34.891486 5.70872626,39.8882458 13.8014637,39.8882458 C21.8942011,39.8882458 27.5462682,34.891486 27.5462682,27.7369609 C27.5462682,23.1802011 25.2562123,20.5263464 23.5836983,19.1961788" id="Fill-33" fill="#55D0A5" mask="url(#mask-6)"></path>
                        </g>
                        <path d="M40.5866704,5.23805587 C41.7878994,4.99280447 43.0727039,4.99280447 44.2737095,5.23805587 C44.3114749,5.24587709 44.3491285,5.24967598 44.3861117,5.24967598 C44.646,5.24967598 44.8788492,5.06721788 44.9328156,4.8027486 C44.9946034,4.50017877 44.7996313,4.2052067 44.4973966,4.14341899 C43.1494637,3.868 41.7110279,3.868 40.3629832,4.14341899 C40.0607486,4.2052067 39.8657765,4.50017877 39.9275642,4.8027486 C39.9892402,5.10498324 40.2836536,5.30084916 40.5866704,5.23805587" id="Fill-36" fill="#55D0A5"></path>
                        <path d="M49.6518994,31.8391844 C48.8106704,32.8349385 47.6869832,33.6511397 46.4024022,34.1992961 C46.1186034,34.3204134 45.9867598,34.6486816 46.1078771,34.9325922 C46.1984916,35.1446592 46.4048603,35.2719218 46.6219553,35.2719218 C46.6951397,35.2719218 46.7695531,35.2575084 46.8410615,35.2268939 C48.2850838,34.6106927 49.5521229,33.6884581 50.505419,32.5604134 C50.7045251,32.3247709 50.6748045,31.972257 50.4392737,31.7730391 C50.2034078,31.5740447 49.8510056,31.6037654 49.6518994,31.8391844" id="Fill-38" fill="#55D0A5"></path>
                        <path d="M45.8634972,19.3221676 C49.1874078,18.1304358 51.5362346,15.264514 51.5362346,11.9247374 C51.5362346,8.88283799 49.5160112,6.05881564 46.389419,4.73043575 C46.1057318,4.60976536 45.7775754,4.74227933 45.6567933,5.02618994 C45.5361229,5.31010056 45.6685251,5.63825698 45.9525475,5.75870391 C48.7075196,6.92931844 50.4189162,9.292 50.4189162,11.9247374 C50.4189162,15.7137877 46.8351173,18.7962458 42.4300894,18.7962458 C38.0251732,18.7962458 34.4412626,15.7137877 34.4412626,11.9247374 C34.4412626,9.31278212 36.1333296,6.95859218 38.8571285,5.78060335 C39.1403687,5.65814525 39.270648,5.32931844 39.1480782,5.04607821 C39.0257318,4.76272626 38.696905,4.63222346 38.4136648,4.75512849 C35.2743352,6.11267039 33.3239441,8.85993296 33.3239441,11.9247374 C33.3239441,15.264514 35.6729944,18.1304358 38.9967933,19.3221676 C35.1688603,20.5375866 32.4300894,23.7248492 32.4300894,27.4554637 C32.4300894,28.4839553 32.6371285,29.4911061 33.0452849,30.4488715 C33.1358994,30.661162 33.3423799,30.788648 33.5594749,30.788648 C33.6325475,30.788648 33.7068492,30.7742346 33.7782458,30.7437318 C34.0621564,30.622838 34.1942235,30.2945698 34.0732179,30.0108827 C33.7242793,29.1923352 33.5474078,28.3325587 33.5474078,27.4554637 C33.5474078,23.2969162 37.5322123,19.9135642 42.4300894,19.9135642 C47.3280782,19.9135642 51.3127709,23.2969162 51.3127709,27.4554637 C51.3127709,28.2528939 51.166067,29.0384804 50.8764581,29.7904358 C50.7656201,30.0783687 50.9090838,30.4017207 51.1970168,30.5125587 C51.484838,30.6233966 51.8083017,30.4798212 51.9191397,30.192 C52.2581341,29.3114413 52.4300894,28.3907709 52.4300894,27.4554637 C52.4300894,23.7248492 49.6915419,20.5375866 45.8634972,19.3221676" id="Fill-40" fill="#55D0A5"></path>
                        <path d="M38.5141788,34.223095 C37.2827821,33.7067821 36.1907151,32.9409721 35.3558547,32.0087933 C35.1501564,31.7791844 34.7970838,31.7595196 34.5670279,31.9653296 C34.3371955,32.1711397 34.3176425,32.5244358 34.5235642,32.7542682 C35.468257,33.8091285 36.6988715,34.673486 38.0821117,35.2535978 C38.1527263,35.2832067 38.2259106,35.2971732 38.2978659,35.2971732 C38.5163017,35.2971732 38.7235642,35.1684581 38.8133966,34.9543799 C38.9326145,34.6697989 38.7987598,34.3424246 38.5141788,34.223095" id="Fill-42" fill="#55D0A5"></path>
                        <path d="M44.4795084,34.7946257 C43.1440894,35.0638994 41.715933,35.063676 40.3806257,34.7946257 C40.0773855,34.7330615 39.7836425,34.929486 39.7226369,35.2317207 C39.6616313,35.5341788 39.8573855,35.8288156 40.1598436,35.889933 C40.900067,36.0392067 41.6638659,36.1146257 42.4301229,36.1146257 C43.1963799,36.1146257 43.9601788,36.0392067 44.7004022,35.889933 C45.0028603,35.8288156 45.1986145,35.5341788 45.1376089,35.2317207 C45.0766034,34.929486 44.7828603,34.7332849 44.4795084,34.7946257" id="Fill-44" fill="#55D0A5"></path>
                    </g>
                </g>
            </g>
        </g>
    </g>
</svg>
