<?xml version="1.0" encoding="UTF-8"?>
<svg width="94px" height="45px" viewBox="0 0 94 45" version="1.1" xmlns="http://www.w3.org/2000/svg" xmlns:xlink="http://www.w3.org/1999/xlink">
    <!-- Generator: Sketch 48.2 (47327) - http://www.bohemiancoding.com/sketch -->
    <title>98</title>
    <desc>Created with Sketch.</desc>
    <defs>
        <polygon id="path-1" points="0 0.103412011 30.7402542 0.103412011 30.7402542 44.1326439 0 44.1326439"></polygon>
        <polygon id="path-3" points="0.0437430168 0.119350559 12.2611173 0.119350559 12.2611173 14.8141131 0.0437430168 14.8141131"></polygon>
        <polygon id="path-5" points="0.0638924581 0.103386872 30.9895768 0.103386872 30.9895768 44.8743017 0.0638924581 44.8743017"></polygon>
    </defs>
    <g id="Home" stroke="none" stroke-width="1" fill="none" fill-rule="evenodd" transform="translate(-773.000000, -4001.000000)">
        <g id="Stats" transform="translate(0.000000, 3833.000000)">
            <g id="Stat-4" transform="translate(752.000000, 168.000000)">
                <g id="98" transform="translate(21.000000, 0.000000)">
                    <g id="Group-3" transform="translate(0.000000, 0.022374)">
                        <mask id="mask-2" fill="white">
                            <use xlink:href="#path-1"></use>
                        </mask>
                        <g id="Clip-2"></g>
                        <path d="M26.219514,25.2835517 L16.8943324,42.7602696 C16.8460642,42.8389567 16.8235642,42.8558003 16.8238156,42.8558003 C16.8234385,42.8560517 16.7829637,42.8756606 16.6372793,42.8756606 L7.18577095,42.8756606 L15.7655615,26.851764 L14.8116369,26.374236 L14.5493045,26.4793198 C14.3043184,26.5773645 13.6481732,26.7432863 12.7431453,26.7432863 C9.53595251,26.7432863 6.62477933,25.5369595 4.54560335,23.3465405 C2.42494693,21.1120014 1.2569581,17.9319595 1.2569581,14.3919176 C1.2569581,6.59736453 6.94103631,1.36039525 15.4010363,1.36039525 C23.8239553,1.36039525 29.4832709,6.54758799 29.4832709,14.2682304 C29.4832709,17.7378813 28.5979777,20.7245992 26.219514,25.2835517 M26.4000168,3.95128911 C23.6185642,1.43405447 19.8151844,0.103412011 15.4010363,0.103412011 C10.9760782,0.103412011 7.16201397,1.4394595 4.37113408,3.9668757 C1.51149721,6.55663827 -2.51396648e-05,10.1614148 -2.51396648e-05,14.3919176 C-2.51396648e-05,18.2553813 1.29064525,21.7428813 3.63391341,24.2118478 C5.95292179,26.6547947 9.18789385,28.0002696 12.7431453,28.0002696 C13.1103101,28.0002696 13.4514553,27.976764 13.7576564,27.9386774 L5.94638547,42.527602 L5.93834078,42.5431885 C5.74350838,42.932602 5.7417486,43.3342081 5.93356425,43.644683 C6.04631564,43.8268198 6.32574302,44.1326439 6.93299162,44.1326439 L16.6372793,44.1326439 C17.2677821,44.1326439 17.6693883,43.9119176 17.9796117,43.3947947 L17.9879078,43.381345 L27.3311899,25.8700601 C29.377433,21.9481466 30.7402542,18.4742221 30.7402542,14.2682304 C30.7402542,10.0886355 29.2392905,6.52106564 26.4000168,3.95128911" id="Fill-1" fill="#FF8626" mask="url(#mask-2)"></path>
                    </g>
                    <path d="M15.400986,9.91254469 C17.8717123,9.91254469 19.5318101,11.6471816 19.5318101,14.2287737 C19.5318101,16.8474469 17.8717123,18.6068464 15.400986,18.6068464 C12.8933045,18.6068464 11.2084441,16.8474469 11.2084441,14.2287737 C11.2084441,11.6471816 12.8933045,9.91254469 15.400986,9.91254469 M15.400986,19.8638296 C18.5732346,19.8638296 20.7887933,17.546581 20.7887933,14.2287737 C20.7887933,10.9472933 18.5732346,8.65556145 15.400986,8.65556145 C12.1924106,8.65556145 9.95146089,10.9472933 9.95146089,14.2287737 C9.95146089,17.546581 12.1924106,19.8638296 15.400986,19.8638296" id="Fill-4" fill="#FF8626"></path>
                    <path d="M25.7893869,11.7037458 C25.1792472,8.90997486 23.5933115,6.62628771 21.3239539,5.27339665 C19.0212863,3.90077095 16.1952109,3.52681844 13.1509232,4.19163687 C12.8119148,4.26567318 12.5970964,4.60065922 12.6711327,4.9397933 C12.7452947,5.27892737 13.0807835,5.49374581 13.4192891,5.4197095 C16.1458115,4.82440223 18.6568869,5.14681844 20.6802528,6.35314525 C22.6763422,7.54313128 24.0184232,9.48605028 24.5613142,11.971986 C25.0988003,14.4321536 24.6813561,16.8426704 23.3857835,18.7593184 C22.0496103,20.736176 19.9074595,22.0947235 17.190993,22.6881453 C14.4165796,23.2941369 11.8632696,22.9604078 9.80734777,21.7230335 C7.79428911,20.5114274 6.44139804,18.5494022 5.89523883,16.0488855 C5.35121648,13.5577961 5.76639804,11.2311201 7.09590922,9.32050559 C7.29413547,9.03554749 7.22387011,8.64387151 6.93891201,8.44564525 C6.65433101,8.24754469 6.26240363,8.31768436 6.06405168,8.60264246 C4.55164944,10.7762179 4.05551816,13.5159385 4.6672919,16.3171257 C5.74289246,21.2411061 9.64934497,24.2347374 14.598088,24.2343603 C15.5192053,24.2342346 16.4774036,24.1305335 17.4591075,23.9160922 C19.0865237,23.5606173 20.5313003,22.9514832 21.7579902,22.1187318 L20.7167053,24.1243743 C20.5566913,24.4324609 20.6767332,24.8118184 20.9848198,24.9718324 C21.0774595,25.0198492 21.1763841,25.0426006 21.273926,25.0426006 C21.5010628,25.0426006 21.7202807,24.9191648 21.8322779,24.7035922 L25.2261327,18.1672793 C25.2779204,18.0674749 25.2974036,17.9603799 25.2936327,17.8554218 C26.0793729,15.9846536 26.2598757,13.8577123 25.7893869,11.7037458" id="Fill-6" fill="#FF8626"></path>
                    <path d="M8.23704888,7.79445251 C8.3785852,7.79445251 8.5210014,7.74681285 8.63840363,7.64927095 C9.32509358,7.07860056 10.1188785,6.59151955 10.9977612,6.20172905 C11.3150237,6.06107263 11.4581941,5.68975978 11.317412,5.37237151 C11.1767556,5.05523464 10.8055684,4.91156145 10.4880545,5.05272067 C9.5033338,5.48939665 8.61075,6.03781844 7.83493994,6.68265084 C7.5680824,6.90450838 7.53150419,7.3007095 7.75336173,7.56769274 C7.87767737,7.71727374 8.05654609,7.79445251 8.23704888,7.79445251" id="Fill-8" fill="#FF8626"></path>
                    <path d="M14.4042486,38.1674162 C14.0941508,38.0115503 13.7163017,38.1366201 13.5604358,38.4465922 L12.6682291,40.2210754 C12.5122374,40.5312989 12.6373073,40.9090223 12.947405,41.0648883 C13.0380335,41.1103911 13.1343184,41.1320112 13.2292207,41.1320112 C13.4592486,41.1320112 13.6808547,41.0051816 13.7912179,40.7857123 L14.6834246,39.0112291 C14.8394162,38.7010056 14.7143464,38.3232821 14.4042486,38.1674162" id="Fill-10" fill="#FF8626"></path>
                    <path d="M16.4154092,34.1450698 C16.1051858,33.9892039 15.7274623,34.114148 15.5715964,34.4242458 L14.6793897,36.1987291 C14.523398,36.5089525 14.6484679,36.886676 14.9585656,37.0425419 C15.0491941,37.0880447 15.1454791,37.1096648 15.2403813,37.1096648 C15.4704092,37.1096648 15.6920154,36.9828352 15.8023785,36.7633659 L16.6945852,34.9888827 C16.8505768,34.6786592 16.725507,34.3009358 16.4154092,34.1450698" id="Fill-12" fill="#FF8626"></path>
                    <path d="M18.4265824,30.1227235 C18.1163589,29.9667318 17.7386355,30.0918017 17.5827696,30.4018994 L16.6905628,32.1763827 C16.5345712,32.4866061 16.6596411,32.8643296 16.9697388,33.0201955 C17.0603673,33.0656983 17.1566522,33.0873184 17.2515545,33.0873184 C17.4815824,33.0873184 17.7031885,32.9604888 17.8135517,32.7410196 L18.7057584,30.9665363 C18.86175,30.6563128 18.7366802,30.2785894 18.4265824,30.1227235" id="Fill-14" fill="#FF8626"></path>
                    <path d="M20.4377556,26.1003771 C20.1275321,25.9445112 19.7498087,26.0694553 19.5939427,26.3795531 L18.701736,28.1540363 C18.5457444,28.4642598 18.6708142,28.8419832 18.980912,28.9978492 C19.0715405,29.043352 19.1678254,29.0649721 19.2627277,29.0649721 C19.4927556,29.0649721 19.7143617,28.9381425 19.8247249,28.7186732 L20.7169316,26.9441899 C20.8729232,26.6339665 20.7478534,26.256243 20.4377556,26.1003771" id="Fill-16" fill="#FF8626"></path>
                    <g id="Group-20" transform="translate(80.824022, 12.843603)">
                        <mask id="mask-4" fill="white">
                            <use xlink:href="#path-3"></use>
                        </mask>
                        <g id="Clip-19"></g>
                        <path d="M10.621257,10.8030796 C10.0597626,12.5533031 8.43083799,13.5571299 6.15230447,13.5571299 C3.85215084,13.5571299 2.25163408,12.5776885 1.64463687,10.799183 C1.44955307,10.1801187 1.30072626,9.53704609 1.30072626,7.46679469 C1.30072626,5.40043994 1.45634078,4.73235335 1.64476257,4.13415503 C2.25163408,2.35564944 3.85215084,1.3763338 6.15230447,1.3763338 C8.43083799,1.3763338 10.0597626,2.38016061 10.6202514,4.12761872 C10.8302933,4.79281425 11.0041341,5.50313547 11.0041341,7.46679469 C11.0041341,9.43799581 10.845,10.0940154 10.621257,10.8030796 M11.8180307,3.7463757 C11.0896089,1.47525838 8.97146648,0.119350559 6.15230447,0.119350559 C3.31051676,0.119350559 1.23297486,1.43767458 0.452388268,3.73631983 L0.447988827,3.74926676 C0.185782123,4.58000698 0.0437430168,5.4186662 0.0437430168,7.46679469 C0.0437430168,9.52648743 0.179874302,10.334602 0.448114525,11.1841969 L0.452388268,11.1971439 C1.23297486,13.4957891 3.31051676,14.8141131 6.15230447,14.8141131 C8.97146648,14.8141131 11.0896089,13.4582053 11.8189106,11.1841969 C12.0694274,10.3909148 12.2611173,9.61334497 12.2611173,7.46679469 C12.2611173,5.32401536 12.0608799,4.51552374 11.8180307,3.7463757" id="Fill-18" fill="#FF8626" mask="url(#mask-4)"></path>
                    </g>
                    <path d="M66.0280726,10.9556899 C65.8396508,10.3578687 65.6840363,9.69003352 65.6840363,7.62317598 C65.6840363,5.55656983 65.8396508,4.88873464 66.0281983,4.29078771 C66.626648,2.53805028 68.2690223,1.53284078 70.5356145,1.53284078 C72.8142737,1.53284078 74.4430726,2.5366676 75.004567,4.28689106 L75.0132402,4.31215642 C75.2180028,4.86774302 75.3874441,5.50038268 75.3874441,7.62317598 C75.3874441,9.74634637 75.2180028,10.3788603 75.0132402,10.9341955 L75.004567,10.9595866 C74.4431983,12.7099358 72.8142737,13.7136369 70.5356145,13.7136369 C68.2688966,13.7136369 66.6263966,12.7085531 66.0280726,10.9556899 M76.1971927,11.3564162 C76.4873045,10.5653966 76.6444274,9.73063408 76.6444274,7.62317598 C76.6444274,5.51609497 76.4873045,4.6813324 76.1971927,3.89006145 C75.4648743,1.62661173 73.3496229,0.275857542 70.5356145,0.275857542 C67.7358101,0.275857542 65.6049721,1.62799441 64.835824,3.89282682 L64.8315503,3.90564804 C64.5692179,4.73638827 64.4270531,5.57479609 64.4270531,7.62317598 C64.4270531,9.67180726 64.5692179,10.5103408 64.8315503,11.3408296 L64.835824,11.3536508 C65.6049721,13.6186089 67.7356844,14.9706201 70.5356145,14.9706201 C73.3496229,14.9706201 75.465,13.6198659 76.1971927,11.3564162" id="Fill-21" fill="#FF8626"></path>
                    <path d="M87.4121355,22.8781257 L87.389007,22.9407235 C87.3471494,23.0771061 87.2807807,23.2102207 86.9763394,23.2102207 C86.6184763,23.2102207 86.5541187,23.0309749 86.5280992,22.9472598 C86.4755573,22.7602207 86.4412416,22.4594246 86.4412416,20.3103603 C86.4412416,18.2199972 86.4741746,17.9033631 86.5282249,17.6758492 C86.6025126,17.4881816 86.8115489,17.4480838 86.9763394,17.4480838 C87.3115768,17.4480838 87.3670098,17.6141313 87.3936578,17.6939497 L87.4013254,17.7158212 C87.4778757,17.920081 87.5114372,18.227162 87.5114372,20.3103603 C87.5114372,22.3089637 87.4807668,22.7177346 87.4121355,22.8781257 M86.9763394,16.1911006 C86.1875824,16.1911006 85.5563254,16.6145782 85.3291885,17.2964916 L85.3156131,17.3426229 C85.2183226,17.7316592 85.1842584,18.0676508 85.1842584,20.3103603 C85.1842584,22.6142849 85.219831,22.9438659 85.3210182,23.2983352 L85.3246634,23.3104022 C85.5442584,24.0238659 86.1771494,24.4672039 86.9763394,24.4672039 C87.7521494,24.4672039 88.3492165,24.0478743 88.5799986,23.3433352 C88.7347332,22.9697598 88.7684204,22.6195642 88.7684204,20.3103603 C88.7684204,18.0340894 88.7329735,17.6911844 88.5821355,17.2849274 C88.348588,16.5997458 87.7492584,16.1911006 86.9763394,16.1911006" id="Fill-23" fill="#FF8626"></path>
                    <path d="M73.1056047,26.4920782 C73.0901439,26.5191034 73.0779511,26.5378324 73.0691522,26.5505279 C73.0637472,26.5507793 73.057588,26.550905 73.0506746,26.550905 L69.9437891,26.550905 L84.4427137,1.44392179 L84.4440964,1.44140782 C84.4595573,1.41450838 84.47175,1.39577933 84.4805489,1.3830838 C84.4858282,1.3828324 84.4919874,1.3827067 84.4990265,1.3827067 L87.6057863,1.3827067 L73.1056047,26.4920782 Z M89.0509399,0.548949721 C88.9008561,0.283977654 88.6164008,0.125723464 88.290088,0.125723464 L84.4990265,0.125723464 C83.827169,0.125723464 83.5234818,0.519536313 83.3535377,0.816310056 L68.5329511,26.480514 C68.3500601,26.7853324 68.3323366,27.1291173 68.4860656,27.4006257 C68.6303673,27.6556676 68.9055209,27.8078883 69.2220293,27.8078883 L73.0506746,27.8078883 C73.723412,27.8078883 74.0269735,27.4129441 74.1955349,27.1181816 L89.0166243,1.45309777 C89.1924763,1.15996927 89.2054232,0.82196648 89.0509399,0.548949721 Z" id="Fill-25" fill="#FF8626"></path>
                    <path d="M70.0850363,10.2513394 C70.0352598,10.0678198 70.000567,9.73220531 70.000567,7.62323883 C70.000567,5.51402095 70.0352598,5.17878352 70.0850363,4.99538966 C70.1741564,4.75015223 70.4289469,4.72337849 70.5356648,4.72337849 C70.7526201,4.72337849 70.8985559,4.81702374 70.9920754,5.01688408 C71.0387095,5.20668855 71.0708883,5.59396508 71.0708883,7.62323883 C71.0708883,9.65238687 71.0387095,10.0397891 70.9919497,10.2297193 C70.8985559,10.4297053 70.7527458,10.5230992 70.5356648,10.5230992 C70.4289469,10.5230992 70.1741564,10.4963254 70.0850363,10.2513394 M72.166852,10.6800964 L72.190986,10.6112137 C72.2902877,10.2637835 72.3278715,9.91610196 72.3278715,7.62323883 C72.3278715,5.3303757 72.2902877,4.98281983 72.190986,4.63526397 L72.166852,4.56650698 C71.8800084,3.87768017 71.2702458,3.46639525 70.5356648,3.46639525 C69.7665168,3.46639525 69.1199246,3.91513827 68.888514,4.60937011 L68.8804693,4.63526397 C68.7811676,4.98281983 68.7435838,5.3303757 68.7435838,7.62323883 C68.7435838,9.91610196 68.7811676,10.2637835 68.8804693,10.6112137 L68.888514,10.6372332 C69.1199246,11.3315908 69.7665168,11.7800824 70.5356648,11.7800824 C71.2702458,11.7800824 71.8800084,11.3689232 72.166852,10.6800964" id="Fill-27" fill="#FF8626"></path>
                    <path d="M47.7054553,35.1100182 C45.2004134,35.1100182 43.4509441,33.3605489 43.4509441,30.855507 C43.4509441,28.314264 45.2004134,26.5392779 47.7054553,26.5392779 C50.2104972,26.5392779 51.9599665,28.314264 51.9599665,30.855507 C51.9599665,33.3605489 50.2104972,35.1100182 47.7054553,35.1100182 M47.7054553,25.2822947 C44.5119637,25.2822947 42.1939609,27.6261913 42.1939609,30.855507 C42.1939609,34.0491243 44.5119637,36.3670014 47.7054553,36.3670014 C50.8989469,36.3670014 53.2169497,34.0491243 53.2169497,30.855507 C53.2169497,27.6261913 50.8989469,25.2822947 47.7054553,25.2822947" id="Fill-29" fill="#FF8626"></path>
                    <path d="M47.7054553,9.91254469 C49.7408883,9.91254469 51.2182207,11.3898771 51.2182207,13.4251844 C51.2182207,15.460743 49.7408883,16.9380754 47.7054553,16.9380754 C45.6736676,16.9380754 44.2545335,15.4934246 44.2545335,13.4251844 C44.2545335,11.3569441 45.6736676,9.91254469 47.7054553,9.91254469 M47.7054553,18.1950587 C50.4246872,18.1950587 52.4752039,16.1444162 52.4752039,13.4251844 C52.4752039,10.7059525 50.4246872,8.65556145 47.7054553,8.65556145 C44.9775503,8.65556145 42.9975503,10.6614553 42.9975503,13.4251844 C42.9975503,16.1890391 44.9775503,18.1950587 47.7054553,18.1950587" id="Fill-31" fill="#FF8626"></path>
                    <g id="Group-35" transform="translate(32.178771, 0.022374)">
                        <mask id="mask-6" fill="white">
                            <use xlink:href="#path-5"></use>
                        </mask>
                        <g id="Clip-34"></g>
                        <path d="M25.667007,40.2584707 C23.1077891,42.4243785 19.5065321,43.6173813 15.5266718,43.6173813 C11.5469372,43.6173813 7.94580587,42.4243785 5.38646229,40.2584707 C2.72681145,38.0073394 1.3208757,34.8764455 1.3208757,31.204169 C1.3208757,26.142926 4.17359916,23.3906355 5.87392039,22.200398 L6.14203492,22.0127304 L6.14203492,21.2535126 L5.89830587,21.0647137 C5.04192318,20.4017807 2.24802654,17.8767528 2.24802654,13.217493 C2.24802654,10.0345601 3.47245391,7.09711592 5.69555447,4.9462919 C8.12040084,2.60038408 11.5200377,1.36037011 15.5266718,1.36037011 C19.5334316,1.36037011 22.9329427,2.60038408 25.3577891,4.9462919 C27.5811411,7.09711592 28.8054427,10.0345601 28.8054427,13.217493 C28.8054427,17.9211243 26.0588087,20.4129679 25.217007,21.0647137 L24.9731522,21.2535126 L24.9731522,22.0127304 L25.2412668,22.200398 C26.9185852,23.3744204 29.7325936,26.1053422 29.7325936,31.204169 C29.7325936,34.8764455 28.3266578,38.0073394 25.667007,40.2584707 M26.5316858,21.5957891 C27.7924399,20.4347137 30.062426,17.717493 30.062426,13.217493 C30.062426,9.69077514 28.7021187,6.43254888 26.2317696,4.04289804 C23.567845,1.46570531 19.866155,0.103386872 15.5266718,0.103386872 C11.1873142,0.103386872 7.4854986,1.46570531 4.82157402,4.04289804 C2.35147626,6.43254888 0.991043296,9.69077514 0.991043296,13.217493 C0.991043296,17.6878282 3.30376676,20.425412 4.58224441,21.5960405 C2.67716061,23.1059288 0.0638924581,26.1068506 0.0638924581,31.204169 C0.0638924581,39.2528841 6.42234218,44.8743645 15.5266718,44.8743645 C24.6310014,44.8743645 30.9895768,39.2528841 30.9895768,31.204169 C30.9895768,26.0776885 28.413264,23.092102 26.5316858,21.5957891" id="Fill-33" fill="#FF8626" mask="url(#mask-6)"></path>
                    </g>
                    <path d="M45.6600419,5.89290084 C47.0114246,5.61699302 48.4568296,5.61699302 49.8079609,5.89290084 C49.8504469,5.90157402 49.8928073,5.90584777 49.9344134,5.90584777 C50.2267877,5.90584777 50.488743,5.7005824 50.5494553,5.40305447 C50.6189665,5.06278911 50.3996229,4.73094553 50.0596089,4.66143436 C48.5431844,4.35158799 46.9249441,4.35158799 45.4083939,4.66143436 C45.0683799,4.73094553 44.8490363,5.06278911 44.9185475,5.40305447 C44.987933,5.74319413 45.319148,5.9635433 45.6600419,5.89290084" id="Fill-36" fill="#FF8626"></path>
                    <path d="M55.8584246,35.8191578 C54.9120419,36.9392556 53.6478939,37.8574818 52.2027402,38.4742835 C51.8834665,38.6105405 51.7351425,38.9798422 51.8713994,39.2991159 C51.9733408,39.537817 52.2055056,39.6809874 52.4497374,39.6809874 C52.5320698,39.6809874 52.6157849,39.6647723 52.6962318,39.630331 C54.320757,38.9369791 55.746176,37.8995908 56.8186341,36.6305405 C57.0426285,36.3654427 57.0091927,35.9687388 56.7442207,35.7447444 C56.4788715,35.52075 56.082419,35.5543115 55.8584246,35.8191578" id="Fill-38" fill="#FF8626"></path>
                    <path d="M51.5964595,21.7373883 C55.3357332,20.3966899 57.9782891,17.1725279 57.9782891,13.415405 C57.9782891,9.99314246 55.7055377,6.81624302 52.1881215,5.32181564 C51.8689735,5.18606145 51.4997975,5.33513966 51.3639176,5.65453911 C51.2281634,5.97393855 51.3771159,6.34298883 51.6966411,6.47861732 C54.7959846,7.79555866 56.7213059,10.4534497 56.7213059,13.415405 C56.7213059,17.6779609 52.6895321,21.145852 47.7338757,21.145852 C42.778345,21.145852 38.7464455,17.6779609 38.7464455,13.415405 C38.7464455,10.4769553 40.6500209,7.82836592 43.7142947,6.50312849 C44.0329399,6.36536313 44.1795042,5.99543296 44.0416131,5.67691341 C43.9039735,5.35814246 43.5340433,5.21132682 43.215398,5.34946927 C39.6836522,6.87682961 37.4894623,9.9675 37.4894623,13.415405 C37.4894623,17.1725279 40.1321439,20.3966899 43.8714176,21.7373883 C39.564993,23.1048603 36.4838757,26.690405 36.4838757,30.8874721 C36.4838757,32.0445251 36.7167947,33.1775698 37.1759707,34.2549302 C37.277912,34.4938827 37.5102025,34.6371788 37.7544344,34.6371788 C37.8366411,34.6371788 37.9202304,34.6209637 38.0005517,34.5867737 C38.3199511,34.4506425 38.4685265,34.0814665 38.3323953,33.7621927 C37.9398394,32.8414525 37.7408589,31.8742039 37.7408589,30.8874721 C37.7408589,26.2089804 42.223764,22.4028352 47.7338757,22.4028352 C53.2441131,22.4028352 57.7268925,26.2089804 57.7268925,30.8874721 C57.7268925,31.784581 57.5618506,32.6683659 57.2360405,33.5141899 C57.1113478,33.8382402 57.2727444,34.2018855 57.596669,34.3265782 C57.9204679,34.4513966 58.2843645,34.2898743 58.4090573,33.9659497 C58.790426,32.9753212 58.9838757,31.939567 58.9838757,30.8874721 C58.9838757,26.690405 55.9028841,23.1048603 51.5964595,21.7373883" id="Fill-40" fill="#FF8626"></path>
                    <path d="M43.3284763,38.5010573 C41.943155,37.9202053 40.7145796,37.058669 39.7753617,36.0099679 C39.5439511,35.7515321 39.1467444,35.7294092 38.8879316,35.9610712 C38.6293701,36.1926075 38.6073729,36.5899399 38.8390349,36.8486271 C39.9018142,38.035345 41.2862556,39.0076215 42.8424008,39.6603729 C42.9218422,39.6935573 43.0041746,39.7092696 43.0851243,39.7092696 C43.3308645,39.7092696 43.5640349,39.5644651 43.6650964,39.3237528 C43.7992165,39.0035992 43.6486299,38.6353031 43.3284763,38.5010573" id="Fill-42" fill="#FF8626"></path>
                    <path d="M50.0394721,39.1439036 C48.5371257,39.4469623 46.9304497,39.4467109 45.4282291,39.1439036 C45.0870838,39.0747696 44.7566229,39.2956215 44.6879916,39.6357612 C44.6193603,39.9760265 44.8395838,40.307493 45.1798492,40.3761243 C46.0126006,40.5440573 46.8718743,40.6290293 47.7339134,40.6290293 C48.5959525,40.6290293 49.4552263,40.5440573 50.2879777,40.3761243 C50.628243,40.307493 50.8484665,39.9760265 50.7798352,39.6357612 C50.7112039,39.2956215 50.380743,39.0748953 50.0394721,39.1439036" id="Fill-44" fill="#FF8626"></path>
                </g>
            </g>
        </g>
    </g>
</svg>