<?xml version="1.0" encoding="UTF-8"?>
<svg width="25px" height="35px" viewBox="0 0 25 35" version="1.1" xmlns="http://www.w3.org/2000/svg" xmlns:xlink="http://www.w3.org/1999/xlink">
    <!-- Generator: Sketch 48.2 (47327) - http://www.bohemiancoding.com/sketch -->
    <title>award</title>
    <desc>Created with Sketch.</desc>
    <defs></defs>
    <g id="Home" stroke="none" stroke-width="1" fill="none" fill-rule="evenodd" transform="translate(-638.000000, -3090.000000)">
        <g id="Supplier-Selection" transform="translate(0.000000, 2642.000000)" fill="#673490" fill-rule="nonzero">
            <g id="Engage-to-Award" transform="translate(132.000000, 404.000000)">
                <g id="Bar" transform="translate(1.000000, 29.000000)">
                    <g id="Award" transform="translate(467.000000, 0.000000)">
                        <g id="award" transform="translate(38.000000, 15.000000)">
                            <path d="M1.69354839,0 C0.733870968,0 0,0.733870968 0,1.69354839 C0,2.42741935 0.451612903,3.0483871 1.12903226,3.27419355 L1.12903226,7.11290323 C1.12903226,8.18548387 1.69354839,9.14516129 2.65322581,9.59677419 L10.1612903,13.5483871 L10.1612903,14.1129032 C10.1612903,14.7903226 10.5564516,15.3548387 11.1209677,15.6370968 L9.14516129,20.4919355 L1.63709677,21.1693548 C1.41129032,21.1693548 1.24193548,21.3387097 1.12903226,21.5645161 C1.07258065,21.7903226 1.12903226,22.016129 1.2983871,22.1854839 L6.94354839,27.1532258 L5.19354839,34.266129 C5.13709677,34.4919355 5.25,34.7177419 5.41935484,34.8306452 C5.58870968,34.9435484 5.87096774,35 6.04032258,34.8306452 L12.4193548,30.9354839 L18.7419355,34.8306452 C18.8548387,34.8870968 18.9112903,34.9435484 19.0241935,34.9435484 C19.1370968,34.9435484 19.25,34.8870968 19.3629032,34.8306452 C19.5322581,34.7177419 19.6451613,34.4919355 19.5887097,34.266129 L17.8387097,27.1532258 L23.483871,22.1854839 C23.6532258,22.016129 23.7096774,21.7903226 23.6532258,21.5645161 C23.5967742,21.3387097 23.3709677,21.2258065 23.1451613,21.1693548 L15.6370968,20.4919355 L13.6612903,15.6370968 C14.2258065,15.3548387 14.6209677,14.7903226 14.6209677,14.1129032 L14.6209677,13.5483871 L22.1290323,9.59677419 C23.0887097,9.08870968 23.6532258,8.12903226 23.6532258,7.11290323 L23.6532258,3.27419355 C24.3306452,3.0483871 24.7822581,2.42741935 24.7822581,1.69354839 C24.7822581,0.733870968 24.0483871,0 23.0887097,0 L1.69354839,0 Z M1.69354839,1.12903226 L23.1451613,1.12903226 C23.483871,1.12903226 23.7096774,1.35483871 23.7096774,1.69354839 C23.7096774,2.03225806 23.483871,2.25806452 23.1451613,2.25806452 L1.69354839,2.25806452 C1.35483871,2.25806452 1.12903226,2.03225806 1.12903226,1.69354839 C1.12903226,1.35483871 1.35483871,1.12903226 1.69354839,1.12903226 Z M2.25806452,3.38709677 L6.77419355,3.38709677 L6.77419355,10.5 L3.16129032,8.58064516 C2.59677419,8.2983871 2.25806452,7.73387097 2.25806452,7.05645161 L2.25806452,3.38709677 Z M7.90322581,3.38709677 L16.9354839,3.38709677 L16.9354839,11.1209677 L14.5645161,12.3629032 C14.2822581,11.7419355 13.6612903,11.2903226 12.983871,11.2903226 L11.8548387,11.2903226 C11.1774194,11.2903226 10.5564516,11.7419355 10.2741935,12.3629032 L7.90322581,11.1209677 L7.90322581,3.38709677 Z M18.0645161,3.38709677 L22.5806452,3.38709677 L22.5806452,7.11290323 C22.5806452,7.73387097 22.2419355,8.2983871 21.6774194,8.63709677 L18.0645161,10.5 L18.0645161,3.38709677 Z M11.8548387,12.4193548 L12.983871,12.4193548 C13.266129,12.4193548 13.4919355,12.6451613 13.5483871,12.8709677 C13.5483871,12.9274194 13.5483871,12.9274194 13.5483871,12.983871 L13.5483871,14.1129032 C13.5483871,14.1129032 13.5483871,14.1693548 13.5483871,14.1693548 C13.5483871,14.3387097 13.4354839,14.5080645 13.266129,14.6209677 C13.2096774,14.6209677 13.0967742,14.6774194 12.983871,14.6774194 L11.8548387,14.6774194 C11.7419355,14.6774194 11.6290323,14.6209677 11.5725806,14.5645161 C11.4032258,14.4516129 11.3467742,14.3387097 11.2903226,14.1129032 C11.2903226,14.1129032 11.2903226,14.1129032 11.2903226,14.0564516 L11.2903226,12.9274194 C11.2903226,12.8709677 11.2903226,12.8709677 11.2903226,12.8145161 C11.3467742,12.6451613 11.5725806,12.4193548 11.8548387,12.4193548 Z M12.3064516,15.8064516 L12.5887097,15.8064516 L14.7903226,21.2822581 C14.8467742,21.4516129 15.0725806,21.6209677 15.2419355,21.6209677 L21.733871,22.2419355 L19.6451613,24.0483871 C19.5887097,23.8225806 19.4193548,23.7096774 19.1935484,23.7096774 C18.8548387,23.7096774 18.6290323,23.9354839 18.6290323,24.2741935 L18.6290323,24.8387097 C18.6290323,24.8951613 18.6290323,24.8951613 18.6290323,24.9516129 L16.8790323,26.5322581 C16.7096774,26.6451613 16.6532258,26.8709677 16.7096774,27.0967742 L18.1774194,33.1935484 L12.7016129,29.8064516 C12.5887097,29.75 12.4758065,29.6935484 12.4193548,29.6935484 C12.3629032,29.6935484 12.1935484,29.75 12.1370968,29.8064516 L6.66129032,33.1935484 L8.12903226,27.0967742 C8.18548387,26.8709677 8.12903226,26.6451613 7.95967742,26.5322581 L5.58870968,24.4435484 C5.58870968,24.3870968 5.64516129,24.3306452 5.64516129,24.2741935 C5.64516129,24.1048387 5.58870968,23.9919355 5.47580645,23.8790323 C5.30645161,23.7096774 5.02419355,23.6532258 4.85483871,23.766129 L3.0483871,22.1854839 L9.59677419,21.6209677 C9.82258065,21.6209677 9.99193548,21.4516129 10.0483871,21.2822581 L12.3064516,15.8064516 Z M7.90322581,23.7096774 C7.56451613,23.7096774 7.33870968,23.9354839 7.33870968,24.2741935 L7.33870968,25.4032258 C7.33870968,25.7419355 7.56451613,25.9677419 7.90322581,25.9677419 C8.24193548,25.9677419 8.46774194,25.7419355 8.46774194,25.4032258 L8.46774194,24.2741935 C8.46774194,23.9354839 8.24193548,23.7096774 7.90322581,23.7096774 Z M10.7258065,23.7096774 C10.3870968,23.7096774 10.1612903,23.9354839 10.1612903,24.2741935 L10.1612903,25.4032258 C10.1612903,25.7419355 10.3870968,25.9677419 10.7258065,25.9677419 C11.0645161,25.9677419 11.2903226,25.7419355 11.2903226,25.4032258 L11.2903226,24.2741935 C11.2903226,23.9354839 11.0645161,23.7096774 10.7258065,23.7096774 Z M13.5483871,23.7096774 C13.2096774,23.7096774 12.983871,23.9354839 12.983871,24.2741935 L12.983871,25.4032258 C12.983871,25.7419355 13.2096774,25.9677419 13.5483871,25.9677419 C13.8870968,25.9677419 14.1129032,25.7419355 14.1129032,25.4032258 L14.1129032,24.2741935 C14.1129032,23.9354839 13.8870968,23.7096774 13.5483871,23.7096774 Z M16.3709677,23.7096774 C16.0322581,23.7096774 15.8064516,23.9354839 15.8064516,24.2741935 L15.8064516,25.4032258 C15.8064516,25.7419355 16.0322581,25.9677419 16.3709677,25.9677419 C16.7096774,25.9677419 16.9354839,25.7419355 16.9354839,25.4032258 L16.9354839,24.2741935 C16.9354839,23.9354839 16.7096774,23.7096774 16.3709677,23.7096774 Z M9.59677419,27.0967742 C9.25806452,27.0967742 9.03225806,27.3225806 9.03225806,27.6612903 C9.03225806,28 9.25806452,28.2258065 9.59677419,28.2258065 L15.2419355,28.2258065 C15.5806452,28.2258065 15.8064516,28 15.8064516,27.6612903 C15.8064516,27.3225806 15.5806452,27.0967742 15.2419355,27.0967742 L9.59677419,27.0967742 Z" id="Shape"></path>
                        </g>
                    </g>
                </g>
            </g>
        </g>
    </g>
</svg>