<?xml version="1.0" encoding="UTF-8"?>
<svg width="118px" height="45px" viewBox="0 0 118 45" version="1.1" xmlns="http://www.w3.org/2000/svg" xmlns:xlink="http://www.w3.org/1999/xlink">
    <!-- Generator: Sketch 48.2 (47327) - http://www.bohemiancoding.com/sketch -->
    <title>220-plus</title>
    <desc>Created with Sketch.</desc>
    <defs>
        <polygon id="path-1" points="0 0.103651261 28.9048109 0.103651261 28.9048109 44.2562143 0 44.2562143"></polygon>
    </defs>
    <g id="Home" stroke="none" stroke-width="1" fill="none" fill-rule="evenodd" transform="translate(-141.000000, -4001.000000)">
        <g id="Stats" transform="translate(0.000000, 3833.000000)">
            <g id="Stat-1" transform="translate(141.000000, 168.000000)">
                <g id="220-plus" transform="translate(0.000000, 0.000000)">
                    <path d="M59.9018824,43.2702479 L33.5180168,43.2702479 L33.5180168,36.3386092 C33.5180168,36.1168866 33.5282269,36.068105 33.6796134,35.8775168 L48.4815882,19.2793235 C50.2014202,17.3531471 50.9351597,15.6705 50.9351597,13.652937 C50.9351597,10.7849118 49.2037311,8.93184454 46.5240252,8.93184454 C44.5440252,8.93184454 42.0980168,9.84646639 41.6829328,14.2016345 L33.5688151,12.9722647 C33.5693193,12.9659622 33.5702017,12.9589034 33.5714622,12.9508361 L33.5790252,12.8821387 C33.7531008,9.75041597 35.1240252,6.91289496 37.4395714,4.89230672 C39.8787731,2.76369328 43.1702017,1.63869328 46.9578908,1.63869328 C54.5790252,1.63869328 59.9018824,6.42621429 59.9018824,13.2810882 C59.9018824,17.1025588 58.5399076,20.2576008 55.4858319,23.5107101 L45.2738571,34.8570126 L45.2738571,35.8531891 L59.9018824,35.8531891 L59.9018824,43.2702479 Z M59.9122185,34.5926849 L47.2075966,34.5926849 L56.4094034,24.3686092 C59.6962941,20.8656681 61.1623866,17.4456681 61.1623866,13.2810882 C61.1623866,9.67037395 59.7697815,6.39407143 57.241084,4.05545798 C54.6399076,1.64978571 51.0840252,0.378189076 46.9578908,0.378189076 C38.7578067,0.378189076 32.7440672,5.47755882 32.3223025,12.7820546 C32.2766723,13.1067605 32.3414622,13.4233992 32.5058319,13.6776429 C32.6908739,13.9636513 32.9878487,14.1536092 33.3512521,14.2139874 L41.5381008,15.4544496 C41.9262101,15.5101639 42.2836891,15.4163824 42.5439832,15.1903739 C42.7911681,14.9760882 42.9307059,14.6634832 42.9391513,14.3070126 C43.2065042,11.5383151 44.3792773,10.1923487 46.5240252,10.1923487 C48.4969664,10.1923487 49.6746555,11.4861303 49.6746555,13.652937 C49.6746555,15.3558782 49.0566303,16.7426849 47.5411261,18.4400798 L32.7274286,35.0513824 L32.7054958,35.0772227 C32.3705798,35.4959622 32.2575126,35.8142395 32.2575126,36.3386092 L32.2575126,43.2807101 C32.2575126,44.0049958 32.7832689,44.5307521 33.5075546,44.5307521 L59.9122185,44.5307521 C60.6366303,44.5307521 61.1623866,44.0049958 61.1623866,43.2807101 L61.1623866,35.8427269 C61.1623866,35.1184412 60.6366303,34.5926849 59.9122185,34.5926849 Z" id="Fill-1" fill="#FF8626"></path>
                    <path d="M46.1165924,4.62877311 C42.5135672,4.89801681 39.2913403,6.87763866 37.9073067,9.67242857 C37.7527689,9.98427731 37.880458,10.3623025 38.1924328,10.5168403 C38.2823067,10.5613361 38.3776008,10.5823866 38.4716345,10.5823866 C38.7035672,10.5823866 38.9269286,10.4538151 39.0368445,10.2317143 C40.2270126,7.82831092 43.0428529,6.12247059 46.2103739,5.88587395 C46.5575168,5.85990756 46.8178109,5.55738655 46.7919706,5.21036975 C46.7660042,4.86322689 46.4615924,4.60457143 46.1165924,4.62877311" id="Fill-3" fill="#FF8626"></path>
                    <path d="M52.7357269,7.90977731 C52.9132059,7.90977731 53.0899286,7.83502941 53.2144664,7.68969328 C53.441105,7.42536555 53.4104748,7.02755042 53.1461471,6.80103782 C52.0635,5.87305462 50.7858529,5.22692017 49.3487521,4.88053361 C49.0094244,4.79809664 48.6698445,5.00721429 48.588416,5.34540756 C48.5067353,5.68385294 48.7149706,6.02431513 49.0532899,6.1057437 C50.2950126,6.40511345 51.395937,6.96112185 52.3258109,7.75801261 C52.4446765,7.85986134 52.5905168,7.90977731 52.7357269,7.90977731" id="Fill-5" fill="#FF8626"></path>
                    <path d="M53.5662479,40.3660336 L55.5002395,40.3660336 C55.8482647,40.3660336 56.1304916,40.0839328 56.1304916,39.7357815 C56.1304916,39.3876303 55.8482647,39.1055294 55.5002395,39.1055294 L53.5662479,39.1055294 C53.2180966,39.1055294 52.9359958,39.3876303 52.9359958,39.7357815 C52.9359958,40.0839328 53.2180966,40.3660336 53.5662479,40.3660336" id="Fill-7" fill="#FF8626"></path>
                    <path d="M48.9023824,40.3660336 L50.8363739,40.3660336 C51.1843992,40.3660336 51.4666261,40.0839328 51.4666261,39.7357815 C51.4666261,39.3876303 51.1843992,39.1055294 50.8363739,39.1055294 L48.9023824,39.1055294 C48.5542311,39.1055294 48.2721303,39.3876303 48.2721303,39.7357815 C48.2721303,40.0839328 48.5542311,40.3660336 48.9023824,40.3660336" id="Fill-9" fill="#FF8626"></path>
                    <path d="M43.6082647,39.7357815 C43.6082647,40.0839328 43.8903655,40.3660336 44.2385168,40.3660336 L46.1725084,40.3660336 C46.5205336,40.3660336 46.8027605,40.0839328 46.8027605,39.7357815 C46.8027605,39.3876303 46.5205336,39.1055294 46.1725084,39.1055294 L44.2385168,39.1055294 C43.8903655,39.1055294 43.6082647,39.3876303 43.6082647,39.7357815" id="Fill-11" fill="#FF8626"></path>
                    <path d="M41.5086176,39.1055294 L38.9287437,39.1055294 L38.9287437,37.0466218 L54.2472731,19.4992689 C55.2787437,18.3440168 56.0410966,16.7446891 56.3388277,15.1113277 C56.7148361,13.049395 56.3446261,11.0242689 55.2685336,9.25477311 C55.0877773,8.95742017 54.7000462,8.86288235 54.4025672,9.04363866 C54.1052143,9.22452101 54.0106765,9.6122521 54.1914328,9.90960504 C56.4118109,13.5604034 54.5837017,17.229605 53.3022731,18.6650672 L37.8237857,36.3958235 C37.7235756,36.5106555 37.6682395,36.6578824 37.6682395,36.8102773 L37.6682395,39.7357815 C37.6682395,40.0839328 37.9503403,40.3660336 38.2984916,40.3660336 C38.3083235,40.3660336 38.3176513,40.3635126 38.3273571,40.3632605 C38.337063,40.3635126 38.3462647,40.3660336 38.3560966,40.3660336 L41.5086176,40.3660336 C41.8567689,40.3660336 42.1388697,40.0839328 42.1388697,39.7357815 C42.1388697,39.3876303 41.8567689,39.1055294 41.5086176,39.1055294" id="Fill-13" fill="#FF8626"></path>
                    <g id="Group-17" transform="translate(0.000000, 0.274538)">
                        <mask id="mask-2" fill="white">
                            <use xlink:href="#path-1"></use>
                        </mask>
                        <g id="Clip-16"></g>
                        <path d="M27.6443067,42.9957101 L1.26044118,42.9957101 L1.26044118,36.0640714 C1.26044118,35.8423487 1.27065126,35.7935672 1.42203782,35.602979 L16.2240126,19.0047857 C17.9438445,17.0786092 18.677584,15.3959622 18.677584,13.3783992 C18.677584,10.5103739 16.9461555,8.65730672 14.2664496,8.65730672 C12.2864496,8.65730672 9.84044118,9.57192857 9.42535714,13.9270966 L1.3112395,12.6977269 C1.3117437,12.6914244 1.31262605,12.6843655 1.31388655,12.6762983 L1.32144958,12.6076008 C1.49552521,9.47587815 2.86644958,6.63835714 5.1819958,4.61776891 C7.62119748,2.48915546 10.9126261,1.36415546 14.7003151,1.36415546 C22.3214496,1.36415546 27.6443067,6.15167647 27.6443067,13.0065504 C27.6443067,16.828021 26.2823319,19.983063 23.2282563,23.2361723 L13.0162815,34.5824748 L13.0162815,35.5786513 L27.6443067,35.5786513 L27.6443067,42.9957101 Z M27.6546429,34.3181471 L14.950021,34.3181471 L24.1518277,24.0940714 C27.4387185,20.5911303 28.9048109,17.1711303 28.9048109,13.0065504 C28.9048109,9.39583613 27.5122059,6.11953361 24.9835084,3.78092017 C22.3823319,1.3752479 18.8264496,0.103651261 14.7003151,0.103651261 C6.50023109,0.103651261 0.486491597,5.20302101 0.0647268908,12.5075168 C0.0190966387,12.8322227 0.0838865546,13.1488613 0.248256303,13.403105 C0.433298319,13.6891134 0.730273109,13.8790714 1.09367647,13.9394496 L9.28052521,15.1799118 C9.66863445,15.2356261 10.0261134,15.1418445 10.2864076,14.9158361 C10.5335924,14.7015504 10.6731303,14.3889454 10.6815756,14.0324748 C10.9489286,11.2637773 12.1217017,9.91781092 14.2664496,9.91781092 C16.2393908,9.91781092 17.4170798,11.2115924 17.4170798,13.3783992 C17.4170798,15.0813403 16.7990546,16.4681471 15.2835504,18.165542 L0.469852941,34.7768445 L0.447920168,34.8026849 C0.113004202,35.2214244 -6.30252101e-05,35.5397017 -6.30252101e-05,36.0640714 L-6.30252101e-05,43.0061723 C-6.30252101e-05,43.730458 0.525693277,44.2562143 1.24997899,44.2562143 L27.6546429,44.2562143 C28.3790546,44.2562143 28.9048109,43.730458 28.9048109,43.0061723 L28.9048109,35.5681891 C28.9048109,34.8439034 28.3790546,34.3181471 27.6546429,34.3181471 Z" id="Fill-15" fill="#FF8626" mask="url(#mask-2)"></path>
                    </g>
                    <path d="M13.8590168,4.62877311 C10.2559916,4.89801681 7.03376471,6.87763866 5.64973109,9.67242857 C5.49519328,9.98427731 5.62288235,10.3623025 5.93485714,10.5168403 C6.02473109,10.5613361 6.12002521,10.5823866 6.21405882,10.5823866 C6.4459916,10.5823866 6.66935294,10.4538151 6.77926891,10.2317143 C7.96943697,7.82831092 10.7852773,6.12247059 13.9527983,5.88587395 C14.2999412,5.85990756 14.5602353,5.55738655 14.534395,5.21036975 C14.5084286,4.86322689 14.2040168,4.60457143 13.8590168,4.62877311" id="Fill-18" fill="#FF8626"></path>
                    <path d="M20.4781387,7.90977731 C20.6556176,7.90977731 20.8323403,7.83502941 20.9568782,7.68969328 C21.1835168,7.42536555 21.1528866,7.02755042 20.8885588,6.80103782 C19.8059118,5.87305462 18.5282647,5.22692017 17.0911639,4.88053361 C16.7518361,4.79809664 16.4122563,5.00721429 16.3308277,5.34540756 C16.2491471,5.68385294 16.4573824,6.02431513 16.7957017,6.1057437 C18.0374244,6.40511345 19.1383487,6.96112185 20.0682227,7.75801261 C20.1870882,7.85986134 20.3329286,7.90977731 20.4781387,7.90977731" id="Fill-20" fill="#FF8626"></path>
                    <path d="M21.3086723,40.3660336 L23.2426639,40.3660336 C23.5906891,40.3660336 23.872916,40.0839328 23.872916,39.7357815 C23.872916,39.3876303 23.5906891,39.1055294 23.2426639,39.1055294 L21.3086723,39.1055294 C20.960521,39.1055294 20.6784202,39.3876303 20.6784202,39.7357815 C20.6784202,40.0839328 20.960521,40.3660336 21.3086723,40.3660336" id="Fill-22" fill="#FF8626"></path>
                    <path d="M16.6448067,40.3660336 L18.5787983,40.3660336 C18.9268235,40.3660336 19.2090504,40.0839328 19.2090504,39.7357815 C19.2090504,39.3876303 18.9268235,39.1055294 18.5787983,39.1055294 L16.6448067,39.1055294 C16.2966555,39.1055294 16.0145546,39.3876303 16.0145546,39.7357815 C16.0145546,40.0839328 16.2966555,40.3660336 16.6448067,40.3660336" id="Fill-24" fill="#FF8626"></path>
                    <path d="M11.3506891,39.7357815 C11.3506891,40.0839328 11.6327899,40.3660336 11.9809412,40.3660336 L13.9149328,40.3660336 C14.262958,40.3660336 14.5451849,40.0839328 14.5451849,39.7357815 C14.5451849,39.3876303 14.262958,39.1055294 13.9149328,39.1055294 L11.9809412,39.1055294 C11.6327899,39.1055294 11.3506891,39.3876303 11.3506891,39.7357815" id="Fill-26" fill="#FF8626"></path>
                    <path d="M9.25102941,39.1055294 L6.67115546,39.1055294 L6.67115546,37.0466218 L21.9896849,19.4992689 C23.0211555,18.3440168 23.7835084,16.7446891 24.0812395,15.1113277 C24.4572479,13.049395 24.0870378,11.0242689 23.0109454,9.25477311 C22.8301891,8.95742017 22.442458,8.86288235 22.144979,9.04363866 C21.8476261,9.22452101 21.7530882,9.6122521 21.9338445,9.90960504 C24.1542227,13.5604034 22.3261134,17.229605 21.0446849,18.6650672 L5.56619748,36.3958235 C5.46598739,36.5106555 5.41065126,36.6578824 5.41065126,36.8102773 L5.41065126,39.7357815 C5.41065126,40.0839328 5.6927521,40.3660336 6.04090336,40.3660336 C6.05086134,40.3660336 6.06006303,40.3635126 6.06976891,40.3632605 C6.07947479,40.3635126 6.08867647,40.3660336 6.0985084,40.3660336 L9.25102941,40.3660336 C9.59918067,40.3660336 9.88128151,40.0839328 9.88128151,39.7357815 C9.88128151,39.3876303 9.59918067,39.1055294 9.25102941,39.1055294" id="Fill-28" fill="#FF8626"></path>
                    <path d="M91.700937,35.0246471 C89.7989622,40.6580924 85.3342563,43.6357815 78.7889622,43.6357815 C75.5032059,43.6357815 72.7191303,42.8700252 70.5141303,41.3598151 C68.3703908,39.8914538 66.8306849,37.7588067 65.9367353,35.0173361 C65.2696765,33.0160336 64.9772395,31.2223361 64.9772395,22.4483445 C64.9772395,13.6738487 65.2696765,11.8802773 65.9379958,9.87506723 C66.8306849,7.13763025 68.3703908,5.00498319 70.5141303,3.5364958 C72.7191303,2.02628571 75.5032059,1.26052941 78.7889622,1.26052941 C85.3342563,1.26052941 89.7989622,4.23847059 91.700937,9.87191597 C92.3126597,11.8933866 92.6008109,13.8024202 92.6008109,22.4483445 C92.6008109,31.0938908 92.3126597,33.0030504 91.700937,35.0246471 Z M92.898542,9.47851261 C91.8827017,6.46389076 90.1699286,4.11481513 87.8072395,2.49657983 C85.388584,0.84002521 82.3544244,2.5210084e-05 78.7889622,2.5210084e-05 C71.723584,2.5210084e-05 66.7340042,3.36821849 64.740895,9.48052941 C64.0288361,11.6165798 63.7167353,13.4886807 63.7167353,22.4483445 C63.7167353,31.4076303 64.0288361,33.2797311 64.7395084,35.412 C66.7340042,41.5280924 71.723584,44.8962857 78.7889622,44.8962857 C82.3545504,44.8962857 85.3887101,44.0562857 87.8072395,42.3998571 C90.1699286,40.7816218 91.8827017,38.4325462 92.898542,35.4179244 L92.9044664,35.399521 C93.5696345,33.2038487 93.8613151,31.3152353 93.8613151,22.4483445 C93.8613151,13.5810756 93.5696345,11.6924622 92.9044664,9.49691597 L92.898542,9.47851261 Z" id="Fill-30" fill="#FF8626"></path>
                    <path d="M75.9803319,33.2270798 L75.9701218,33.1978361 C75.6325588,32.297584 75.5144496,31.2017017 75.5144496,22.4482563 C75.5144496,13.6948109 75.6325588,12.5989286 75.9701218,11.6985504 L75.9803319,11.6693067 C76.3908782,10.3863655 77.2570966,9.81422269 78.7889874,9.81422269 C80.3425588,9.81422269 81.2549118,10.4037605 81.6585252,11.6651471 C81.9323067,12.5409454 82.0637773,13.364937 82.0637773,22.4482563 C82.0637773,31.5315756 81.9323067,32.3555672 81.6599118,33.2270798 C81.2549118,34.4927521 80.3425588,35.0822899 78.7889874,35.0822899 C77.2570966,35.0822899 76.3908782,34.5101471 75.9803319,33.2270798 M82.8616765,33.6071218 C83.1906681,32.5543487 83.3242815,31.7559454 83.3242815,22.4482563 C83.3242815,13.1404412 83.1906681,12.3421639 82.860416,11.2852311 C82.4617185,10.0390966 81.4316345,8.55371849 78.7889874,8.55371849 C76.7143235,8.55371849 75.3672227,9.46758403 74.7846176,11.270105 C74.3815084,12.3488445 74.2539454,13.1701891 74.2539454,22.4482563 C74.2539454,31.7256933 74.3816345,32.547542 74.7846176,33.6261555 C75.3672227,35.4289286 76.7143235,36.3427941 78.7889874,36.3427941 C81.4316345,36.3427941 82.4615924,34.857416 82.8616765,33.6071218" id="Fill-32" fill="#FF8626"></path>
                    <path d="M77.5415546,5.61514286 C77.9331933,5.58829412 78.3529412,5.57480672 78.7889496,5.57480672 C79.277395,5.57480672 79.7445378,5.59157143 80.177521,5.62447059 C80.1939076,5.62573109 80.210042,5.62636134 80.2261765,5.62636134 C80.552521,5.62636134 80.8286975,5.37476471 80.8537815,5.0440084 C80.8802521,4.6969916 80.6204622,4.39409244 80.2733193,4.3677479 C79.8084454,4.33220168 79.3091597,4.31430252 78.7889496,4.31430252 C78.3244538,4.31430252 77.8757143,4.32879832 77.4554622,4.35753782 C77.1081933,4.38136134 76.8458824,4.68211765 76.8697059,5.02938655 C76.8935294,5.37665546 77.1930252,5.63808403 77.5415546,5.61514286" id="Fill-34" fill="#FF8626"></path>
                    <path d="M71.3077185,35.8310546 C71.1427185,35.5246261 70.7606597,35.4096681 70.454105,35.5746681 C70.1475504,35.739542 70.0328445,36.1218529 70.1975924,36.4282815 C70.5331387,37.0518529 70.9333487,37.6098782 71.3871303,38.086979 C71.5110378,38.2173151 71.6774244,38.2828613 71.843937,38.2828613 C71.9998613,38.2828613 72.1561639,38.2252563 72.2781807,38.1092899 C72.5304076,37.869416 72.5403655,37.4704664 72.3004916,37.2182395 C71.924105,36.8224412 71.5899454,36.3558025 71.3077185,35.8310546" id="Fill-36" fill="#FF8626"></path>
                    <path d="M75.6045126,5.22542017 C75.5083361,4.8910084 75.1594286,4.69764706 74.8246387,4.79369748 C71.9694706,5.61428571 70.1631681,7.57260504 69.3035042,10.777437 C68.8035882,12.6 68.6263613,15.6540756 68.6263613,22.4483193 C68.6263613,29.2421849 68.8035882,32.2962605 69.3035042,34.1190756 C69.3801429,34.3989076 69.6340084,34.5826891 69.9108151,34.5826891 C69.9660252,34.5826891 70.0221176,34.5755042 70.0778319,34.5602521 C70.4135042,34.4681092 70.6111513,34.1213445 70.5190084,33.7856723 C70.0522437,32.0837395 69.8868655,29.1168908 69.8868655,22.4483193 C69.8868655,15.7794958 70.0522437,12.812521 70.5198908,11.107437 C71.2666134,8.32411765 72.7450588,6.70298319 75.1727899,6.00529412 C75.5073277,5.90911765 75.7006891,5.55995798 75.6045126,5.22542017" id="Fill-38" fill="#FF8626"></path>
                    <path d="M88.3150588,10.7756975 C87.4366134,7.60653782 85.6615714,5.66094958 82.8885882,4.8277563 C82.5553109,4.72779832 82.2038824,4.9167479 82.1036723,5.25002521 C82.0034622,5.58342857 82.1925378,5.93485714 82.5258151,6.03494118 C84.880563,6.74246218 86.3336723,8.35351261 87.0982941,11.104437 C87.4644706,12.5785966 87.6912353,14.9958655 87.6912353,22.4483445 C87.6912353,27.182042 87.6014874,30.1205294 87.4000588,31.9761176 C87.3624958,32.3222521 87.6125798,32.6330924 87.9585882,32.6706555 C87.9816555,32.6731765 88.0045966,32.6743109 88.0274118,32.6743109 C88.3448067,32.6743109 88.618084,32.4350672 88.6532521,32.1121261 C88.8595966,30.2096471 88.9517395,27.2291849 88.9517395,22.4483445 C88.9517395,14.8538067 88.7097227,12.3576303 88.3192185,10.7915798 C88.317958,10.7862857 88.3165714,10.7809916 88.3150588,10.7756975" id="Fill-40" fill="#FF8626"></path>
                    <path d="M75.1728151,38.8910924 C74.7170168,38.7601261 74.2908403,38.5955042 73.9060084,38.4018908 C73.5951681,38.2452101 73.2162605,38.3706303 73.0597059,38.6814706 C72.9032773,38.992437 73.0284454,39.3713445 73.3392857,39.5277731 C73.7940756,39.7565546 74.2937395,39.949916 74.8246639,40.102563 C74.8827731,40.1193277 74.9413866,40.1272689 74.9989916,40.1272689 C75.2728992,40.1272689 75.525,39.9472689 75.6045378,39.6709664 C75.7005882,39.3363025 75.5073529,38.9872689 75.1728151,38.8910924" id="Fill-42" fill="#FF8626"></path>
                    <path d="M87.8118403,33.6168025 C87.4783109,33.5167185 87.1270084,33.705542 87.0267983,34.0389454 C86.8925546,34.4859202 86.7367563,34.9068025 86.5638151,35.2905 C86.4208739,35.607895 86.5620504,35.9811303 86.8794454,36.1241975 C86.963521,36.1620126 87.0515042,36.1799118 87.1379748,36.1799118 C87.3783529,36.1799118 87.6078908,36.0417605 87.7130168,35.8085672 C87.9086471,35.3745756 88.0837311,34.9012563 88.2339832,34.4018445 C88.3341933,34.0684412 88.1452437,33.7170126 87.8118403,33.6168025" id="Fill-44" fill="#FF8626"></path>
                    <path d="M85.4285672,37.0774034 C85.1077689,37.4370252 84.7433571,37.7545462 84.3456681,38.0212689 C84.0565084,38.2151345 83.9793655,38.6066471 84.1733571,38.8958067 C84.2948697,39.0770672 84.4942815,39.1751345 84.6972227,39.1751345 C84.817979,39.1751345 84.9399958,39.1403445 85.0477689,39.0681176 C85.5333151,38.7425294 85.9777689,38.3551765 86.3690294,37.9166471 C86.6008361,37.6569832 86.5781471,37.2585378 86.3184832,37.0268571 C86.0586933,36.7951765 85.6602479,36.8177395 85.4285672,37.0774034" id="Fill-46" fill="#FF8626"></path>
                    <path d="M78.7890126,39.3215672 C78.2446008,39.3215672 77.7257773,39.3002647 77.247542,39.258416 C76.9009034,39.2255168 76.595105,39.4842983 76.5647269,39.8311891 C76.5342227,40.1779538 76.7907353,40.4836261 77.1375,40.5140042 C77.6521639,40.5591303 78.2079202,40.5820714 78.7890126,40.5820714 C79.1371639,40.5820714 79.4192647,40.2999706 79.4192647,39.9518193 C79.4192647,39.6036681 79.1371639,39.3215672 78.7890126,39.3215672" id="Fill-48" fill="#FF8626"></path>
                    <path d="M82.640937,38.8259748 C82.1417773,38.983916 81.5851387,39.1053025 80.9865252,39.1867311 C80.6416513,39.2336218 80.4001387,39.5512689 80.4470294,39.8961429 C80.4900126,40.2122773 80.7603908,40.441563 81.0707269,40.441563 C81.0990882,40.441563 81.1275756,40.4396723 81.1564412,40.4357647 C81.8262731,40.3446303 82.4537521,40.2073613 83.0213571,40.0276134 C83.3531218,39.9226134 83.5369034,39.5685378 83.4319034,39.2366471 C83.3269034,38.9047563 82.9727017,38.7207227 82.640937,38.8259748" id="Fill-50" fill="#FF8626"></path>
                    <path d="M104.836891,19.3932857 L109.46395,19.3932857 L109.46395,13.5637059 C109.46395,13.0481597 109.82395,12.6881597 110.33937,12.6881597 L116.087395,12.6881597 L116.087395,8.22471429 L110.33937,8.22471429 C109.82395,8.22471429 109.46395,7.86458824 109.46395,7.34904202 L109.46395,1.51946218 L104.836891,1.51946218 L104.836891,7.34904202 C104.836891,7.86458824 104.476891,8.22471429 103.961345,8.22471429 L98.2134454,8.22471429 L98.2134454,12.6881597 L103.961345,12.6881597 C104.476891,12.6881597 104.836891,13.0481597 104.836891,13.5637059 L104.836891,19.3932857 Z M109.685294,20.6537899 L104.61542,20.6537899 C104.023109,20.6537899 103.576387,20.2070672 103.576387,19.6146303 L103.576387,13.9486639 L97.9919748,13.9486639 C97.3996639,13.9486639 96.9529412,13.5019412 96.9529412,12.9095042 L96.9529412,8.00336975 C96.9529412,7.41080672 97.3996639,6.96421008 97.9919748,6.96421008 L103.576387,6.96421008 L103.576387,1.2979916 C103.576387,0.705680672 104.023109,0.258957983 104.61542,0.258957983 L109.685294,0.258957983 C110.277731,0.258957983 110.724454,0.705680672 110.724454,1.2979916 L110.724454,6.96421008 L116.308739,6.96421008 C116.901176,6.96421008 117.347899,7.41080672 117.347899,8.00336975 L117.347899,12.9095042 C117.347899,13.5019412 116.901176,13.9486639 116.308739,13.9486639 L110.724454,13.9486639 L110.724454,19.6146303 C110.724454,20.2070672 110.277731,20.6537899 109.685294,20.6537899 Z" id="Fill-52" fill="#FF8626"></path>
                </g>
            </g>
        </g>
    </g>
</svg>