<?xml version="1.0" encoding="UTF-8"?>
<svg width="26px" height="31px" viewBox="0 0 26 31" version="1.1" xmlns="http://www.w3.org/2000/svg" xmlns:xlink="http://www.w3.org/1999/xlink">
    <!-- Generator: Sketch 48.2 (47327) - http://www.bohemiancoding.com/sketch -->
    <title>icons8-agreement</title>
    <desc>Created with Sketch.</desc>
    <defs></defs>
    <g id="Home" stroke="none" stroke-width="1" fill="none" fill-rule="evenodd" transform="translate(-571.000000, -3645.000000)">
        <g id="Post-Selection" transform="translate(-30.000000, 3239.000000)" fill="#45B9E6" fill-rule="nonzero">
            <g id="Engage-to-Award" transform="translate(564.000000, 389.000000)">
                <g id="Bar">
                    <g id="Overview">
                        <g id="icons8-agreement" transform="translate(37.000000, 17.000000)">
                            <path d="M1.66071429,0 C0.719642857,0 0,0.719642857 0,1.66071429 L0,29.3392857 C0,30.2803571 0.719642857,31 1.66071429,31 L23.8035714,31 C24.7446429,31 25.4642857,30.2803571 25.4642857,29.3392857 L25.4642857,7.58392857 C25.4642857,6.86428571 25.1875,6.14464286 24.6339286,5.64642857 L19.8178571,0.830357143 C19.3196429,0.276785714 18.6553571,0 17.8803571,0 L1.66071429,0 Z M1.66071429,1.10714286 L17.7142857,1.10714286 L17.7142857,6.08928571 C17.7142857,7.03035714 18.4339286,7.75 19.375,7.75 L24.3571429,7.75 L24.3571429,29.3392857 C24.3571429,29.6714286 24.1357143,29.8928571 23.8035714,29.8928571 L1.66071429,29.8928571 C1.32857143,29.8928571 1.10714286,29.6714286 1.10714286,29.3392857 L1.10714286,1.66071429 C1.10714286,1.32857143 1.32857143,1.10714286 1.66071429,1.10714286 Z M18.8214286,1.38392857 C18.9321429,1.43928571 18.9875,1.49464286 19.0982143,1.60535714 L23.9142857,6.42142857 C23.9696429,6.47678571 24.0803571,6.5875 24.1357143,6.69821429 L19.375,6.69821429 C19.0428571,6.69821429 18.8214286,6.47678571 18.8214286,6.14464286 L18.8214286,1.38392857 Z M6.08928571,5.53571429 C5.75714286,5.53571429 5.53571429,5.75714286 5.53571429,6.08928571 C5.53571429,6.42142857 5.75714286,6.64285714 6.08928571,6.64285714 L16.0535714,6.64285714 C16.3857143,6.64285714 16.6071429,6.42142857 16.6071429,6.08928571 C16.6071429,5.75714286 16.3857143,5.53571429 16.0535714,5.53571429 L6.08928571,5.53571429 Z M6.08928571,7.75 C5.75714286,7.75 5.53571429,7.97142857 5.53571429,8.30357143 C5.53571429,8.63571429 5.75714286,8.85714286 6.08928571,8.85714286 L17.1607143,8.85714286 C17.4928571,8.85714286 17.7142857,8.63571429 17.7142857,8.30357143 C17.7142857,7.97142857 17.4928571,7.75 17.1607143,7.75 L6.08928571,7.75 Z M6.08928571,9.96428571 C5.75714286,9.96428571 5.53571429,10.1857143 5.53571429,10.5178571 C5.53571429,10.85 5.75714286,11.0714286 6.08928571,11.0714286 L14.9464286,11.0714286 C15.2785714,11.0714286 15.5,10.85 15.5,10.5178571 C15.5,10.1857143 15.2785714,9.96428571 14.9464286,9.96428571 L6.08928571,9.96428571 Z M17.1607143,9.96428571 C16.8285714,9.96428571 16.6071429,10.1857143 16.6071429,10.5178571 C16.6071429,10.85 16.8285714,11.0714286 17.1607143,11.0714286 L19.375,11.0714286 C19.7071429,11.0714286 19.9285714,10.85 19.9285714,10.5178571 C19.9285714,10.1857143 19.7071429,9.96428571 19.375,9.96428571 L17.1607143,9.96428571 Z M6.08928571,12.1785714 C5.75714286,12.1785714 5.53571429,12.4 5.53571429,12.7321429 C5.53571429,13.0642857 5.75714286,13.2857143 6.08928571,13.2857143 L19.375,13.2857143 C19.7071429,13.2857143 19.9285714,13.0642857 19.9285714,12.7321429 C19.9285714,12.4 19.7071429,12.1785714 19.375,12.1785714 L6.08928571,12.1785714 Z M6.08928571,14.3928571 C5.75714286,14.3928571 5.53571429,14.6142857 5.53571429,14.9464286 C5.53571429,15.2785714 5.75714286,15.5 6.08928571,15.5 L19.375,15.5 C19.7071429,15.5 19.9285714,15.2785714 19.9285714,14.9464286 C19.9285714,14.6142857 19.7071429,14.3928571 19.375,14.3928571 L6.08928571,14.3928571 Z M6.08928571,16.6071429 C5.75714286,16.6071429 5.53571429,16.8285714 5.53571429,17.1607143 C5.53571429,17.4928571 5.75714286,17.7142857 6.08928571,17.7142857 L13.8392857,17.7142857 C14.1714286,17.7142857 14.3928571,17.4928571 14.3928571,17.1607143 C14.3928571,16.8285714 14.1714286,16.6071429 13.8392857,16.6071429 L6.08928571,16.6071429 Z M8.46964286,20.4821429 C8.30357143,20.4821429 8.19285714,20.5375 8.08214286,20.5928571 C7.19642857,21.0357143 7.19642857,22.6410714 7.47321429,23.9696429 C7.58392857,24.5785714 7.91607143,25.2982143 8.35892857,25.9625 C8.1375,26.4053571 7.86071429,26.8482143 7.52857143,27.1803571 C7.30714286,27.4017857 7.30714286,27.7339286 7.47321429,27.9553571 C7.58392857,28.0660714 7.75,28.1214286 7.86071429,28.1214286 C7.97142857,28.1214286 8.1375,28.0660714 8.24821429,27.9553571 C8.58035714,27.6232143 8.9125,27.2357143 9.13392857,26.7928571 C9.18928571,26.8482143 9.24464286,26.8482143 9.24464286,26.9035714 C9.46607143,27.0142857 9.63214286,27.125 9.85357143,27.125 C10.075,27.125 10.3517857,27.0696429 10.5732143,26.9589286 C10.9607143,26.7375 11.2928571,26.4053571 11.5696429,26.0178571 C11.7910714,26.0732143 12.0678571,26.0732143 12.2892857,25.9625 C12.9535714,25.6857143 13.2303571,25.1321429 13.3410714,24.8553571 L13.3964286,24.7446429 C13.3964286,24.6892857 13.4517857,24.6892857 13.4517857,24.6339286 C14.2267857,24.8 14.7803571,24.025 15.0017857,23.6928571 C15.1678571,23.4714286 15.3339286,23.3607143 15.3339286,23.3607143 C15.6107143,23.5267857 15.9428571,23.4160714 16.1089286,23.1392857 C16.275,22.8625 16.1642857,22.5303571 15.8875,22.3642857 C15.3339286,22.0321429 14.6142857,22.3089286 14.0607143,23.0285714 C13.8392857,23.3053571 13.7285714,23.4160714 13.6732143,23.4714286 C13.6732143,23.1946429 13.6732143,22.9732143 13.6178571,22.7517857 C13.5071429,22.475 13.3410714,22.3089286 13.175,22.2535714 C13.0089286,22.1982143 12.8428571,22.1982143 12.6767857,22.3089286 C12.5107143,22.4196429 12.2339286,22.6410714 12.3446429,23.3053571 C12.4,23.4714286 12.4,23.6375 12.5107143,23.8035714 C12.4553571,23.9142857 12.4553571,24.0803571 12.4,24.1910714 L12.3446429,24.3017857 C12.2892857,24.4678571 12.1785714,24.6339286 12.0678571,24.7446429 C12.1232143,24.5785714 12.1232143,24.3571429 12.1232143,24.1910714 C12.1232143,22.9732143 11.9017857,22.3089286 11.4035714,22.0875 C11.1267857,21.9767857 10.85,22.0321429 10.6285714,22.1982143 C10.1857143,22.5303571 10.0196429,23.4160714 10.2410714,24.3571429 C10.2964286,24.6339286 10.4625,24.9660714 10.6285714,25.2982143 C10.4625,25.575 10.2410714,25.7964286 9.96428571,25.9625 C9.90892857,26.0178571 9.85357143,26.0178571 9.85357143,26.0178571 C9.85357143,26.0178571 9.79821429,26.0178571 9.74285714,25.9625 C9.63214286,25.9071429 9.57678571,25.8517857 9.46607143,25.7410714 C9.74285714,24.9107143 9.90892857,24.0803571 9.96428571,23.3053571 C10.0196429,22.2535714 9.74285714,21.4232143 9.3,20.925 C9.13392857,20.5928571 8.74642857,20.4821429 8.46964286,20.4821429 Z M8.58035714,21.6446429 C8.63571429,21.6446429 8.63571429,21.7 8.69107143,21.7553571 C8.85714286,21.9214286 9.07857143,22.475 9.02321429,23.3607143 C9.02321429,23.7482143 8.96785714,24.1910714 8.85714286,24.6339286 C8.74642857,24.3571429 8.63571429,24.025 8.58035714,23.8035714 C8.35892857,22.5857143 8.46964286,21.8660714 8.58035714,21.6446429 Z M2.76785714,25.4642857 C2.43571429,25.4642857 2.21428571,25.6857143 2.21428571,26.0178571 L2.21428571,27.125 C2.21428571,27.4571429 2.43571429,27.6785714 2.76785714,27.6785714 C3.1,27.6785714 3.32142857,27.4571429 3.32142857,27.125 L3.32142857,26.0178571 C3.32142857,25.6857143 3.1,25.4642857 2.76785714,25.4642857 Z M5.53571429,25.4642857 C5.20357143,25.4642857 4.98214286,25.6857143 4.98214286,26.0178571 L4.98214286,27.125 C4.98214286,27.4571429 5.20357143,27.6785714 5.53571429,27.6785714 C5.86785714,27.6785714 6.08928571,27.4571429 6.08928571,27.125 L6.08928571,26.0178571 C6.08928571,25.6857143 5.86785714,25.4642857 5.53571429,25.4642857 Z M14.3928571,25.4642857 C14.0607143,25.4642857 13.8392857,25.6857143 13.8392857,26.0178571 L13.8392857,27.125 C13.8392857,27.4571429 14.0607143,27.6785714 14.3928571,27.6785714 C14.725,27.6785714 14.9464286,27.4571429 14.9464286,27.125 L14.9464286,26.0178571 C14.9464286,25.6857143 14.725,25.4642857 14.3928571,25.4642857 Z M17.1607143,25.4642857 C16.8285714,25.4642857 16.6071429,25.6857143 16.6071429,26.0178571 L16.6071429,27.125 C16.6071429,27.4571429 16.8285714,27.6785714 17.1607143,27.6785714 C17.4928571,27.6785714 17.7142857,27.4571429 17.7142857,27.125 L17.7142857,26.0178571 C17.7142857,25.6857143 17.4928571,25.4642857 17.1607143,25.4642857 Z M19.9285714,25.4642857 C19.5964286,25.4642857 19.375,25.6857143 19.375,26.0178571 L19.375,27.125 C19.375,27.4571429 19.5964286,27.6785714 19.9285714,27.6785714 C20.2607143,27.6785714 20.4821429,27.4571429 20.4821429,27.125 L20.4821429,26.0178571 C20.4821429,25.6857143 20.2607143,25.4642857 19.9285714,25.4642857 Z M22.6964286,25.4642857 C22.3642857,25.4642857 22.1428571,25.6857143 22.1428571,26.0178571 L22.1428571,27.125 C22.1428571,27.4571429 22.3642857,27.6785714 22.6964286,27.6785714 C23.0285714,27.6785714 23.25,27.4571429 23.25,27.125 L23.25,26.0178571 C23.25,25.6857143 23.0285714,25.4642857 22.6964286,25.4642857 Z" id="Shape"></path>
                        </g>
                    </g>
                </g>
            </g>
        </g>
    </g>
</svg>