<?xml version="1.0" encoding="UTF-8"?>
<svg width="28px" height="34px" viewBox="0 0 28 34" version="1.1" xmlns="http://www.w3.org/2000/svg" xmlns:xlink="http://www.w3.org/1999/xlink">
    <!-- Generator: Sketch 48.2 (47327) - http://www.bohemiancoding.com/sketch -->
    <title>engage</title>
    <desc>Created with Sketch.</desc>
    <defs></defs>
    <g id="Home" stroke="none" stroke-width="1" fill="none" fill-rule="evenodd" transform="translate(-284.000000, -3090.000000)">
        <g id="Supplier-Selection" transform="translate(0.000000, 2642.000000)" fill="#673490" fill-rule="nonzero">
            <g id="Engage-to-Award" transform="translate(132.000000, 404.000000)">
                <g id="Bar" transform="translate(1.000000, 29.000000)">
                    <g id="Engage" transform="translate(116.000000, 0.000000)">
                        <g id="engage" transform="translate(35.000000, 15.000000)">
                            <path d="M10.09375,0 C7.4375,0 5.3125,2.125 5.3125,4.78125 C5.3125,6.375 6.109375,7.8625 7.4375,8.7125 L7.4375,15.990625 L4.25,13.91875 C3.4,13.3875 2.3375,13.334375 1.434375,13.8125 C0.53125,14.290625 0,15.19375 0,16.25625 C0,16.46875 0.053125,16.68125 0.2125,16.89375 L8.128125,27.784375 C7.11875,28.15625 6.375,29.1125 6.375,30.28125 L6.375,32.9375 C6.375,33.521875 6.853125,34 7.4375,34 L26.5625,34 C27.146875,34 27.625,33.521875 27.625,32.9375 L27.625,30.28125 C27.625,29.1125 26.88125,28.103125 25.81875,27.784375 C26.1375,27.09375 26.615625,25.978125 26.509375,24.065625 L25.659375,15.565625 C25.553125,14.290625 24.490625,13.28125 23.1625,13.28125 C22.525,13.28125 21.940625,13.546875 21.4625,13.971875 C21.090625,13.015625 20.240625,12.325 19.23125,12.21875 C19.178125,12.21875 18.859375,12.21875 18.859375,12.21875 C18.221875,12.271875 17.6375,12.590625 17.2125,13.015625 C16.840625,11.9 15.778125,11.103125 14.55625,11.103125 C13.91875,11.103125 13.28125,11.315625 12.803125,11.6875 L12.803125,8.7125 C12.803125,8.7125 12.803125,8.7125 12.803125,8.7125 C14.13125,7.809375 14.928125,6.321875 14.928125,4.728125 C14.875,2.125 12.75,0 10.09375,0 Z M10.09375,1.0625 C12.165625,1.0625 13.8125,2.709375 13.8125,4.78125 C13.8125,5.7375 13.440625,6.69375 12.75,7.384375 L12.75,4.78125 C12.75,3.29375 11.58125,2.125 10.09375,2.125 C8.60625,2.125 7.4375,3.29375 7.4375,4.78125 L7.4375,7.384375 C6.8,6.69375 6.375,5.790625 6.375,4.78125 C6.375,2.709375 8.021875,1.0625 10.09375,1.0625 Z M10.09375,3.1875 C10.996875,3.1875 11.6875,3.878125 11.6875,4.78125 L11.6875,11.953125 L11.634375,14.821875 C11.634375,15.140625 11.846875,15.353125 12.165625,15.353125 C12.484375,15.353125 12.696875,15.140625 12.696875,14.821875 L12.75,13.6 C12.909375,12.803125 13.6,12.165625 14.503125,12.165625 C15.353125,12.165625 16.096875,12.803125 16.25625,13.653125 L16.46875,14.928125 C16.521875,15.19375 16.734375,15.40625 17.053125,15.353125 C17.31875,15.353125 17.53125,15.0875 17.53125,14.821875 C17.53125,13.971875 18.221875,13.28125 19.071875,13.228125 C19.815625,13.28125 20.4,13.8125 20.559375,14.503125 L20.71875,15.40625 L20.71875,15.671875 C20.71875,15.990625 20.93125,16.203125 21.25,16.203125 C21.56875,16.203125 21.78125,15.990625 21.78125,15.671875 C21.78125,15.3 21.940625,14.928125 22.20625,14.715625 C22.471875,14.503125 22.790625,14.290625 23.1625,14.290625 C23.90625,14.290625 24.54375,14.875 24.596875,15.61875 L25.446875,24.11875 C25.5,25.81875 25.075,26.775 24.809375,27.4125 L24.703125,27.625 L9.24375,27.625 L1.009375,16.25625 C1.009375,15.61875 1.328125,15.0875 1.9125,14.76875 C2.44375,14.45 3.134375,14.503125 3.665625,14.821875 L7.4375,17.265625 L7.4375,18.59375 C7.4375,18.9125 7.65,19.125 7.96875,19.125 C8.2875,19.125 8.5,18.9125 8.5,18.59375 L8.5,17.053125 L8.5,4.78125 C8.5,3.878125 9.190625,3.1875 10.09375,3.1875 Z M8.978125,28.634375 L24.915625,28.634375 C25.81875,28.634375 26.509375,29.325 26.509375,30.228125 L26.509375,32.884375 L7.384375,32.884375 L7.384375,30.228125 C7.384375,29.378125 8.128125,28.634375 8.978125,28.634375 Z M8.978125,29.696875 C8.659375,29.696875 8.446875,29.909375 8.446875,30.228125 L8.446875,31.290625 C8.446875,31.609375 8.659375,31.821875 8.978125,31.821875 C9.296875,31.821875 9.509375,31.609375 9.509375,31.290625 L9.509375,30.228125 C9.509375,29.9625 9.296875,29.696875 8.978125,29.696875 Z M11.634375,29.696875 C11.315625,29.696875 11.103125,29.909375 11.103125,30.228125 L11.103125,31.290625 C11.103125,31.609375 11.315625,31.821875 11.634375,31.821875 C11.953125,31.821875 12.165625,31.609375 12.165625,31.290625 L12.165625,30.228125 C12.165625,29.9625 11.953125,29.696875 11.634375,29.696875 Z M14.290625,29.696875 C13.971875,29.696875 13.759375,29.909375 13.759375,30.228125 L13.759375,31.290625 C13.759375,31.609375 13.971875,31.821875 14.290625,31.821875 C14.609375,31.821875 14.821875,31.609375 14.821875,31.290625 L14.821875,30.228125 C14.821875,29.9625 14.609375,29.696875 14.290625,29.696875 Z M16.946875,29.696875 C16.628125,29.696875 16.415625,29.909375 16.415625,30.228125 L16.415625,31.290625 C16.415625,31.609375 16.628125,31.821875 16.946875,31.821875 C17.265625,31.821875 17.478125,31.609375 17.478125,31.290625 L17.478125,30.228125 C17.478125,29.9625 17.265625,29.696875 16.946875,29.696875 Z M19.603125,29.696875 C19.284375,29.696875 19.071875,29.909375 19.071875,30.228125 L19.071875,31.290625 C19.071875,31.609375 19.284375,31.821875 19.603125,31.821875 C19.921875,31.821875 20.134375,31.609375 20.134375,31.290625 L20.134375,30.228125 C20.134375,29.9625 19.921875,29.696875 19.603125,29.696875 Z M22.259375,29.696875 C21.940625,29.696875 21.728125,29.909375 21.728125,30.228125 L21.728125,31.290625 C21.728125,31.609375 21.940625,31.821875 22.259375,31.821875 C22.578125,31.821875 22.790625,31.609375 22.790625,31.290625 L22.790625,30.228125 C22.790625,29.9625 22.578125,29.696875 22.259375,29.696875 Z M24.915625,29.696875 C24.596875,29.696875 24.384375,29.909375 24.384375,30.228125 L24.384375,31.290625 C24.384375,31.609375 24.596875,31.821875 24.915625,31.821875 C25.234375,31.821875 25.446875,31.609375 25.446875,31.290625 L25.446875,30.228125 C25.446875,29.9625 25.234375,29.696875 24.915625,29.696875 Z" id="Shape"></path>
                        </g>
                    </g>
                </g>
            </g>
        </g>
    </g>
</svg>