<?xml version="1.0" encoding="UTF-8"?>
<svg width="36px" height="32px" viewBox="0 0 36 32" version="1.1" xmlns="http://www.w3.org/2000/svg" xmlns:xlink="http://www.w3.org/1999/xlink">
    <!-- Generator: Sketch 48.2 (47327) - http://www.bohemiancoding.com/sketch -->
    <title>evaluate</title>
    <desc>Created with Sketch.</desc>
    <defs></defs>
    <g id="Home" stroke="none" stroke-width="1" fill="none" fill-rule="evenodd" transform="translate(-517.000000, -3092.000000)">
        <g id="Supplier-Selection" transform="translate(0.000000, 2642.000000)" fill="#673490" fill-rule="nonzero">
            <g id="Engage-to-Award" transform="translate(132.000000, 404.000000)">
                <g id="Bar" transform="translate(1.000000, 29.000000)">
                    <g id="Evaluate" transform="translate(350.000000, 0.000000)">
                        <g id="evaluate" transform="translate(34.000000, 17.000000)">
                            <path d="M1.65517241,0 C0.717241379,0 0,0.717241379 0,1.65517241 L0,24.8275862 C0,25.7655172 0.717241379,26.4827586 1.65517241,26.4827586 L18.9793103,26.4827586 L17.1586207,28.3034483 C16.3310345,29.1310345 16.3310345,30.4551724 17.1586207,31.2827586 C17.5448276,31.6689655 18.0965517,31.8896552 18.6482759,31.8896552 C19.2,31.8896552 19.7517241,31.6689655 20.137931,31.2827586 L22.6758621,28.7448276 C22.7310345,28.6896552 22.7862069,28.6344828 22.7862069,28.6344828 C24,29.3517241 25.4344828,29.7931034 26.9793103,29.7931034 C31.5586207,29.7931034 35.2551724,26.0965517 35.2551724,21.5172414 C35.2551724,18.3724138 33.4896552,15.6137931 30.8413793,14.1793103 L30.8413793,1.65517241 C30.8413793,0.717241379 30.1241379,0 29.1862069,0 L1.65517241,0 Z M1.65517241,1.10344828 L29.2413793,1.10344828 C29.5724138,1.10344828 29.7931034,1.32413793 29.7931034,1.65517241 L29.7931034,3.31034483 L1.10344828,3.31034483 L1.10344828,1.65517241 C1.10344828,1.32413793 1.32413793,1.10344828 1.65517241,1.10344828 Z M1.10344828,4.4137931 L29.7931034,4.4137931 L29.7931034,13.737931 C28.9103448,13.4068966 28.0275862,13.2413793 27.0344828,13.2413793 C22.4551724,13.2413793 18.7586207,16.937931 18.7586207,21.5172414 C18.7586207,22.8965517 19.0896552,24.2206897 19.6965517,25.3793103 L1.65517241,25.3793103 C1.32413793,25.3793103 1.10344828,25.1586207 1.10344828,24.8275862 L1.10344828,4.4137931 Z M8.27586207,6.62068966 C8.11034483,6.62068966 8,6.67586207 7.88965517,6.7862069 L6.06896552,8.60689655 L5.35172414,7.88965517 C5.13103448,7.66896552 4.8,7.66896552 4.57931034,7.88965517 C4.35862069,8.11034483 4.35862069,8.44137931 4.57931034,8.66206897 L5.68275862,9.76551724 C5.79310345,9.87586207 5.90344828,9.93103448 6.06896552,9.93103448 C6.23448276,9.93103448 6.34482759,9.87586207 6.45517241,9.76551724 L8.66206897,7.55862069 C8.88275862,7.33793103 8.88275862,7.00689655 8.66206897,6.7862069 C8.55172414,6.67586207 8.44137931,6.62068966 8.27586207,6.62068966 Z M10.4827586,7.72413793 C10.1517241,7.72413793 9.93103448,7.94482759 9.93103448,8.27586207 C9.93103448,8.60689655 10.1517241,8.82758621 10.4827586,8.82758621 L12.6896552,8.82758621 C13.0206897,8.82758621 13.2413793,8.60689655 13.2413793,8.27586207 C13.2413793,7.94482759 13.0206897,7.72413793 12.6896552,7.72413793 L10.4827586,7.72413793 Z M14.8965517,7.72413793 C14.5655172,7.72413793 14.3448276,7.94482759 14.3448276,8.27586207 C14.3448276,8.60689655 14.5655172,8.82758621 14.8965517,8.82758621 L24.2758621,8.82758621 C24.6068966,8.82758621 24.8275862,8.60689655 24.8275862,8.27586207 C24.8275862,7.94482759 24.6068966,7.72413793 24.2758621,7.72413793 L14.8965517,7.72413793 Z M8.27586207,11.0344828 C8.11034483,11.0344828 8,11.0896552 7.88965517,11.2 L6.06896552,13.0206897 L5.35172414,12.3034483 C5.13103448,12.0827586 4.8,12.0827586 4.57931034,12.3034483 C4.35862069,12.5241379 4.35862069,12.8551724 4.57931034,13.0758621 L5.68275862,14.1793103 C5.79310345,14.2896552 5.90344828,14.3448276 6.06896552,14.3448276 C6.23448276,14.3448276 6.34482759,14.2896552 6.45517241,14.1793103 L8.66206897,11.9724138 C8.88275862,11.7517241 8.88275862,11.4206897 8.66206897,11.2 C8.55172414,11.0896552 8.44137931,11.0344828 8.27586207,11.0344828 Z M10.4827586,12.137931 C10.1517241,12.137931 9.93103448,12.3586207 9.93103448,12.6896552 C9.93103448,13.0206897 10.1517241,13.2413793 10.4827586,13.2413793 L22.0689655,13.2413793 C22.4,13.2413793 22.6206897,13.0206897 22.6206897,12.6896552 C22.6206897,12.3586207 22.4,12.137931 22.0689655,12.137931 L10.4827586,12.137931 Z M27.0344828,14.3448276 C31.0068966,14.3448276 34.2068966,17.5448276 34.2068966,21.5172414 C34.2068966,25.4896552 31.0068966,28.6896552 27.0344828,28.6896552 C23.062069,28.6896552 19.862069,25.4896552 19.862069,21.5172414 C19.862069,17.5448276 23.062069,14.3448276 27.0344828,14.3448276 Z M8.27586207,15.4482759 C8.11034483,15.4482759 8,15.5034483 7.88965517,15.6137931 L6.06896552,17.4344828 L5.35172414,16.7172414 C5.13103448,16.4965517 4.8,16.4965517 4.57931034,16.7172414 C4.35862069,16.937931 4.35862069,17.2689655 4.57931034,17.4896552 L5.68275862,18.5931034 C5.79310345,18.7034483 5.90344828,18.7586207 6.06896552,18.7586207 C6.23448276,18.7586207 6.34482759,18.7034483 6.45517241,18.5931034 L8.66206897,16.3862069 C8.88275862,16.1655172 8.88275862,15.8344828 8.66206897,15.6137931 C8.55172414,15.5034483 8.44137931,15.4482759 8.27586207,15.4482759 Z M26.9793103,15.4482759 C23.6689655,15.4482759 20.9655172,18.1517241 20.9655172,21.462069 C20.9655172,24.7724138 23.6689655,27.4758621 26.9793103,27.4758621 C30.2896552,27.4758621 32.9931034,24.7724138 32.9931034,21.462069 C32.9931034,18.1517241 30.2896552,15.4482759 26.9793103,15.4482759 Z M10.4827586,16.5517241 C10.1517241,16.5517241 9.93103448,16.7724138 9.93103448,17.1034483 C9.93103448,17.4344828 10.1517241,17.6551724 10.4827586,17.6551724 L17.1034483,17.6551724 C17.4344828,17.6551724 17.6551724,17.4344828 17.6551724,17.1034483 C17.6551724,16.7724138 17.4344828,16.5517241 17.1034483,16.5517241 L10.4827586,16.5517241 Z M26.9793103,16.5517241 C29.6827586,16.5517241 31.8896552,18.7586207 31.8896552,21.462069 C31.8896552,24.1655172 29.6827586,26.3724138 26.9793103,26.3724138 C24.2758621,26.3724138 22.0689655,24.1655172 22.0689655,21.462069 C22.0689655,18.7586207 24.2758621,16.5517241 26.9793103,16.5517241 Z M26.9793103,17.5448276 C26.6482759,17.5448276 26.4275862,17.7655172 26.4275862,18.0965517 C26.4275862,18.4275862 26.6482759,18.6482759 26.9793103,18.6482759 C28.0827586,18.6482759 29.1310345,19.3103448 29.5724138,20.3586207 C29.6827586,20.5793103 29.8482759,20.6896552 30.0689655,20.6896552 C30.1241379,20.6896552 30.2344828,20.6896552 30.2896552,20.6344828 C30.5655172,20.5241379 30.6758621,20.1931034 30.5655172,19.9172414 C29.9586207,18.4827586 28.5793103,17.5448276 26.9793103,17.5448276 Z M3.31034483,22.0689655 C2.97931034,22.0689655 2.75862069,22.2896552 2.75862069,22.6206897 L2.75862069,23.7241379 C2.75862069,24.0551724 2.97931034,24.2758621 3.31034483,24.2758621 C3.64137931,24.2758621 3.86206897,24.0551724 3.86206897,23.7241379 L3.86206897,22.6206897 C3.86206897,22.2896552 3.64137931,22.0689655 3.31034483,22.0689655 Z M6.06896552,22.0689655 C5.73793103,22.0689655 5.51724138,22.2896552 5.51724138,22.6206897 L5.51724138,23.7241379 C5.51724138,24.0551724 5.73793103,24.2758621 6.06896552,24.2758621 C6.4,24.2758621 6.62068966,24.0551724 6.62068966,23.7241379 L6.62068966,22.6206897 C6.62068966,22.2896552 6.4,22.0689655 6.06896552,22.0689655 Z M8.82758621,22.0689655 C8.49655172,22.0689655 8.27586207,22.2896552 8.27586207,22.6206897 L8.27586207,23.7241379 C8.27586207,24.0551724 8.49655172,24.2758621 8.82758621,24.2758621 C9.15862069,24.2758621 9.37931034,24.0551724 9.37931034,23.7241379 L9.37931034,22.6206897 C9.37931034,22.2896552 9.15862069,22.0689655 8.82758621,22.0689655 Z M11.5862069,22.0689655 C11.2551724,22.0689655 11.0344828,22.2896552 11.0344828,22.6206897 L11.0344828,23.7241379 C11.0344828,24.0551724 11.2551724,24.2758621 11.5862069,24.2758621 C11.9172414,24.2758621 12.137931,24.0551724 12.137931,23.7241379 L12.137931,22.6206897 C12.137931,22.2896552 11.9172414,22.0689655 11.5862069,22.0689655 Z M14.3448276,22.0689655 C14.0137931,22.0689655 13.7931034,22.2896552 13.7931034,22.6206897 L13.7931034,23.7241379 C13.7931034,24.0551724 14.0137931,24.2758621 14.3448276,24.2758621 C14.6758621,24.2758621 14.8965517,24.0551724 14.8965517,23.7241379 L14.8965517,22.6206897 C14.8965517,22.2896552 14.6758621,22.0689655 14.3448276,22.0689655 Z M17.1034483,22.0689655 C16.7724138,22.0689655 16.5517241,22.2896552 16.5517241,22.6206897 L16.5517241,23.7241379 C16.5517241,24.0551724 16.7724138,24.2758621 17.1034483,24.2758621 C17.4344828,24.2758621 17.6551724,24.0551724 17.6551724,23.7241379 L17.6551724,22.6206897 C17.6551724,22.2896552 17.4344828,22.0689655 17.1034483,22.0689655 Z M20.4689655,26.537931 C20.8551724,27.0896552 21.3517241,27.5310345 21.9034483,27.9724138 L19.3655172,30.5103448 C18.9793103,30.8965517 18.3172414,30.8965517 17.9310345,30.5103448 C17.5448276,30.1241379 17.5448276,29.462069 17.9310345,29.0758621 L20.4689655,26.537931 Z" id="Shape"></path>
                        </g>
                    </g>
                </g>
            </g>
        </g>
    </g>
</svg>