<?xml version="1.0" encoding="UTF-8"?>
<svg width="45px" height="45px" viewBox="0 0 45 45" version="1.1" xmlns="http://www.w3.org/2000/svg" xmlns:xlink="http://www.w3.org/1999/xlink">
    <!-- Generator: Sketch 48.2 (47327) - http://www.bohemiancoding.com/sketch -->
    <title>no-training</title>
    <desc>Created with Sketch.</desc>
    <defs></defs>
    <g id="Home" stroke="none" stroke-width="1" fill="none" fill-rule="evenodd" transform="translate(-853.000000, -1272.000000)">
        <g id="Adoptive" transform="translate(0.000000, 1064.000000)" fill="#55D0A5" fill-rule="nonzero">
            <g id="Main-Points" transform="translate(531.000000, 208.000000)">
                <g id="Point-5" transform="translate(322.000000, 0.000000)">
                    <g id="no-training">
                        <path d="M36.5625,26.7890625 C36.2109375,26.7890625 35.859375,27.0703125 35.859375,27.4921875 L35.859375,28.8984375 C35.859375,29.25 36.2109375,29.6015625 36.5625,29.6015625 C36.9140625,29.6015625 37.265625,29.25 37.265625,28.8984375 L37.265625,27.4921875 C37.265625,27.0703125 36.9140625,26.7890625 36.5625,26.7890625 Z" id="Shape"></path>
                        <path d="M8.4375,20.7421875 L9.84375,20.7421875 C10.1953125,20.7421875 10.546875,20.390625 10.546875,20.0390625 C10.546875,19.6875 10.1953125,19.3359375 9.84375,19.3359375 L8.4375,19.3359375 C8.0859375,19.3359375 7.734375,19.6875 7.734375,20.0390625 C7.734375,20.390625 8.0859375,20.7421875 8.4375,20.7421875 Z" id="Shape"></path>
                        <path d="M40.078125,26.7890625 C39.7265625,26.7890625 39.375,27.0703125 39.375,27.4921875 L39.375,28.8984375 C39.375,29.25 39.7265625,29.6015625 40.078125,29.6015625 C40.4296875,29.6015625 40.78125,29.25 40.78125,28.8984375 L40.78125,27.4921875 C40.78125,27.0703125 40.4296875,26.7890625 40.078125,26.7890625 Z" id="Shape"></path>
                        <path d="M43.59375,30.3046875 L43.59375,8.3671875 C44.4375,8.0859375 45,7.3125 45,6.3984375 L45,4.9921875 C45,3.9375 44.15625,3.0234375 43.1015625,2.8828125 L44.5078125,1.4765625 C44.7890625,1.1953125 44.7890625,0.7734375 44.5078125,0.4921875 C44.2265625,0.2109375 43.8046875,0.2109375 43.5234375,0.4921875 L41.1328125,2.8125 L27.84375,2.8125 L27.140625,1.40625 C26.7890625,0.703125 26.0859375,0.28125 25.2421875,0.28125 C24.46875,0.28125 23.6953125,0.7734375 23.34375,1.4765625 L22.7109375,2.8125 L7.734375,2.8125 C6.6796875,2.8125 5.8359375,3.65625 5.625,4.640625 L1.4765625,0.4921875 C1.1953125,0.2109375 0.7734375,0.2109375 0.4921875,0.4921875 C0.2109375,0.7734375 0.2109375,1.1953125 0.4921875,1.4765625 L5.34375,6.328125 C4.2890625,7.1015625 3.515625,8.3671875 3.515625,9.84375 C3.515625,11.953125 5.0625,13.640625 7.03125,13.9921875 L7.03125,14.5546875 C6.5390625,14.625 5.9765625,14.6953125 5.484375,14.8359375 C3.9375,15.2578125 2.6015625,16.171875 1.546875,17.4375 C0.5625,18.703125 0,20.25 0,21.8671875 L0,28.40625 C0,29.8125 1.125,30.9375 2.4609375,30.9375 C2.8125,30.9375 3.1640625,30.8671875 3.4453125,30.7265625 L2.953125,41.0625 L0.4921875,43.5234375 C0.2109375,43.8046875 0.2109375,44.2265625 0.4921875,44.5078125 C0.6328125,44.6484375 0.84375,44.71875 0.984375,44.71875 C1.125,44.71875 1.3359375,44.6484375 1.4765625,44.5078125 L3.0234375,42.9609375 C3.1640625,43.3828125 3.375,43.8046875 3.65625,44.15625 C4.21875,44.71875 4.921875,45 5.765625,45 C7.03125,45 8.15625,44.15625 8.4375,42.9609375 C8.7890625,44.15625 9.84375,45 11.1796875,45 C11.953125,45 12.65625,44.71875 13.21875,44.15625 C13.78125,43.59375 14.0625,42.8203125 13.9921875,42.046875 L13.5703125,32.484375 L13.640625,32.4140625 L23.4140625,32.4140625 L19.125,39.7265625 C18.9140625,40.078125 19.0546875,40.5 19.40625,40.7109375 C19.4765625,40.78125 19.546875,40.78125 19.6875,40.78125 C19.8984375,40.78125 20.1796875,40.640625 20.3203125,40.4296875 L25.03125,32.4140625 L25.3125,32.4140625 L25.3125,35.859375 C25.3125,36.2109375 25.6640625,36.5625 26.015625,36.5625 C26.3671875,36.5625 26.71875,36.2109375 26.71875,35.859375 L26.71875,32.4140625 L27.0703125,32.4140625 L31.78125,40.4296875 C31.921875,40.640625 32.1328125,40.78125 32.4140625,40.78125 C32.5546875,40.78125 32.625,40.78125 32.765625,40.7109375 C33.1171875,40.5 33.1875,40.078125 33.046875,39.7265625 L28.7578125,32.4140625 L31.5,32.4140625 L43.59375,44.5078125 C43.734375,44.6484375 43.9453125,44.71875 44.0859375,44.71875 C44.2265625,44.71875 44.4375,44.6484375 44.578125,44.5078125 C44.859375,44.2265625 44.859375,43.8046875 44.578125,43.5234375 L33.3984375,32.4140625 L41.484375,32.4140625 C42.6796875,32.4140625 43.59375,31.4296875 43.59375,30.3046875 Z M24.6796875,2.109375 C24.8203125,1.8984375 25.03125,1.6875 25.3125,1.6875 C25.59375,1.6875 25.8046875,1.828125 25.9453125,2.109375 L26.296875,2.8125 L24.328125,2.8125 L24.6796875,2.109375 Z M7.03125,4.921875 C7.03125,4.5703125 7.3828125,4.21875 7.734375,4.21875 L39.7265625,4.21875 L36.84375,7.1015625 C36.7734375,7.03125 36.6328125,7.03125 36.5625,7.03125 L33.75,7.03125 C33.3984375,7.03125 33.046875,7.3125 33.046875,7.734375 C33.046875,8.0859375 33.3984375,8.4375 33.75,8.4375 L35.5078125,8.4375 L22.5,21.515625 L11.8125,10.828125 C11.8828125,10.4765625 11.953125,10.1953125 11.953125,9.84375 C11.953125,9.3515625 11.8828125,8.9296875 11.7421875,8.5078125 L30.9375,8.5078125 C31.2890625,8.5078125 31.640625,8.15625 31.640625,7.8046875 C31.640625,7.3828125 31.2890625,7.1015625 30.9375,7.1015625 L10.8984375,7.1015625 C10.125,6.1875 9,5.625 7.734375,5.625 C7.5234375,5.625 7.2421875,5.625 7.03125,5.6953125 L7.03125,4.921875 Z M16.171875,27.84375 L16.171875,27.4921875 C16.171875,27.0703125 15.8203125,26.7890625 15.46875,26.7890625 C15.1171875,26.7890625 14.765625,27.0703125 14.765625,27.4921875 L14.765625,28.8984375 C14.765625,29.0390625 14.765625,29.109375 14.8359375,29.1796875 L13.4296875,30.5859375 L13.359375,28.828125 L13.359375,22.1484375 L13.9921875,22.5703125 C15.2578125,23.4140625 16.8046875,23.90625 18.3515625,23.90625 L20.109375,23.90625 L16.171875,27.84375 Z M11.1796875,12.234375 L16.8046875,17.859375 L15.2578125,16.734375 C14.203125,15.9609375 13.0078125,15.328125 11.671875,14.9765625 L11.3203125,14.90625 C10.3359375,14.625 9.3515625,14.484375 8.3671875,14.484375 L8.3671875,13.9921875 C9.5625,13.78125 10.546875,13.1484375 11.1796875,12.234375 Z M10.6875,9.703125 L7.9453125,6.9609375 C9.421875,6.9609375 10.6171875,8.15625 10.6875,9.703125 Z M4.78125,9.84375 C4.78125,8.71875 5.4140625,7.8046875 6.2578125,7.3125 L10.265625,11.3203125 C9.7734375,12.234375 8.7890625,12.796875 7.734375,12.796875 C6.1171875,12.796875 4.78125,11.4609375 4.78125,9.84375 Z M4.21875,20.1796875 C3.8671875,20.1796875 3.515625,20.53125 3.515625,20.8828125 L3.515625,28.4765625 C3.515625,29.0390625 3.0234375,29.53125 2.4609375,29.53125 C1.8984375,29.53125 1.40625,29.0390625 1.40625,28.4765625 L1.40625,22.1484375 C1.40625,20.7421875 1.828125,19.40625 2.7421875,18.3515625 C3.5859375,17.3671875 4.640625,16.6640625 5.90625,16.3125 C6.75,16.03125 7.59375,15.9609375 8.5078125,15.9609375 C9.421875,15.9609375 10.265625,16.1015625 11.109375,16.3125 C12.4453125,16.6640625 13.7109375,17.296875 14.8359375,18.140625 L16.9453125,19.6875 C17.6484375,20.1796875 18.5625,20.4609375 19.40625,20.4609375 L19.4765625,20.4609375 L21.5859375,22.5703125 C21.5859375,22.5703125 21.515625,22.5703125 21.515625,22.5703125 L18.421875,22.5703125 C17.15625,22.5703125 15.9609375,22.21875 14.90625,21.515625 L13.1484375,20.3203125 C12.9375,20.1796875 12.65625,20.1796875 12.4453125,20.25 C12.234375,20.390625 12.09375,20.6015625 12.09375,20.8828125 L12.09375,28.828125 L12.234375,31.8515625 L9.4921875,34.59375 L9.140625,30.234375 C9.140625,29.8828125 8.7890625,29.53125 8.4375,29.53125 C8.0859375,29.53125 7.734375,29.8125 7.734375,30.234375 L7.3828125,36.5625 L4.4296875,39.515625 L4.921875,28.828125 L4.921875,20.8828125 C4.921875,20.4609375 4.5703125,20.1796875 4.21875,20.1796875 Z M5.8359375,43.59375 C5.4140625,43.6640625 4.9921875,43.453125 4.7109375,43.171875 C4.4296875,42.890625 4.2890625,42.5390625 4.2890625,42.1171875 L4.2890625,41.625 L7.2421875,38.671875 L7.1015625,42.1875 C7.1015625,42.890625 6.5390625,43.5234375 5.8359375,43.59375 Z M12.5859375,42.1171875 C12.5859375,42.5390625 12.4453125,42.890625 12.234375,43.171875 C11.953125,43.453125 11.53125,43.6640625 11.109375,43.59375 C10.40625,43.5234375 9.84375,42.890625 9.84375,42.1875 L9.5625,36.5625 L12.3046875,33.8203125 L12.5859375,42.1171875 Z M15.046875,31.0078125 L18.28125,27.7734375 L18.28125,28.8984375 C18.28125,29.25 18.6328125,29.6015625 18.984375,29.6015625 C19.3359375,29.6015625 19.6875,29.25 19.6875,28.8984375 L19.6875,27.4921875 C19.6875,27.140625 19.4765625,26.9296875 19.1953125,26.859375 L22.21875,23.8359375 C22.359375,23.765625 22.4296875,23.765625 22.5703125,23.6953125 L25.8046875,26.9296875 C25.5234375,27 25.3125,27.28125 25.3125,27.5625 L25.3125,28.96875 C25.3125,29.3203125 25.6640625,29.671875 26.015625,29.671875 C26.3671875,29.671875 26.71875,29.3203125 26.71875,28.96875 L26.71875,27.84375 L29.953125,31.078125 L15.046875,31.078125 L15.046875,31.0078125 Z M30.1640625,29.1796875 C30.234375,29.109375 30.234375,28.96875 30.234375,28.8984375 L30.234375,27.4921875 C30.234375,27.0703125 29.8828125,26.7890625 29.53125,26.7890625 C29.1796875,26.7890625 28.828125,27.0703125 28.828125,27.4921875 L28.828125,27.84375 L23.484375,22.5 L41.765625,4.21875 L42.890625,4.21875 C43.2421875,4.21875 43.59375,4.5703125 43.59375,4.921875 L43.59375,6.328125 C43.59375,6.6796875 43.2421875,7.03125 42.890625,7.03125 L39.375,7.03125 C39.0234375,7.03125 38.671875,7.3828125 38.671875,7.734375 C38.671875,8.0859375 39.0234375,8.4375 39.375,8.4375 L42.1875,8.4375 L42.1875,30.234375 C42.1875,30.5859375 41.8359375,30.9375 41.484375,30.9375 L31.9921875,30.9375 L30.1640625,29.1796875 Z" id="Shape"></path>
                        <path d="M33.046875,26.7890625 C32.6953125,26.7890625 32.34375,27.0703125 32.34375,27.4921875 L32.34375,28.8984375 C32.34375,29.25 32.6953125,29.6015625 33.046875,29.6015625 C33.3984375,29.6015625 33.75,29.25 33.75,28.8984375 L33.75,27.4921875 C33.75,27.0703125 33.3984375,26.7890625 33.046875,26.7890625 Z" id="Shape"></path>
                        <path d="M22.5,26.7890625 C22.1484375,26.7890625 21.796875,27.0703125 21.796875,27.4921875 L21.796875,28.8984375 C21.796875,29.25 22.1484375,29.6015625 22.5,29.6015625 C22.8515625,29.6015625 23.203125,29.25 23.203125,28.8984375 L23.203125,27.4921875 C23.203125,27.0703125 22.8515625,26.7890625 22.5,26.7890625 Z" id="Shape"></path>
                    </g>
                </g>
            </g>
        </g>
    </g>
</svg>
