<?xml version="1.0" encoding="UTF-8"?>
<svg width="25px" height="30px" viewBox="0 0 25 30" version="1.1" xmlns="http://www.w3.org/2000/svg" xmlns:xlink="http://www.w3.org/1999/xlink">
    <!-- Generator: Sketch 48.2 (47327) - http://www.bohemiancoding.com/sketch -->
    <title>overview</title>
    <desc>Created with Sketch.</desc>
    <defs></defs>
    <g id="Home" stroke="none" stroke-width="1" fill="none" fill-rule="evenodd" transform="translate(-170.000000, -3093.000000)">
        <g id="Supplier-Selection" transform="translate(0.000000, 2642.000000)" fill="#673490" fill-rule="nonzero">
            <g id="Engage-to-Award" transform="translate(132.000000, 404.000000)">
                <g id="Bar" transform="translate(1.000000, 29.000000)">
                    <g id="Overview">
                        <g id="overview" transform="translate(37.000000, 18.000000)">
                            <path d="M7.33928571,0 C6.64285714,0 5.94642857,0.267857143 5.46428571,0.803571429 L0.803571429,5.46428571 C0.267857143,5.94642857 0,6.58928571 0,7.33928571 L0,28.3928571 C0,29.3035714 0.696428571,30 1.60714286,30 L23.0357143,30 C23.9464286,30 24.6428571,29.3035714 24.6428571,28.3928571 L24.6428571,1.60714286 C24.6428571,0.696428571 23.9464286,0 23.0357143,0 L7.33928571,0 Z M7.5,1.07142857 L23.0357143,1.07142857 C23.3571429,1.07142857 23.5714286,1.28571429 23.5714286,1.60714286 L23.5714286,28.3928571 C23.5714286,28.7142857 23.3571429,28.9285714 23.0357143,28.9285714 L1.60714286,28.9285714 C1.28571429,28.9285714 1.07142857,28.7142857 1.07142857,28.3928571 L1.07142857,7.5 L5.89285714,7.5 C6.80357143,7.5 7.5,6.80357143 7.5,5.89285714 L7.5,1.07142857 Z M6.42857143,1.33928571 L6.42857143,5.89285714 C6.42857143,6.21428571 6.21428571,6.42857143 5.89285714,6.42857143 L1.33928571,6.42857143 C1.39285714,6.32142857 1.44642857,6.26785714 1.55357143,6.16071429 L6.21428571,1.5 C6.26785714,1.44642857 6.32142857,1.39285714 6.42857143,1.33928571 Z M5.35714286,8.57142857 C4.76785714,8.57142857 4.28571429,9.05357143 4.28571429,9.64285714 L4.28571429,10.7142857 C4.28571429,11.3035714 4.76785714,11.7857143 5.35714286,11.7857143 L6.42857143,11.7857143 C7.01785714,11.7857143 7.5,11.3035714 7.5,10.7142857 L7.5,9.64285714 C7.5,9.05357143 7.01785714,8.57142857 6.42857143,8.57142857 L5.35714286,8.57142857 Z M9.10714286,8.57142857 C8.78571429,8.57142857 8.57142857,8.78571429 8.57142857,9.10714286 C8.57142857,9.42857143 8.78571429,9.64285714 9.10714286,9.64285714 L15.5357143,9.64285714 C15.8571429,9.64285714 16.0714286,9.42857143 16.0714286,9.10714286 C16.0714286,8.78571429 15.8571429,8.57142857 15.5357143,8.57142857 L9.10714286,8.57142857 Z M17.6785714,8.57142857 C17.3571429,8.57142857 17.1428571,8.78571429 17.1428571,9.10714286 C17.1428571,9.42857143 17.3571429,9.64285714 17.6785714,9.64285714 L19.8214286,9.64285714 C20.1428571,9.64285714 20.3571429,9.42857143 20.3571429,9.10714286 C20.3571429,8.78571429 20.1428571,8.57142857 19.8214286,8.57142857 L17.6785714,8.57142857 Z M5.25,9.53571429 L6.58928571,9.53571429 L6.58928571,10.875 L5.25,10.875 L5.25,9.53571429 Z M9.10714286,10.7142857 C8.78571429,10.7142857 8.57142857,10.9285714 8.57142857,11.25 C8.57142857,11.5714286 8.78571429,11.7857143 9.10714286,11.7857143 L16.6071429,11.7857143 C16.9285714,11.7857143 17.1428571,11.5714286 17.1428571,11.25 C17.1428571,10.9285714 16.9285714,10.7142857 16.6071429,10.7142857 L9.10714286,10.7142857 Z M5.35714286,13.9285714 C4.76785714,13.9285714 4.28571429,14.4107143 4.28571429,15 L4.28571429,16.0714286 C4.28571429,16.6607143 4.76785714,17.1428571 5.35714286,17.1428571 L6.42857143,17.1428571 C7.01785714,17.1428571 7.5,16.6607143 7.5,16.0714286 L7.5,15 C7.5,14.4107143 7.01785714,13.9285714 6.42857143,13.9285714 L5.35714286,13.9285714 Z M9.10714286,13.9285714 C8.78571429,13.9285714 8.57142857,14.1428571 8.57142857,14.4642857 C8.57142857,14.7857143 8.78571429,15 9.10714286,15 L18.75,15 C19.0714286,15 19.2857143,14.7857143 19.2857143,14.4642857 C19.2857143,14.1428571 19.0714286,13.9285714 18.75,13.9285714 L9.10714286,13.9285714 Z M5.25,14.8928571 L6.58928571,14.8928571 L6.58928571,16.2321429 L5.25,16.2321429 L5.25,14.8928571 Z M9.10714286,16.0714286 C8.78571429,16.0714286 8.57142857,16.2857143 8.57142857,16.6071429 C8.57142857,16.9285714 8.78571429,17.1428571 9.10714286,17.1428571 L16.6071429,17.1428571 C16.9285714,17.1428571 17.1428571,16.9285714 17.1428571,16.6071429 C17.1428571,16.2857143 16.9285714,16.0714286 16.6071429,16.0714286 L9.10714286,16.0714286 Z M5.35714286,19.2857143 C4.76785714,19.2857143 4.28571429,19.7678571 4.28571429,20.3571429 L4.28571429,21.4285714 C4.28571429,22.0178571 4.76785714,22.5 5.35714286,22.5 L6.42857143,22.5 C7.01785714,22.5 7.5,22.0178571 7.5,21.4285714 L7.5,20.3571429 C7.5,19.7678571 7.01785714,19.2857143 6.42857143,19.2857143 L5.35714286,19.2857143 Z M9.10714286,19.2857143 C8.78571429,19.2857143 8.57142857,19.5 8.57142857,19.8214286 C8.57142857,20.1428571 8.78571429,20.3571429 9.10714286,20.3571429 L18.75,20.3571429 C19.0714286,20.3571429 19.2857143,20.1428571 19.2857143,19.8214286 C19.2857143,19.5 19.0714286,19.2857143 18.75,19.2857143 L9.10714286,19.2857143 Z M5.19642857,20.1964286 L6.58928571,20.1964286 L6.58928571,21.5892857 L5.19642857,21.5892857 L5.19642857,20.1964286 Z M9.10714286,21.4285714 C8.78571429,21.4285714 8.57142857,21.6428571 8.57142857,21.9642857 C8.57142857,22.2857143 8.78571429,22.5 9.10714286,22.5 L16.6071429,22.5 C16.9285714,22.5 17.1428571,22.2857143 17.1428571,21.9642857 C17.1428571,21.6428571 16.9285714,21.4285714 16.6071429,21.4285714 L9.10714286,21.4285714 Z M2.67857143,25.7142857 C2.35714286,25.7142857 2.14285714,25.9285714 2.14285714,26.25 L2.14285714,27.3214286 C2.14285714,27.6428571 2.35714286,27.8571429 2.67857143,27.8571429 C3,27.8571429 3.21428571,27.6428571 3.21428571,27.3214286 L3.21428571,26.25 C3.21428571,25.9285714 3,25.7142857 2.67857143,25.7142857 Z M5.35714286,25.7142857 C5.03571429,25.7142857 4.82142857,25.9285714 4.82142857,26.25 L4.82142857,27.3214286 C4.82142857,27.6428571 5.03571429,27.8571429 5.35714286,27.8571429 C5.67857143,27.8571429 5.89285714,27.6428571 5.89285714,27.3214286 L5.89285714,26.25 C5.89285714,25.9285714 5.67857143,25.7142857 5.35714286,25.7142857 Z M8.03571429,25.7142857 C7.71428571,25.7142857 7.5,25.9285714 7.5,26.25 L7.5,27.3214286 C7.5,27.6428571 7.71428571,27.8571429 8.03571429,27.8571429 C8.35714286,27.8571429 8.57142857,27.6428571 8.57142857,27.3214286 L8.57142857,26.25 C8.57142857,25.9285714 8.35714286,25.7142857 8.03571429,25.7142857 Z M10.7142857,25.7142857 C10.3928571,25.7142857 10.1785714,25.9285714 10.1785714,26.25 L10.1785714,27.3214286 C10.1785714,27.6428571 10.3928571,27.8571429 10.7142857,27.8571429 C11.0357143,27.8571429 11.25,27.6428571 11.25,27.3214286 L11.25,26.25 C11.25,25.9285714 11.0357143,25.7142857 10.7142857,25.7142857 Z M13.3928571,25.7142857 C13.0714286,25.7142857 12.8571429,25.9285714 12.8571429,26.25 L12.8571429,27.3214286 C12.8571429,27.6428571 13.0714286,27.8571429 13.3928571,27.8571429 C13.7142857,27.8571429 13.9285714,27.6428571 13.9285714,27.3214286 L13.9285714,26.25 C13.9285714,25.9285714 13.7142857,25.7142857 13.3928571,25.7142857 Z M16.0714286,25.7142857 C15.75,25.7142857 15.5357143,25.9285714 15.5357143,26.25 L15.5357143,27.3214286 C15.5357143,27.6428571 15.75,27.8571429 16.0714286,27.8571429 C16.3928571,27.8571429 16.6071429,27.6428571 16.6071429,27.3214286 L16.6071429,26.25 C16.6071429,25.9285714 16.3928571,25.7142857 16.0714286,25.7142857 Z M18.75,25.7142857 C18.4285714,25.7142857 18.2142857,25.9285714 18.2142857,26.25 L18.2142857,27.3214286 C18.2142857,27.6428571 18.4285714,27.8571429 18.75,27.8571429 C19.0714286,27.8571429 19.2857143,27.6428571 19.2857143,27.3214286 L19.2857143,26.25 C19.2857143,25.9285714 19.0714286,25.7142857 18.75,25.7142857 Z M21.4285714,25.7142857 C21.1071429,25.7142857 20.8928571,25.9285714 20.8928571,26.25 L20.8928571,27.3214286 C20.8928571,27.6428571 21.1071429,27.8571429 21.4285714,27.8571429 C21.75,27.8571429 21.9642857,27.6428571 21.9642857,27.3214286 L21.9642857,26.25 C21.9642857,25.9285714 21.75,25.7142857 21.4285714,25.7142857 Z" id="Shape"></path>
                        </g>
                    </g>
                </g>
            </g>
        </g>
    </g>
</svg>