<?xml version="1.0" encoding="UTF-8"?>
<svg width="45px" height="44px" viewBox="0 0 45 44" version="1.1" xmlns="http://www.w3.org/2000/svg" xmlns:xlink="http://www.w3.org/1999/xlink">
    <!-- Generator: Sketch 48.2 (47327) - http://www.bohemiancoding.com/sketch -->
    <title>pull-users</title>
    <desc>Created with Sketch.</desc>
    <defs></defs>
    <g id="Home" stroke="none" stroke-width="1" fill="none" fill-rule="evenodd" transform="translate(-532.000000, -1413.000000)">
        <g id="Adoptive" transform="translate(0.000000, 1064.000000)" fill="#55D0A5" fill-rule="nonzero">
            <g id="Main-Points" transform="translate(531.000000, 208.000000)">
                <g id="Point-3" transform="translate(0.000000, 141.000000)">
                    <g id="pull-users" transform="translate(1.000000, 0.000000)">
                        <path d="M18.28125,0 C16.734375,0 14.484375,0.496774194 13.1484375,1.41935484 C10.546875,1.49032258 8.71875,3.40645161 8.4375,6.31612903 C8.296875,8.16129032 8.4375,9.43870968 8.5078125,10.2903226 C8.578125,10.5741935 8.578125,10.9290323 8.578125,11 L8.5078125,11.4258065 C8.3671875,11.4258065 8.296875,11.4258065 8.2265625,11.4967742 C7.03125,11.7806452 6.5390625,13.483871 7.1015625,15.4709677 C7.453125,16.8903226 8.296875,17.9548387 9.140625,18.2387097 C9.5625,19.5870968 10.265625,21.0064516 11.0390625,22.2129032 L4.5703125,25.9741935 C1.7578125,27.6774194 0,30.7290323 0,33.9935484 L0,39.0322581 C0,40.1677419 0.984375,41.1612903 2.109375,41.1612903 L29.25,41.1612903 C30.9375,42.9354839 33.2578125,44 35.859375,44 C40.921875,44 45,39.883871 45,34.7741935 C45,30.9419355 42.6796875,27.6774194 39.4453125,26.2580645 C39.4453125,26.2580645 39.4453125,26.2580645 39.4453125,26.2580645 C39.1640625,26.0451613 38.953125,25.8322581 38.671875,25.6903226 L35.6484375,23.7032258 C37.96875,23.1354839 39.3046875,22.4258065 41.5546875,21.2193548 C41.90625,21.0064516 42.1875,20.6516129 42.328125,20.2967742 C42.3984375,19.9419355 42.3984375,19.516129 42.1171875,19.1612903 L40.921875,17.316129 C40.2890625,16.3225806 39.796875,15.2580645 39.5859375,14.1225806 L38.390625,8.87096774 C37.4765625,4.89677419 34.1015625,1.98709677 30.09375,1.77419355 C29.53125,1.41935484 28.8984375,1.20645161 28.1953125,1.20645161 C27.3515625,1.20645161 26.0859375,1.20645161 24.8203125,1.63225806 C23.203125,0.567741935 21.234375,0 18.984375,0 L18.28125,0 Z M18.28125,1.41935484 L18.984375,1.41935484 C23.2734375,1.41935484 26.296875,3.61935484 27.5625,7.52258065 C27.0703125,7.4516129 26.578125,7.52258065 26.2265625,7.87741935 C25.9453125,8.16129032 25.734375,8.65806452 26.015625,9.50967742 C26.4375,10.716129 26.578125,11.4258065 26.6484375,12.4193548 C26.6484375,12.7032258 26.7890625,12.916129 27,13.0580645 C27.2109375,13.2 27.4921875,13.1290323 27.703125,12.9870968 C27.84375,12.916129 27.84375,12.916129 27.9140625,12.916129 C28.0546875,12.9870968 28.40625,13.8387097 28.0546875,15.1870968 C27.9140625,15.8258065 27.6328125,16.3225806 27.421875,16.6064516 C27.2109375,16.8903226 27,17.0322581 26.859375,17.0322581 C26.578125,17.0322581 26.296875,17.2451613 26.15625,17.5290323 C25.734375,18.9483871 25.1015625,20.3677419 24.2578125,21.5741935 C23.9765625,22 23.6953125,22.3548387 23.4140625,22.7096774 C22.0078125,24.4129032 20.1796875,25.6193548 18.2109375,25.6193548 C16.2421875,25.6193548 14.484375,24.4129032 13.0078125,22.7096774 C12.7265625,22.3548387 12.4453125,22 12.1640625,21.5741935 C11.3203125,20.2967742 10.6875,18.8774194 10.265625,17.5290323 C10.1953125,17.2451613 9.9140625,17.0322581 9.5625,17.0322581 C9.3515625,17.0322581 8.71875,16.4645161 8.3671875,15.1870968 C8.2265625,14.7612903 8.2265625,14.3354839 8.2265625,14.0516129 C8.2265625,13.4129032 8.4375,12.9870968 8.5078125,12.9870968 C8.5078125,12.9870968 8.578125,12.9870968 8.71875,13.0580645 C8.9296875,13.2 9.2109375,13.2 9.421875,13.1290323 C9.6328125,12.9870968 9.7734375,12.7741935 9.7734375,12.4903226 C9.7734375,12.1354839 9.84375,11.7806452 9.9140625,11.4258065 C9.984375,11.1419355 9.9140625,10.7870968 9.84375,10.2903226 C9.7734375,9.50967742 9.5625,8.30322581 9.7734375,6.6 C10.0546875,4.18709677 11.390625,2.83870968 13.359375,2.83870968 C13.5,2.83870968 13.640625,2.76774194 13.78125,2.69677419 C14.765625,1.98709677 16.6640625,1.41935484 18.28125,1.41935484 Z M28.1953125,2.62580645 C28.6171875,2.62580645 29.0390625,2.76774194 29.390625,3.0516129 C29.53125,3.12258065 29.671875,3.19354839 29.8125,3.19354839 C33.2578125,3.33548387 36.28125,5.81935484 37.0546875,9.22580645 L38.25,14.4774194 C38.53125,15.7548387 39.09375,17.0322581 39.796875,18.1677419 L40.9921875,20.083871 C38.4609375,21.4322581 37.0546875,22.0709677 34.03125,22.7096774 L32.6953125,21.8580645 C34.03125,20.7225806 34.5234375,19.516129 35.015625,18.2387097 C35.0859375,18.0258065 35.2265625,17.883871 35.5078125,17.6709677 C36.0703125,17.2451613 36.421875,16.3935484 36.5625,15.4709677 C36.6328125,14.3354839 36.421875,13.5548387 35.859375,13.0580645 C35.71875,12.916129 35.6484375,12.8451613 35.6484375,12.7741935 L35.6484375,12.6322581 C35.578125,11.9225806 35.5078125,11.283871 35.3671875,10.9290323 C35.296875,10.6451613 35.015625,10.4322581 34.6640625,10.4322581 L33.328125,10.4322581 C32.4140625,10.4322581 32.0625,10.3612903 31.4296875,10.2193548 C31.2890625,10.2193548 31.1484375,10.1483871 30.9375,10.1483871 C30.5859375,10.0774194 30.1640625,10.3612903 30.09375,10.716129 C30.0234375,11.0709677 30.3046875,11.4967742 30.65625,11.5677419 C30.796875,11.5677419 31.0078125,11.6387097 31.1484375,11.6387097 C31.78125,11.7806452 32.2734375,11.8516129 33.328125,11.8516129 L34.1015625,11.8516129 C34.171875,12.2064516 34.171875,12.5612903 34.2421875,12.7741935 L34.2421875,12.916129 C34.3125,13.3419355 34.5234375,13.6967742 34.875,14.0516129 C35.0859375,14.2645161 35.15625,14.6903226 35.0859375,15.3290323 C35.015625,15.8967742 34.8046875,16.3935484 34.59375,16.5354839 C34.1015625,16.8903226 33.8203125,17.316129 33.6796875,17.7419355 C33.1875,19.1612903 32.6953125,20.2258065 31.0078125,21.3612903 C31.0078125,21.3612903 31.0078125,21.3612903 31.0078125,21.3612903 C30.65625,21.6451613 30.234375,21.8580645 29.7421875,22.1419355 C29.390625,22.3548387 29.25,22.7806452 29.4609375,23.0645161 C29.6015625,23.2774194 29.8125,23.4193548 30.09375,23.4193548 C30.234375,23.4193548 30.3046875,23.4193548 30.4453125,23.3483871 C30.796875,23.1354839 31.1484375,22.9225806 31.5,22.7806452 L35.9296875,25.6193548 C34.6640625,25.6193548 33.5390625,25.9032258 32.484375,26.3290323 C32.34375,26.2580645 32.2734375,26.1870968 32.1328125,26.116129 L25.6640625,22.3548387 C26.5078125,21.1483871 27.140625,19.7290323 27.5625,18.3806452 C28.40625,18.0258065 29.1796875,16.9612903 29.6015625,15.6129032 C29.7421875,15.0451613 29.8125,14.5483871 29.8125,14.1225806 C29.8125,12.8451613 29.3203125,11.8516129 28.4765625,11.6387097 C28.40625,11.6387097 28.265625,11.5677419 28.1953125,11.5677419 C28.125,10.7870968 27.9140625,10.0774194 27.5625,9.15483871 C27.5625,9.15483871 27.5625,9.08387097 27.5625,9.08387097 C27.84375,9.08387097 28.1953125,9.22580645 28.546875,9.36774194 C28.7578125,9.43870968 29.0390625,9.43870968 29.25,9.22580645 C29.4609375,9.08387097 29.53125,8.8 29.4609375,8.51612903 C28.96875,6.17419355 27.9140625,4.32903226 26.4375,2.90967742 C27,2.62580645 27.703125,2.62580645 28.1953125,2.62580645 Z M14.4140625,5.7483871 C13.921875,5.67741935 13.4296875,5.96129032 13.1484375,6.38709677 L12.0234375,8.09032258 C11.8125,8.44516129 11.8828125,8.87096774 12.234375,9.08387097 C12.375,9.15483871 12.515625,9.22580645 12.5859375,9.22580645 C12.796875,9.22580645 13.0078125,9.08387097 13.1484375,8.94193548 L14.2734375,7.23870968 L15.3984375,7.80645161 C17.3671875,8.8 19.6171875,9.29677419 21.8671875,9.29677419 L23.6953125,9.29677419 C24.1171875,9.29677419 24.3984375,9.01290323 24.3984375,8.58709677 C24.3984375,8.16129032 24.1171875,7.87741935 23.6953125,7.87741935 L21.8671875,7.87741935 C19.828125,7.87741935 17.859375,7.38064516 16.03125,6.52903226 L14.90625,5.96129032 C14.765625,5.81935484 14.625,5.7483871 14.4140625,5.7483871 Z M11.8828125,23.3483871 C13.5703125,25.4774194 15.8203125,26.9677419 18.28125,26.9677419 C20.7421875,26.9677419 22.9921875,25.4774194 24.6796875,23.3483871 L30.9375,26.9677419 C28.40625,28.6 26.71875,31.4387097 26.71875,34.7032258 C26.71875,36.5483871 27.28125,38.2516129 28.1953125,39.6709677 L2.109375,39.6709677 C1.6875,39.6709677 1.40625,39.3870968 1.40625,38.9612903 L1.40625,33.9225806 C1.40625,31.1548387 2.8828125,28.5290323 5.2734375,27.1806452 L11.8828125,23.3483871 Z M35.859375,26.9677419 C36.84375,26.9677419 37.828125,27.1806452 38.671875,27.5354839 C39.8671875,28.0322581 40.921875,28.8129032 41.765625,29.8064516 C42.890625,31.1548387 43.59375,32.8580645 43.59375,34.7741935 C43.59375,39.1032258 40.1484375,42.5806452 35.859375,42.5806452 C34.171875,42.5806452 32.6953125,42.083871 31.4296875,41.1612903 C30.8671875,40.7354839 30.375,40.3096774 29.8828125,39.7419355 C28.7578125,38.3935484 28.125,36.6903226 28.125,34.7741935 C28.125,31.7935484 29.8125,29.2387097 32.203125,27.8903226 C32.625,27.6064516 33.1875,27.4645161 33.6796875,27.2516129 C34.3828125,27.1096774 35.0859375,26.9677419 35.859375,26.9677419 Z M12.7265625,26.9677419 C12.4453125,26.9677419 12.1640625,27.1096774 12.0234375,27.3935484 C11.8828125,27.7483871 12.0234375,28.1741935 12.3046875,28.316129 L17.9296875,31.1548387 C18.0703125,31.2258065 18.140625,31.2258065 18.28125,31.2258065 C18.421875,31.2258065 18.4921875,31.2258065 18.5625,31.1548387 L24.1875,28.316129 C24.5390625,28.1741935 24.6796875,27.7483871 24.46875,27.3935484 C24.328125,27.0387097 23.90625,26.8967742 23.5546875,27.1096774 L18.28125,29.7354839 L12.9375,27.0387097 C12.8671875,26.9677419 12.796875,26.9677419 12.7265625,26.9677419 Z M35.859375,29.8064516 C35.4375,29.8064516 35.15625,30.0903226 35.15625,30.516129 L35.15625,34.0645161 L31.640625,34.0645161 C31.21875,34.0645161 30.9375,34.3483871 30.9375,34.7741935 C30.9375,35.2 31.21875,35.483871 31.640625,35.483871 L35.15625,35.483871 L35.15625,39.0322581 C35.15625,39.4580645 35.4375,39.7419355 35.859375,39.7419355 C36.28125,39.7419355 36.5625,39.4580645 36.5625,39.0322581 L36.5625,35.483871 L40.078125,35.483871 C40.5,35.483871 40.78125,35.2 40.78125,34.7741935 C40.78125,34.3483871 40.5,34.0645161 40.078125,34.0645161 L36.5625,34.0645161 L36.5625,30.516129 C36.5625,30.0903226 36.28125,29.8064516 35.859375,29.8064516 Z M4.21875,35.483871 C3.796875,35.483871 3.515625,35.7677419 3.515625,36.1935484 L3.515625,37.6129032 C3.515625,38.0387097 3.796875,38.3225806 4.21875,38.3225806 C4.640625,38.3225806 4.921875,38.0387097 4.921875,37.6129032 L4.921875,36.1935484 C4.921875,35.7677419 4.640625,35.483871 4.21875,35.483871 Z M7.734375,35.483871 C7.3125,35.483871 7.03125,35.7677419 7.03125,36.1935484 L7.03125,37.6129032 C7.03125,38.0387097 7.3125,38.3225806 7.734375,38.3225806 C8.15625,38.3225806 8.4375,38.0387097 8.4375,37.6129032 L8.4375,36.1935484 C8.4375,35.7677419 8.15625,35.483871 7.734375,35.483871 Z M11.25,35.483871 C10.828125,35.483871 10.546875,35.7677419 10.546875,36.1935484 L10.546875,37.6129032 C10.546875,38.0387097 10.828125,38.3225806 11.25,38.3225806 C11.671875,38.3225806 11.953125,38.0387097 11.953125,37.6129032 L11.953125,36.1935484 C11.953125,35.7677419 11.671875,35.483871 11.25,35.483871 Z M14.765625,35.483871 C14.34375,35.483871 14.0625,35.7677419 14.0625,36.1935484 L14.0625,37.6129032 C14.0625,38.0387097 14.34375,38.3225806 14.765625,38.3225806 C15.1875,38.3225806 15.46875,38.0387097 15.46875,37.6129032 L15.46875,36.1935484 C15.46875,35.7677419 15.1875,35.483871 14.765625,35.483871 Z M18.28125,35.483871 C17.859375,35.483871 17.578125,35.7677419 17.578125,36.1935484 L17.578125,37.6129032 C17.578125,38.0387097 17.859375,38.3225806 18.28125,38.3225806 C18.703125,38.3225806 18.984375,38.0387097 18.984375,37.6129032 L18.984375,36.1935484 C18.984375,35.7677419 18.703125,35.483871 18.28125,35.483871 Z M21.796875,35.483871 C21.375,35.483871 21.09375,35.7677419 21.09375,36.1935484 L21.09375,37.6129032 C21.09375,38.0387097 21.375,38.3225806 21.796875,38.3225806 C22.21875,38.3225806 22.5,38.0387097 22.5,37.6129032 L22.5,36.1935484 C22.5,35.7677419 22.21875,35.483871 21.796875,35.483871 Z M25.3125,35.483871 C24.890625,35.483871 24.609375,35.7677419 24.609375,36.1935484 L24.609375,37.6129032 C24.609375,38.0387097 24.890625,38.3225806 25.3125,38.3225806 C25.734375,38.3225806 26.015625,38.0387097 26.015625,37.6129032 L26.015625,36.1935484 C26.015625,35.7677419 25.734375,35.483871 25.3125,35.483871 Z" id="Shape"></path>
                    </g>
                </g>
            </g>
        </g>
    </g>
</svg>
