<?xml version="1.0" encoding="UTF-8"?>
<svg width="35px" height="33px" viewBox="0 0 35 33" version="1.1" xmlns="http://www.w3.org/2000/svg" xmlns:xlink="http://www.w3.org/1999/xlink">
    <!-- Generator: Sketch 48.2 (47327) - http://www.bohemiancoding.com/sketch -->
    <title>receive</title>
    <desc>Created with Sketch.</desc>
    <defs></defs>
    <g id="Home" stroke="none" stroke-width="1" fill="none" fill-rule="evenodd" transform="translate(-398.000000, -3091.000000)">
        <g id="Supplier-Selection" transform="translate(0.000000, 2642.000000)" fill="#673490" fill-rule="nonzero">
            <g id="Engage-to-Award" transform="translate(132.000000, 404.000000)">
                <g id="Bar" transform="translate(1.000000, 29.000000)">
                    <g id="Receive" transform="translate(233.000000, 0.000000)">
                        <g id="receive" transform="translate(32.000000, 16.000000)">
                            <path d="M17.6709677,0 C13.3596774,0.159677419 9.52741935,2.82096774 7.82419355,6.81290323 C7.82419355,6.81290323 7.82419355,6.81290323 7.82419355,6.81290323 C7.71774194,7.02580645 7.66451613,7.29193548 7.55806452,7.50483871 C7.55806452,7.55806452 7.50483871,7.61129032 7.50483871,7.66451613 C3.24677419,8.72903226 0.319354839,12.6677419 0.532258065,17.0322581 C0.798387097,21.8225806 4.84354839,25.5483871 9.79354839,25.5483871 L11.9758065,25.5483871 L11.283871,26.2403226 C11.2306452,26.3467742 11.1774194,26.4532258 11.1774194,26.6129032 C11.1774194,26.7725806 11.2306452,26.8790323 11.3370968,26.9854839 L17.1919355,32.8403226 C17.4048387,33.0532258 17.7241935,33.0532258 17.9370968,32.8403226 L23.7919355,26.9854839 C24.0048387,26.7725806 24.0048387,26.4532258 23.7919355,26.2403226 L23.1,25.5483871 L27.9967742,25.5483871 C31.5096774,25.5483871 34.4370968,22.7806452 34.5435484,19.4274194 C34.65,16.6596774 32.9467742,14.2112903 30.4451613,13.2532258 C30.3919355,13.2532258 30.3919355,13.2 30.3919355,13.2 C30.0193548,13.0403226 29.6467742,12.9870968 29.2741935,12.933871 C29.2209677,12.933871 29.1677419,12.933871 29.1145161,12.8806452 C29.2741935,11.816129 29.2741935,10.7516129 29.1145161,9.68709677 C28.4758065,4.79032258 24.4306452,0.74516129 19.4806452,0.106451613 C18.8951613,0 18.2564516,0 17.6709677,0 Z M18.0967742,1.06451613 C18.5225806,1.06451613 18.9483871,1.11774194 19.3741935,1.17096774 C23.8451613,1.70322581 27.4645161,5.37580645 28.1032258,9.79354839 C28.2096774,10.8048387 28.2096774,11.816129 28.05,12.7741935 C27.7306452,12.7741935 27.4112903,12.8274194 27.0919355,12.8806452 C26.8258065,12.933871 26.6129032,13.2 26.666129,13.5193548 C26.7193548,13.7854839 26.9854839,13.9983871 27.3048387,13.9451613 C27.6774194,13.8387097 28.1032258,13.8387097 28.5290323,13.8387097 C28.6887097,13.8387097 28.7951613,13.8387097 28.9548387,13.8919355 C29.0080645,13.8919355 29.0612903,13.8919355 29.1145161,13.9451613 C31.6693548,14.3709677 33.6387097,16.7129032 33.5322581,19.3741935 C33.4790323,20.4387097 33.1064516,21.45 32.4677419,22.3016129 L32.4677419,21.8225806 C32.4677419,21.5032258 32.2548387,21.2903226 31.9354839,21.2903226 C31.616129,21.2903226 31.4032258,21.5032258 31.4032258,21.8225806 L31.4032258,22.8870968 C31.4032258,22.9935484 31.4564516,23.1532258 31.5629032,23.2596774 C31.5096774,23.3129032 31.4032258,23.366129 31.35,23.4193548 C30.4451613,24.1112903 29.2741935,24.483871 28.05,24.483871 L22.0354839,24.483871 L21.6629032,24.1112903 C21.45,23.8983871 21.1306452,23.8983871 20.9177419,24.1112903 L20.5451613,24.483871 L19.6935484,24.483871 L19.6935484,13.3064516 C19.6935484,12.9870968 19.4806452,12.7741935 19.1612903,12.7741935 L15.9677419,12.7741935 C15.6483871,12.7741935 15.4354839,12.9870968 15.4354839,13.3064516 L15.4354839,24.483871 L14.583871,24.483871 L14.2112903,24.1112903 C13.9983871,23.8983871 13.6790323,23.8983871 13.466129,24.1112903 L13.0935484,24.483871 L9.84677419,24.483871 C8.30322581,24.483871 6.91935484,24.0580645 5.69516129,23.366129 C5.69516129,23.4193548 5.8016129,23.4193548 5.85483871,23.4193548 C6.17419355,23.4193548 6.38709677,23.2064516 6.38709677,22.8870968 L6.38709677,21.8225806 C6.38709677,21.5032258 6.17419355,21.2903226 5.85483871,21.2903226 C5.53548387,21.2903226 5.32258065,21.5032258 5.32258065,21.8225806 L5.32258065,22.8870968 C5.32258065,23.1 5.42903226,23.2596774 5.58870968,23.366129 C5.48225806,23.3129032 5.32258065,23.2064516 5.21612903,23.1532258 C4.84354839,22.833871 4.25806452,22.4080645 4.25806452,22.4080645 C2.71451613,21.0241935 1.70322581,19.1080645 1.59677419,16.9790323 C1.43709677,13.3064516 3.72580645,10.0064516 7.13225806,8.88870968 C7.02580645,9.63387097 6.91935484,10.3790323 6.91935484,11.1774194 C6.91935484,11.4967742 7.13225806,11.7096774 7.4516129,11.7096774 C7.77096774,11.7096774 7.98387097,11.4967742 7.98387097,11.1774194 C7.98387097,10.2193548 8.14354839,9.26129032 8.40967742,8.30322581 C8.40967742,8.30322581 8.40967742,8.30322581 8.40967742,8.30322581 C8.46290323,8.09032258 8.51612903,7.93064516 8.62258065,7.71774194 C8.67580645,7.61129032 8.67580645,7.50483871 8.72903226,7.4516129 C10.2193548,3.56612903 13.9451613,1.06451613 18.0967742,1.06451613 Z M18.416129,2.66129032 C16.9258065,2.60806452 15.3822581,2.98064516 14.0516129,3.67258065 C13.7854839,3.83225806 13.6790323,4.1516129 13.8387097,4.41774194 C13.9451613,4.57741935 14.1048387,4.68387097 14.3177419,4.68387097 C14.4241935,4.68387097 14.4774194,4.68387097 14.583871,4.63064516 C16.1274194,3.77903226 17.9903226,3.51290323 19.6935484,3.88548387 C19.9596774,3.93870968 20.2790323,3.77903226 20.3322581,3.45967742 C20.3854839,3.19354839 20.2258065,2.87419355 19.9064516,2.82096774 C19.4274194,2.76774194 18.8951613,2.66129032 18.416129,2.66129032 Z M21.8758065,3.61935484 C21.6629032,3.61935484 21.45,3.72580645 21.3435484,3.88548387 C21.183871,4.1516129 21.2903226,4.47096774 21.5564516,4.63064516 C21.9822581,4.84354839 22.3548387,5.10967742 22.7274194,5.42903226 C22.833871,5.53548387 22.9403226,5.53548387 23.0467742,5.53548387 C23.2064516,5.53548387 23.366129,5.48225806 23.4725806,5.32258065 C23.6322581,5.10967742 23.6322581,4.73709677 23.4193548,4.57741935 C22.9935484,4.25806452 22.5677419,3.93870968 22.0887097,3.67258065 C22.0354839,3.61935484 21.9822581,3.61935484 21.8758065,3.61935484 Z M16.5,13.8387097 L18.6290323,13.8387097 L18.6290323,26.6129032 C18.6290323,26.8258065 18.7354839,27.0387097 18.9483871,27.0919355 C19.1612903,27.1983871 19.3741935,27.1451613 19.533871,26.9854839 L21.2903226,25.2290323 L22.6741935,26.6129032 L17.5645161,31.7225806 L12.4548387,26.6129032 L13.8387097,25.2290323 L15.5951613,26.9854839 C15.7548387,27.1451613 15.9677419,27.1983871 16.1806452,27.0919355 C16.3935484,26.9854839 16.5,26.8258065 16.5,26.6129032 L16.5,13.8387097 Z M8.51612903,21.2903226 C8.19677419,21.2903226 7.98387097,21.5032258 7.98387097,21.8225806 L7.98387097,22.8870968 C7.98387097,23.2064516 8.19677419,23.4193548 8.51612903,23.4193548 C8.83548387,23.4193548 9.0483871,23.2064516 9.0483871,22.8870968 L9.0483871,21.8225806 C9.0483871,21.5032258 8.83548387,21.2903226 8.51612903,21.2903226 Z M11.1774194,21.2903226 C10.8580645,21.2903226 10.6451613,21.5032258 10.6451613,21.8225806 L10.6451613,22.8870968 C10.6451613,23.2064516 10.8580645,23.4193548 11.1774194,23.4193548 C11.4967742,23.4193548 11.7096774,23.2064516 11.7096774,22.8870968 L11.7096774,21.8225806 C11.7096774,21.5032258 11.4967742,21.2903226 11.1774194,21.2903226 Z M13.8387097,21.2903226 C13.5193548,21.2903226 13.3064516,21.5032258 13.3064516,21.8225806 L13.3064516,22.8870968 C13.3064516,23.2064516 13.5193548,23.4193548 13.8387097,23.4193548 C14.1580645,23.4193548 14.3709677,23.2064516 14.3709677,22.8870968 L14.3709677,21.8225806 C14.3709677,21.5032258 14.1580645,21.2903226 13.8387097,21.2903226 Z M21.2903226,21.2903226 C20.9709677,21.2903226 20.7580645,21.5032258 20.7580645,21.8225806 L20.7580645,22.8870968 C20.7580645,23.2064516 20.9709677,23.4193548 21.2903226,23.4193548 C21.6096774,23.4193548 21.8225806,23.2064516 21.8225806,22.8870968 L21.8225806,21.8225806 C21.8225806,21.5032258 21.6096774,21.2903226 21.2903226,21.2903226 Z M23.9516129,21.2903226 C23.6322581,21.2903226 23.4193548,21.5032258 23.4193548,21.8225806 L23.4193548,22.8870968 C23.4193548,23.2064516 23.6322581,23.4193548 23.9516129,23.4193548 C24.2709677,23.4193548 24.483871,23.2064516 24.483871,22.8870968 L24.483871,21.8225806 C24.483871,21.5032258 24.2709677,21.2903226 23.9516129,21.2903226 Z M26.6129032,21.2903226 C26.2935484,21.2903226 26.0806452,21.5032258 26.0806452,21.8225806 L26.0806452,22.8870968 C26.0806452,23.2064516 26.2935484,23.4193548 26.6129032,23.4193548 C26.9322581,23.4193548 27.1451613,23.2064516 27.1451613,22.8870968 L27.1451613,21.8225806 C27.1451613,21.5032258 26.9322581,21.2903226 26.6129032,21.2903226 Z M29.2741935,21.2903226 C28.9548387,21.2903226 28.7419355,21.5032258 28.7419355,21.8225806 L28.7419355,22.8870968 C28.7419355,23.2064516 28.9548387,23.4193548 29.2741935,23.4193548 C29.5935484,23.4193548 29.8064516,23.2064516 29.8064516,22.8870968 L29.8064516,21.8225806 C29.8064516,21.5032258 29.5935484,21.2903226 29.2741935,21.2903226 Z" id="Shape"></path>
                        </g>
                    </g>
                </g>
            </g>
        </g>
    </g>
</svg>