<?xml version="1.0" encoding="UTF-8"?>
<svg width="85px" height="40px" viewBox="0 0 85 40" version="1.1" xmlns="http://www.w3.org/2000/svg" xmlns:xlink="http://www.w3.org/1999/xlink">
    <!-- Generator: Sketch 48.2 (47327) - http://www.bohemiancoding.com/sketch -->
    <title>90-percent</title>
    <desc>Created with Sketch.</desc>
    <defs>
        <polygon id="path-1" points="0.0389467787 0.106364146 10.9291877 0.106364146 10.9291877 13.2049636 0.0389467787 13.2049636"></polygon>
    </defs>
    <g id="Home" stroke="none" stroke-width="1" fill="none" fill-rule="evenodd" transform="translate(-692.000000, -1279.000000)">
        <g id="Adoptive" transform="translate(0.000000, 1064.000000)">
            <g id="Main-Points" transform="translate(531.000000, 208.000000)">
                <g id="Point-2" transform="translate(161.000000, 7.000000)">
                    <g id="90-percent">
                        <path d="M23.3714622,22.445098 L15.0591933,38.0234734 C15.0161681,38.0937255 14.996112,38.1086275 14.9962241,38.1086275 C14.996,38.1088515 14.9599216,38.1263305 14.8300616,38.1263305 L6.40529972,38.1263305 L14.0530308,23.8429692 L13.2027227,23.4173109 L12.9688852,23.5109804 C12.7505098,23.5983754 12.1656359,23.7462745 11.3589132,23.7462745 C8.50020168,23.7462745 5.90513165,22.6709804 4.05191036,20.7184874 C2.1614902,18.7267787 1.12048179,15.8921569 1.12048179,12.7365266 C1.12048179,5.78862745 6.18703641,1.1205042 13.7281008,1.1205042 C21.236112,1.1205042 26.2807059,5.7442577 26.2807059,12.6262745 C26.2807059,15.7190476 25.4915742,18.3813445 23.3714622,22.445098 M23.5323585,3.42997199 C21.0529188,1.18616246 17.6626667,5.6022409e-05 13.7281008,5.6022409e-05 C9.78378711,5.6022409e-05 6.3840112,1.19098039 3.89628011,3.44386555 C1.3472605,5.75221289 3.36134454e-05,8.96554622 3.36134454e-05,12.7365266 C3.36134454e-05,16.1803361 1.15039776,19.2890196 3.2392493,21.4898039 C5.3062521,23.667395 8.18983754,24.8667227 11.3589132,24.8667227 C11.686084,24.8667227 11.9902857,24.8457703 12.2632269,24.8118207 L5.30042577,37.8160784 L5.2932549,37.829972 C5.11958543,38.1770868 5.11801681,38.53507 5.28910924,38.8118207 C5.3895014,38.9741737 5.63868908,39.2467787 6.17986555,39.2467787 L14.8300616,39.2467787 C15.3921905,39.2467787 15.7500616,39.050028 16.0265882,38.5890756 L16.0338711,38.5770868 L24.3623866,22.9678992 C26.1863641,19.4719888 27.4011541,16.3754062 27.4011541,12.6262745 C27.4011541,8.90067227 26.0633389,5.72061625 23.5323585,3.42997199" id="Fill-1" fill="#55D0A5"></path>
                        <path d="M13.728056,8.72376471 C15.930521,8.72376471 17.4101849,10.2699832 17.4101849,12.5711597 C17.4101849,14.9053894 15.930521,16.4736807 13.728056,16.4736807 C11.4927619,16.4736807 9.99091317,14.9053894 9.99091317,12.5711597 C9.99091317,10.2699832 11.4927619,8.72376471 13.728056,8.72376471 M13.728056,17.5941289 C16.5557311,17.5941289 18.5306331,15.5285826 18.5306331,12.5711597 C18.5306331,9.64611765 16.5557311,7.60331653 13.728056,7.60331653 C10.868,7.60331653 8.87046499,9.64611765 8.87046499,12.5711597 C8.87046499,15.5285826 10.868,17.5941289 13.728056,17.5941289" id="Fill-3" fill="#55D0A5"></path>
                        <path d="M22.988112,10.3203025 C22.4442465,7.83010644 21.030577,5.79447619 19.0077199,4.58853782 C16.955395,3.3650084 14.4364034,3.03167507 11.7224538,3.62428011 C11.4201569,3.69027451 11.2286723,3.98887395 11.2946667,4.29117087 C11.3607731,4.59346779 11.6593725,4.78461625 11.9615574,4.71895798 C14.3922577,4.18808964 16.6303529,4.47559664 18.4339384,5.5510028 C20.2132101,6.61173109 21.4095126,8.34360784 21.8934342,10.5595182 C22.3724258,12.7524594 22.0003249,14.9011429 20.845591,16.6096022 C19.6545546,18.3717311 17.7450868,19.5827115 15.3234622,20.1116751 C12.850409,20.6520672 10.5745546,20.3543641 8.74194958,19.251395 C6.94743978,18.171395 5.74172549,16.4224874 5.25489076,14.1934678 C4.76984874,11.9730756 5.13993277,9.89912605 6.32514286,8.19615686 C6.50183754,7.94215126 6.43920448,7.59301961 6.18531092,7.41621289 C5.93130532,7.23951821 5.58217367,7.30215126 5.40547899,7.55604482 C4.05713165,9.49363585 3.61489076,11.9357647 4.16021289,14.4326835 C5.11886835,18.821479 8.60155742,21.4899384 13.0123137,21.4899384 C13.8336022,21.4899384 14.6871597,21.3973894 15.5625658,21.2062409 C17.0132101,20.8894902 18.3010532,20.346521 19.3944986,19.6042241 L18.4663193,21.3918992 C18.3237983,21.666521 18.4308011,22.0046723 18.7053109,22.1473053 C18.787888,22.1901064 18.8760672,22.2103866 18.963014,22.2103866 C19.165479,22.2103866 19.3609972,22.1003585 19.4607171,21.9082017 L22.4859272,16.0818711 C22.5320896,15.9929076 22.5495686,15.8975574 22.5462073,15.804 C23.2465994,14.136437 23.4074958,12.2404146 22.988112,10.3203025" id="Fill-5" fill="#55D0A5"></path>
                        <path d="M7.34227451,6.8357535 C7.46843697,6.8357535 7.59538375,6.79328852 7.70003361,6.70634174 C8.31202241,6.19765826 9.01958543,5.76359664 9.8030028,5.41603361 C10.0858039,5.29065546 10.213423,4.95967507 10.0880448,4.6767619 C9.96255462,4.39407283 9.63191036,4.26589356 9.34877311,4.39183193 C8.47090196,4.78118768 7.67515966,5.26992717 6.98384314,5.84471709 C6.74585994,6.04247619 6.71336695,6.39564146 6.91112605,6.63362465 C7.02193838,6.76695798 7.1814902,6.8357535 7.34227451,6.8357535" id="Fill-7" fill="#55D0A5"></path>
                        <path d="M12.8394734,33.9095574 C12.5630588,33.7706218 12.2262521,33.8819944 12.0873165,34.158409 L11.2921345,35.7401457 C11.1531989,36.0166723 11.2645714,36.3533669 11.541098,36.4923025 C11.6217703,36.5328627 11.7075966,36.5521345 11.7921905,36.5521345 C11.9972325,36.5521345 12.1948796,36.4390812 12.2932549,36.243451 L13.088437,34.6617143 C13.2273725,34.3851877 13.115888,34.048493 12.8394734,33.9095574" id="Fill-9" fill="#55D0A5"></path>
                        <path d="M14.6321905,30.3241232 C14.3557759,30.1850756 14.0190812,30.2966723 13.8800336,30.5729748 L13.0848515,32.1547115 C12.945916,32.4312381 13.0572885,32.7679328 13.3338151,32.9068683 C13.4144874,32.9474286 13.5003137,32.9667003 13.5849076,32.9667003 C13.7899496,32.9667003 13.9875966,32.8536471 14.085972,32.6580168 L14.8811541,31.0762801 C15.0200896,30.7997535 14.908605,30.4630588 14.6321905,30.3241232" id="Fill-11" fill="#55D0A5"></path>
                        <path d="M16.4249076,26.7386891 C16.148605,26.5997535 15.8116863,26.7112381 15.6727507,26.9875406 L14.8775686,28.5692773 C14.7386331,28.8458039 14.8500056,29.1824986 15.1265322,29.3214342 C15.2072045,29.3619944 15.2930308,29.3812661 15.3776246,29.3812661 C15.5826667,29.3812661 15.7803137,29.2682129 15.8786891,29.0725826 L16.6738711,27.4908459 C16.8128067,27.2143193 16.7013221,26.8776246 16.4249076,26.7386891" id="Fill-13" fill="#55D0A5"></path>
                        <path d="M18.2176246,23.1532549 C17.9413221,23.0143193 17.6044034,23.1256919 17.4654678,23.4021064 L16.6702857,24.9838431 C16.5313501,25.2603697 16.6427227,25.5970644 16.9192493,25.736 C16.9999216,25.7765602 17.0857479,25.7958319 17.1703417,25.7958319 C17.3753838,25.7958319 17.5730308,25.6827787 17.6714062,25.4871485 L18.4665882,23.9054118 C18.6055238,23.6288852 18.4940392,23.2921905 18.2176246,23.1532549" id="Fill-15" fill="#55D0A5"></path>
                        <path d="M54.6003473,31.1330644 C52.9097031,36.1405714 48.9410756,38.7874062 43.1230364,38.7874062 C40.2023641,38.7874062 37.7276303,38.1067339 35.7676303,36.7643249 C33.862084,35.4591148 32.4934566,33.5634286 31.6988347,31.1265658 C31.1058936,29.3476303 30.8459496,27.7532325 30.8459496,19.9541289 C30.8459496,12.154577 31.1058936,10.5602913 31.6999552,8.77788235 C32.4934566,6.34460504 33.862084,4.44891877 35.7676303,3.14359664 C37.7276303,1.80118768 40.2023641,1.12051541 43.1230364,1.12051541 C48.9410756,1.12051541 52.9097031,3.76757423 54.6003473,8.77508123 C55.1441008,10.571944 55.4002353,12.2688627 55.4002353,19.9541289 C55.4002353,27.6390588 55.1441008,29.3360896 54.6003473,31.1330644 Z M55.6648852,8.42538936 C54.761916,5.74572549 53.239451,3.65765826 51.1392829,2.21922689 C48.9893669,0.746733894 46.2923361,6.72268908e-05 43.1230364,6.72268908e-05 C36.8425882,6.72268908e-05 32.4075182,2.99401681 30.6358655,8.42718207 C30.0029244,10.3258936 29.7255014,11.9899832 29.7255014,19.9541289 C29.7255014,27.9179384 30.0029244,29.582028 30.6346331,31.4773782 C32.4075182,36.9139048 36.8425882,39.9078543 43.1230364,39.9078543 C46.2923361,39.9078543 48.9893669,39.1611877 51.1392829,37.6888067 C53.239451,36.2503754 54.761916,34.1623081 55.6648852,31.4826443 L55.6701513,31.4662857 C56.2614118,29.514577 56.5206835,27.8358095 56.5206835,19.9541289 C56.5206835,12.072112 56.2614118,10.3933445 55.6701513,8.4417479 L55.6648852,8.42538936 Z" id="Fill-17" fill="#55D0A5"></path>
                        <path d="M40.6264202,29.5352157 L40.6173445,29.5092213 C40.3172885,28.7089972 40.2123025,27.7348796 40.2123025,19.9540392 C40.2123025,12.1731989 40.3172885,11.1990812 40.6173445,10.3987451 L40.6264202,10.3727507 C40.9913501,9.23235854 41.7613221,8.72378711 43.1231148,8.72378711 C44.5040672,8.72378711 45.3149356,9.24782073 45.6737031,10.3690532 C45.9170644,11.1475406 46.0339272,11.8799776 46.0339272,19.9540392 C46.0339272,28.0281008 45.9170644,28.7605378 45.6749356,29.5352157 C45.3149356,30.6602577 44.5039552,31.1842913 43.1231148,31.1842913 C41.7613221,31.1842913 40.9913501,30.6757199 40.6264202,29.5352157 M46.7431709,29.8730308 C47.0357199,28.9372325 47.1543754,28.2275406 47.1543754,19.9540392 C47.1543754,11.6804258 47.0357199,10.9708459 46.7420504,10.0313501 C46.3876527,8.92367507 45.4721345,7.60333894 43.1231148,7.60333894 C41.2789692,7.60333894 40.0814342,8.41566387 39.563563,10.0179048 C39.2053557,10.9767843 39.0918543,11.7068683 39.0918543,19.9540392 C39.0918543,28.2006499 39.2053557,28.9311821 39.563563,29.8899496 C40.0814342,31.4924146 41.2789692,32.3047395 43.1231148,32.3047395 C45.4720224,32.3047395 46.3875406,30.9844034 46.7431709,29.8730308" id="Fill-19" fill="#55D0A5"></path>
                        <path d="M42.0141849,4.99127171 C42.3624202,4.96740616 42.7354174,4.95541737 43.1230924,4.95541737 C43.5571541,4.95541737 43.9723922,4.97031933 44.3573782,4.99956303 C44.3718319,5.00068347 44.3861737,5.0012437 44.4005154,5.0012437 C44.6905994,5.0012437 44.9360896,4.77760224 44.9584986,4.48359664 C44.982028,4.17513725 44.7509916,3.90589356 44.4424202,3.88247619 C44.0293109,3.85087955 43.5853894,3.83496919 43.1230924,3.83496919 C42.7100952,3.83496919 42.3112157,3.84785434 41.9376583,3.87340056 C41.6289748,3.89457703 41.3959216,4.16191597 41.416986,4.47059944 C41.4381625,4.77928291 41.704493,5.01166387 42.0141849,4.99127171" id="Fill-21" fill="#55D0A5"></path>
                        <path d="M36.4730532,31.8498599 C36.3263866,31.577479 35.9867787,31.4752941 35.7142857,31.6219608 C35.4417927,31.7685154 35.3397199,32.1083473 35.4862745,32.3807283 C35.7845378,32.935014 36.1402801,33.4310364 36.5436415,33.8551261 C36.6537815,33.9709804 36.8015686,34.0292437 36.9496919,34.0292437 C37.0882913,34.0292437 37.2272269,33.9780392 37.3356863,33.874958 C37.559888,33.6617367 37.5687395,33.3071148 37.3555182,33.0829132 C37.0208403,32.7310924 36.7239216,32.3163025 36.4730532,31.8498599" id="Fill-23" fill="#55D0A5"></path>
                        <path d="M40.2924258,4.64485154 C40.2069356,4.34759664 39.8966835,4.17571989 39.5992045,4.26109804 C37.0612773,4.9905098 35.4556751,6.7312381 34.6914174,9.57997759 C34.2470476,11.2000336 34.0896246,13.9147675 34.0896246,19.9540952 C34.0896246,25.9930868 34.2470476,28.7078207 34.6914174,30.3281008 C34.7596527,30.5768403 34.9853109,30.7402017 35.2313613,30.7402017 C35.280437,30.7402017 35.3302969,30.7338151 35.3798207,30.7202577 C35.6781961,30.6383529 35.8537703,30.3301176 35.7719776,30.0317423 C35.3570756,28.5189132 35.2100728,25.8817143 35.2100728,19.9540952 C35.2100728,14.0262521 35.3570756,11.3889412 35.7727619,9.87331092 C36.4365154,7.3992493 37.7506891,5.9582409 39.9086723,5.33807283 C40.2060392,5.25258263 40.377916,4.94221849 40.2924258,4.64485154" id="Fill-25" fill="#55D0A5"></path>
                        <path d="M51.5906779,9.57844258 C50.8098375,6.76141176 49.2320224,5.032 46.7671485,4.29138375 C46.4707899,4.20253221 46.158409,4.37048739 46.0693333,4.66673389 C45.9803697,4.96309244 46.1483249,5.27547339 46.4446835,5.36443697 C48.5377927,5.99334454 49.8294454,7.42538936 50.5089972,9.87065546 C50.8344874,11.1810196 51.0361681,13.3297031 51.0361681,19.9541289 C51.0361681,24.1618599 50.9562801,26.7738487 50.7773445,28.4232605 C50.7439552,28.7309356 50.9662521,29.0072381 51.2738151,29.0406275 C51.2943193,29.0428683 51.3147115,29.0438768 51.3349916,29.0438768 C51.6171204,29.0438768 51.8600336,28.8312157 51.8912941,28.5441569 C52.0747115,26.8530644 52.1566162,24.2037647 52.1566162,19.9541289 C52.1566162,13.2034286 51.9414902,10.984605 51.5943754,9.59256022 C51.5932549,9.58785434 51.5920224,9.58314846 51.5906779,9.57844258" id="Fill-27" fill="#55D0A5"></path>
                        <path d="M39.9086387,34.5699048 C39.5034846,34.4534902 39.1246611,34.3071597 38.7827003,34.1350588 C38.5063978,33.9957871 38.169479,34.1072717 38.0303193,34.3835742 C37.8912717,34.6599888 38.0025322,34.9967955 38.2789468,35.1358431 C38.6830924,35.3392045 39.1272381,35.5110812 39.5991709,35.6467675 C39.6509356,35.6616695 39.7029244,35.6687283 39.7542409,35.6687283 C39.9976022,35.6687283 40.2216919,35.5087283 40.2923922,35.2631261 C40.3777703,34.9656471 40.2060056,34.655395 39.9086387,34.5699048" id="Fill-29" fill="#55D0A5"></path>
                        <path d="M51.1433725,29.8816359 C50.8467899,29.7926723 50.5346331,29.9605154 50.4455574,30.2568739 C50.3262297,30.6541849 50.1877423,31.0283025 50.0340168,31.3693669 C49.9068459,31.6514958 50.0324482,31.9832605 50.314577,32.1104314 C50.3893109,32.1440448 50.4674062,32.1599552 50.544381,32.1599552 C50.7580504,32.1599552 50.961972,32.0371541 51.0554174,31.8298711 C51.2293109,31.4441008 51.3850532,31.0233725 51.5186106,30.579451 C51.6076863,30.2830924 51.4397311,29.9707115 51.1433725,29.8816359" id="Fill-31" fill="#55D0A5"></path>
                        <path d="M49.0249188,32.9577255 C48.7397647,33.2773894 48.4158431,33.5596303 48.0623417,33.7967171 C47.8053109,33.969042 47.7367395,34.3170532 47.9091765,34.574084 C48.0171877,34.7352045 48.1943305,34.8223754 48.3748347,34.8223754 C48.4821737,34.8223754 48.5906331,34.791451 48.6864314,34.7272493 C49.118028,34.4378375 49.513098,34.0935238 49.8608852,33.7037199 C50.0669356,33.4729076 50.0467675,33.1187339 49.8159552,32.9127955 C49.5850308,32.7068571 49.2307451,32.7269132 49.0249188,32.9577255" id="Fill-33" fill="#55D0A5"></path>
                        <path d="M43.1230812,34.9525378 C42.6390476,34.9525378 42.1779832,34.9336022 41.7528852,34.8964034 C41.4447619,34.8671597 41.1728291,35.0971877 41.1459384,35.405535 C41.1188235,35.7137703 41.3468347,35.985479 41.65507,36.0124818 C42.112549,36.0525938 42.6065546,36.072986 43.1230812,36.072986 C43.432437,36.072986 43.6833053,35.8222297 43.6833053,35.5127619 C43.6833053,35.2032941 43.432437,34.9525378 43.1230812,34.9525378" id="Fill-35" fill="#55D0A5"></path>
                        <path d="M46.546958,34.5120224 C46.1033725,34.6524146 45.6085826,34.7603137 45.0763697,34.8326947 C44.7698151,34.8743754 44.5551373,35.1567283 44.5968179,35.4632829 C44.6350252,35.7442913 44.8753613,35.9481008 45.1512157,35.9481008 C45.1764258,35.9481008 45.2018599,35.9464202 45.2274062,35.9429468 C45.8228123,35.8619384 46.3805714,35.7399216 46.8851092,35.5801457 C47.1800112,35.4868123 47.3434846,35.1720784 47.2501513,34.8770644 C47.1567059,34.5820504 46.8418599,34.418465 46.546958,34.5120224" id="Fill-37" fill="#55D0A5"></path>
                        <path d="M79.3738487,20.2810196 L79.3532325,20.3368179 C79.3159216,20.4583866 79.2567619,20.577042 78.9853894,20.577042 C78.6663978,20.577042 78.6090308,20.4172661 78.5858375,20.3426443 C78.5390028,20.1759216 78.5084146,19.9077983 78.5084146,17.9921681 C78.5084146,16.1288627 78.5377703,15.8466218 78.5859496,15.6438207 C78.6521681,15.4765378 78.8384986,15.4407955 78.9853894,15.4407955 C79.2842129,15.4407955 79.3336246,15.5888067 79.3573782,15.6599552 L79.3642129,15.679451 C79.4324482,15.8615238 79.4623641,16.1352493 79.4623641,17.9921681 C79.4623641,19.7736807 79.4350252,20.1380504 79.3738487,20.2810196 M78.9853894,14.3203473 C78.2823081,14.3203473 77.719619,14.6978263 77.5171541,15.3056695 L77.5050532,15.3467899 C77.4183305,15.6935686 77.3879664,15.9930644 77.3879664,17.9921681 C77.3879664,20.0458375 77.4196751,20.339619 77.5098711,20.6555854 L77.5131204,20.6663417 C77.7088627,21.3023081 78.2730084,21.6974902 78.9853894,21.6974902 C79.67693,21.6974902 80.2091429,21.3237087 80.4148571,20.6956975 C80.5527843,20.3627003 80.5828123,20.0505434 80.5828123,17.9921681 C80.5828123,15.9631485 80.5512157,15.6574902 80.4167619,15.2953613 C80.2085826,14.684605 79.6743529,14.3203473 78.9853894,14.3203473" id="Fill-39" fill="#55D0A5"></path>
                        <g id="Group-43" transform="translate(73.501401, 11.336471)">
                            <mask id="mask-2" fill="white">
                                <use xlink:href="#path-1"></use>
                            </mask>
                            <g id="Clip-42"></g>
                            <path d="M9.46751821,9.62961345 C8.96701401,11.1897255 7.51502521,12.0845154 5.4839888,12.0845154 C3.43368067,12.0845154 2.00701401,11.2114622 1.46594958,9.62614006 C1.29205602,9.07431933 1.15939496,8.50109804 1.15939496,6.65571989 C1.15939496,4.81381513 1.29810644,4.21829692 1.46606162,3.68507563 C2.00701401,2.0997535 3.43368067,1.22681232 5.4839888,1.22681232 C7.51502521,1.22681232 8.96701401,2.12160224 9.46662185,3.6792493 C9.65384874,4.27219048 9.80880672,4.90535574 9.80880672,6.65571989 C9.80880672,8.41280672 9.66695798,8.99756863 9.46751821,9.62961345 M10.5342969,3.33941737 C9.8849972,1.3149916 7.99692997,0.106364146 5.4839888,0.106364146 C2.95087955,0.106364146 1.0990028,1.2814902 0.403204482,3.33045378 L0.399282913,3.3419944 C0.165557423,4.0824986 0.0389467787,4.83006162 0.0389467787,6.65571989 C0.0389467787,8.49168627 0.160291317,9.21202241 0.399394958,9.96933333 L0.403204482,9.98087395 C1.0990028,12.0298375 2.95087955,13.2049636 5.4839888,13.2049636 C7.99692997,13.2049636 9.8849972,11.9963361 10.5350812,9.96933333 C10.7583866,9.26221849 10.9292549,8.56910924 10.9292549,6.65571989 C10.9292549,4.74569188 10.7507675,4.02501961 10.5342969,3.33941737" id="Fill-41" fill="#55D0A5" mask="url(#mask-2)"></path>
                        </g>
                        <path d="M60.3125602,9.65361345 C60.144605,9.12072829 60.0058936,8.52543417 60.0058936,6.68308123 C60.0058936,4.84095238 60.144605,4.24565826 60.3126723,3.71266106 C60.8461176,2.15030812 62.3100952,1.25428571 64.3304874,1.25428571 C66.3616359,1.25428571 67.8135126,2.14907563 68.3140168,3.70918768 L68.3217479,3.73170868 C68.5042689,4.22694678 68.6553053,4.79086835 68.6553053,6.68308123 C68.6553053,8.57563025 68.5042689,9.13943978 68.3217479,9.63445378 L68.3140168,9.65708683 C67.8136246,11.2173109 66.3616359,12.1119888 64.3304874,12.1119888 C62.3099832,12.1119888 60.8458936,11.2160784 60.3125602,9.65361345 M69.377098,10.0108123 C69.6356975,9.30571429 69.7757535,8.56162465 69.7757535,6.68308123 C69.7757535,4.80487395 69.6356975,4.06078431 69.377098,3.35546218 C68.7243249,1.33787115 66.8388347,0.133837535 64.3304874,0.133837535 C61.8348011,0.133837535 59.9354174,1.33910364 59.2498151,3.35792717 L59.2460056,3.36935574 C59.0121681,4.10985994 58.8854454,4.85719888 58.8854454,6.68308123 C58.8854454,8.50918768 59.0121681,9.25663866 59.2460056,9.99691877 L59.2498151,10.0083473 C59.9354174,12.0272829 61.8346891,13.232437 64.3304874,13.232437 C66.8388347,13.232437 68.724437,12.0284034 69.377098,10.0108123" id="Fill-44" fill="#55D0A5"></path>
                        <path d="M63.9288403,9.02577031 C63.8844706,8.86218487 63.8535462,8.56302521 63.8535462,6.68313725 C63.8535462,4.80302521 63.8844706,4.50420168 63.9288403,4.34072829 C64.0082801,4.12212885 64.235395,4.09826331 64.330521,4.09826331 C64.5239104,4.09826331 64.6539944,4.18173669 64.7373557,4.35988796 C64.7789244,4.52907563 64.8076078,4.87428571 64.8076078,6.68313725 C64.8076078,8.49187675 64.7789244,8.83719888 64.7372437,9.0064986 C64.6539944,9.1847619 64.5240224,9.2680112 64.330521,9.2680112 C64.235395,9.2680112 64.0082801,9.24414566 63.9288403,9.02577031 M65.7845266,9.40795518 L65.8060392,9.34655462 C65.8945546,9.03686275 65.928056,8.72694678 65.928056,6.68313725 C65.928056,4.63932773 65.8945546,4.32952381 65.8060392,4.01971989 L65.7845266,3.95843137 C65.5288403,3.34442577 64.9853109,2.97781513 64.330521,2.97781513 C63.6449188,2.97781513 63.0685602,3.37781513 62.8622857,3.99663866 L62.8551148,4.01971989 C62.7665994,4.32952381 62.733098,4.63932773 62.733098,6.68313725 C62.733098,8.72694678 62.7665994,9.03686275 62.8551148,9.34655462 L62.8622857,9.3697479 C63.0685602,9.98868347 63.6449188,10.3884594 64.330521,10.3884594 C64.9853109,10.3884594 65.5288403,10.0219608 65.7845266,9.40795518" id="Fill-46" fill="#55D0A5"></path>
                        <path d="M66.6213109,23.5024202 C66.6075294,23.5265098 66.5966611,23.5432045 66.5888179,23.554521 C66.584,23.5547451 66.5785098,23.5548571 66.5723473,23.5548571 L63.8029356,23.5548571 L76.7269692,1.17502521 L76.7282017,1.17278431 C76.7419832,1.14880672 76.7528515,1.13211204 76.7606947,1.12079552 C76.7654006,1.12057143 76.7708908,1.12045938 76.7771653,1.12045938 L79.546465,1.12045938 L66.6213109,23.5024202 Z M80.8346443,0.377266106 C80.7008627,0.14107563 80.4473053,1.12044818e-05 80.156437,1.12044818e-05 L76.7771653,1.12044818e-05 C76.1782857,1.12044818e-05 75.9075854,0.351047619 75.7561008,0.615585434 L62.5453445,23.492112 C62.3823193,23.7638207 62.366521,24.0702633 62.5035518,24.3122801 C62.6321793,24.539619 62.8774454,24.6753053 63.1595742,24.6753053 L66.5723473,24.6753053 C67.1720112,24.6753053 67.4425994,24.3232605 67.5928515,24.0605154 L80.804056,1.18320448 C80.9608067,0.921915966 80.9723473,0.620627451 80.8346443,0.377266106 Z" id="Fill-48" fill="#55D0A5"></path>
                    </g>
                </g>
            </g>
        </g>
    </g>
</svg>
