<?xml version="1.0" encoding="utf-8"?>
<!-- Generator: Adobe Illustrator 22.1.0, SVG Export Plug-In . SVG Version: 6.00 Build 0)  -->
<svg version="1.1" id="Layer_1" xmlns="http://www.w3.org/2000/svg" xmlns:xlink="http://www.w3.org/1999/xlink" x="0px" y="0px"
	 viewBox="0 0 670.5 356.2" style="enable-background:new 0 0 670.5 356.2;" xml:space="preserve">
<style type="text/css">
	.st0{fill:#FF8626;}
</style>
<title>3x-plus</title>
<g id="Layer_2_1_">
	<g id="Layer_1-2">
		<path class="st0" d="M197.4,166.4c22.3-17.1,34.4-41.4,34.4-69c0-27.6-10.6-52.4-29.9-69.7C181.7,9.6,152.9,0,118.7,0
			C87.2,0,59.8,8.5,39.4,24.5C20.1,39.7,7.4,61.2,2.6,86.8c-0.5,2.6,0,5.2,1.4,7.4c1.5,2.3,3.9,3.9,6.7,4.2l65.4,10.3
			c5.2,0.9,10.1-2.5,11.1-7.7c0,0,0-0.1,0-0.1c3.7-15.4,12.9-23.1,27.1-23.1c16.3,0,26.5,10.7,26.5,27.9c0,18.7-10.9,29.4-29.9,29.4
			H98.5c-5.3-0.2-9.7,4-9.9,9.3c0,0.2,0,0.4,0,0.7v57c-0.2,5.3,4,9.7,9.3,9.9c0.2,0,0.4,0,0.7,0h13.3c22.1,0,34.8,12.5,34.8,34.3
			c0,20-11,31.9-29.4,31.9c-20.4,0-28.6-12.8-32-23.7c-0.5-2.6-2-4.8-4.2-6.3c-2.2-1.4-4.8-1.9-7.4-1.4L8.2,257.7l0,0
			c-2.7,0.4-5.1,1.9-6.6,4.2c-1.4,2.2-1.9,4.8-1.4,7.4c8.8,53.5,54.4,86.8,119,86.8c69.8,0,118.6-44.5,118.6-108.3
			C237.8,200,213,176.5,197.4,166.4z M77.8,103.9l-0.1-5c0,0,0.1,0,0.1,0L77.8,103.9z M197.7,318.7c-19.5,17.7-47.4,27.5-78.5,27.5
			c-59.3,0-101.2-30-109.1-78.4c0-0.1,0-0.1,0-0.2l65.2-10.8c0.1,0,0.1,0,0.2,0l0.1,0.5c6.1,20,20.9,31.1,41.7,31.1
			c23.9,0,39.4-16.4,39.4-41.9c0-27.3-17.2-44.3-44.8-44.3H98.6v-56.9h12.2c24.6,0,39.9-15.1,39.9-39.4c0-23.1-14.3-37.9-36.5-37.9
			c-18.9,0-32,11-36.8,30.9l0,0.1L12.5,88.6c0,0,0-0.1,0-0.1C21.6,39.4,61.3,10,118.7,10c31.7,0,58.2,8.7,76.6,25.2
			c17.4,15.6,26.6,37.1,26.6,62.2c0,26.8-12.3,49.1-35.6,64.7l-2.2,1.5v6.7l2.7,1.4c37.1,19.4,41.1,59.8,41.1,76.2
			C227.8,276.4,217.4,300.8,197.7,318.7z"/>
		<path class="st0" d="M51.3,284.1c-1.6-2.2-4.8-2.7-7-1.1c-2.2,1.6-2.7,4.8-1.1,7c0,0,0,0,0,0c3.5,4.7,7.5,9,12,12.8
			c2.1,1.8,5.3,1.5,7-0.6c1.8-2.1,1.5-5.3-0.6-7C57.9,292,54.4,288.3,51.3,284.1z"/>
		<path class="st0" d="M97.2,311.2c-7.4-1.3-14.6-3.6-21.4-6.9c-2.5-1.2-5.5-0.2-6.7,2.3c-1.2,2.5-0.2,5.5,2.3,6.7
			c7.6,3.7,15.7,6.3,24.1,7.7c0.3,0.1,0.6,0.1,0.9,0.1c2.8,0,5-2.2,5-5C101.3,313.7,99.5,311.6,97.2,311.2z"/>
		<path class="st0" d="M124.4,33.8c-3.2-0.2-6.6-0.3-10.1-0.3c-30.7,0-55.9,12.5-71,35.2c-1.5,2.3-0.9,5.4,1.4,6.9
			c2.3,1.5,5.4,0.9,6.9-1.4c0,0,0,0,0,0c13.3-20.1,35-30.8,62.6-30.8c3.3,0,6.5,0.1,9.5,0.3c2.8,0.2,5.1-1.9,5.3-4.7
			S127.1,33.9,124.4,33.8L124.4,33.8L124.4,33.8z"/>
		<path class="st0" d="M163,53.9c2.8,0,5-2.2,5-5c0-1.8-0.9-3.4-2.5-4.3c-5.7-3.2-11.7-5.7-18-7.3c-2.7-0.7-5.4,0.9-6.1,3.5
			c-0.7,2.7,0.9,5.4,3.5,6.1c0,0,0,0,0,0c5.4,1.4,10.7,3.5,15.6,6.2C161.3,53.6,162.1,53.9,163,53.9z"/>
		<path class="st0" d="M138.2,310.5c-7.8,1.5-15.7,2.3-23.6,2.2c-2.8,0-5,2.2-5,5s2.2,5,5,5c8.6,0,17.1-0.8,25.5-2.4
			c2.7-0.5,4.5-3.2,3.9-5.9C143.5,311.7,140.9,309.9,138.2,310.5L138.2,310.5z"/>
		<path class="st0" d="M170.3,189.4c-6.9-6.5-14.6-12.1-22.8-16.7c7.8-6.2,15-13.1,21.5-20.7c18.2-21.3,26.3-43.9,23.4-65.4
			c-1-8.7-3.9-17.1-8.4-24.5c-1.5-2.3-4.5-3.1-6.9-1.6c-2.3,1.5-3.1,4.5-1.6,6.9c3.8,6.3,6.1,13.3,7,20.6
			c5.5,40.3-36.1,73.2-45.4,80.1h-20.3c-2.8,0-5,2.2-5,5s2.2,5,5,5h19.2c0.1,0,0.1,0.1,0.2,0.1c0.6,0.2,55.2,23,52.9,79.8
			c-0.2,7.6-2.1,15.1-5.5,21.9c-1.3,2.5-0.3,5.5,2.2,6.7c2.5,1.3,5.5,0.3,6.7-2.2c0,0,0,0,0,0c4-8.1,6.3-17,6.5-26
			C200,232,190.1,208.1,170.3,189.4z"/>
		<path class="st0" d="M173.2,293.6c-5.2,4.8-11.2,8.7-17.7,11.5c-2.5,1.1-3.7,4.1-2.6,6.6s4.1,3.7,6.6,2.6c0,0,0,0,0,0
			c7.6-3.2,14.5-7.8,20.5-13.4c2-1.9,2.1-5.1,0.2-7.1C178.4,291.9,175.2,291.8,173.2,293.6z"/>
		<path class="st0" d="M662.3,63.2H618v-45c0.1-4.5-3.4-8.1-7.9-8.2c-0.1,0-0.2,0-0.4,0h-40.2c-4.5-0.1-8.1,3.4-8.2,7.9
			c0,0.1,0,0.2,0,0.4v45H517c-4.5-0.1-8.1,3.4-8.2,7.9c0,0.1,0,0.2,0,0.4v38.9c-0.1,4.5,3.4,8.1,7.9,8.2c0.1,0,0.2,0,0.4,0h44.3v45
			c-0.1,4.5,3.4,8.1,7.9,8.2c0.1,0,0.2,0,0.4,0h40.2c4.5,0.1,8.1-3.4,8.2-7.9c0-0.1,0-0.2,0-0.4v-45h44.3c4.5,0.1,8.1-3.4,8.2-7.9
			c0-0.1,0-0.2,0-0.4V71.4c0.1-4.5-3.4-8.1-7.9-8.2C662.5,63.2,662.4,63.2,662.3,63.2z M660.5,108.6h-45.6c-3.7-0.2-6.8,2.7-6.9,6.3
			c0,0.2,0,0.4,0,0.6v46.2h-36.7v-46.2c0.2-3.7-2.7-6.8-6.3-6.9c-0.2,0-0.4,0-0.6,0h-45.6V73.2h45.6c3.7,0.2,6.8-2.7,6.9-6.3
			c0-0.2,0-0.4,0-0.6V20H608v46.2c-0.2,3.7,2.7,6.8,6.3,6.9c0.2,0,0.4,0,0.6,0h45.6V108.6z"/>
		<path class="st0" d="M498.2,334.2L419.4,218l72.4-107.8c0-0.1,0.1-0.1,0.1-0.2c1.6-2.5,1.8-5.7,0.4-8.4c-0.9-1.5-3.1-4.1-8.1-4.1
			H407c-4.9-0.1-9.5,2.5-12,6.7c0,0,0,0.1-0.1,0.1l-26,41.3l-25.5-41.2c-3.6-6.1-8.6-6.9-12.2-6.9h-78.2c-5,0-7.3,2.6-8.1,4.1
			c-1.4,2.7-1.2,5.9,0.4,8.4c0,0.1,0.1,0.1,0.1,0.2L317.9,218l-78.3,116.2c0,0.1-0.1,0.1-0.1,0.2c-2.5,3.6-1.6,8.6,2,11.1
			c1.5,1.1,3.4,1.6,5.3,1.4h77.7c5.2,0,8.6-1.9,11.9-6.5c0.1-0.1,0.1-0.1,0.2-0.2l31.9-50.3l31.9,50.3c0,0.1,0.1,0.2,0.2,0.2
			c3.3,4.6,6.8,6.5,11.9,6.5h78.2c3.2,0.1,6.3-1.5,8-4.2c1.4-2.6,1.3-5.8-0.3-8.2C498.3,334.3,498.2,334.2,498.2,334.2z
			 M412.4,336.9c-1.6,0-2.1,0-3.7-2.2l-35.8-56.4c-0.9-1.4-2.5-2.3-4.2-2.3h-0.5c-1.7,0-3.3,0.9-4.2,2.3l-35.8,56.4
			c-1.6,2.2-2.2,2.2-3.7,2.2h-74.6l78.2-116.1c1.1-1.7,1.1-3.9,0-5.6l-72.3-107.8h75.5c2,0,2.6,0.3,3.5,1.9c0,0,0.1,0.1,0.1,0.1
			l29.5,47.7c0.9,1.5,2.5,2.4,4.3,2.4h0.5c1.7,0,3.3-0.9,4.2-2.3l30-47.6c1.2-1.8,2.2-2.1,3.7-2.1h74.6l-72.3,107.8
			c-1.1,1.7-1.1,3.9,0,5.6l78.7,116.1L412.4,336.9z"/>
		<path class="st0" d="M434.2,321.5c1.6,2.3,4.7,2.8,7,1.2c2.3-1.6,2.8-4.7,1.2-7l0,0l-11.3-16c-1.6-2.3-4.7-2.8-7-1.2
			c-2.3,1.6-2.8,4.7-1.2,7L434.2,321.5z"/>
		<path class="st0" d="M400.3,264.8c-2.3,1.6-2.8,4.7-1.2,7l11.3,16c1.6,2.3,4.7,2.8,7,1.2c2.3-1.6,2.8-4.7,1.2-7l0,0l-11.3-16
			C405.7,263.8,402.6,263.3,400.3,264.8z"/>
		<path class="st0" d="M383.5,232.4c-1.6-2.3-4.7-2.8-7-1.2c-2.3,1.6-2.8,4.7-1.2,7l11.3,16c1.6,2.3,4.7,2.8,7,1.2
			c2.3-1.6,2.8-4.7,1.2-7l0,0L383.5,232.4z"/>
		<path class="st0" d="M312.9,297.6c-2.3-1.6-5.4-1-7,1.2l-11.3,16c-1.6,2.3-1,5.4,1.2,7s5.4,1,7-1.2l11.3-16
			C315.7,302.3,315.2,299.2,312.9,297.6z"/>
		<path class="st0" d="M336.7,263.9c-2.3-1.6-5.4-1-7,1.2l-11.3,16c-1.6,2.3-1,5.4,1.2,7s5.4,1,7-1.2l11.3-16
			C339.5,268.6,338.9,265.5,336.7,263.9z"/>
		<path class="st0" d="M360.4,230.2c-2.3-1.6-5.4-1-7,1.2l-11.3,16c-1.6,2.3-1,5.4,1.2,7s5.4,1,7-1.2l11.3-16
			C363.2,234.9,362.7,231.8,360.4,230.2z"/>
		<path class="st0" d="M438,119.9c-2.3-1.6-5.4-1-7,1.2l-62.9,89.4l-62.4-88.3c-1.6-2.3-4.7-2.8-7-1.2c-2.3,1.6-2.8,4.7-1.2,7
			l66.5,94.1c0.1,0.2,0.3,0.4,0.4,0.5c0,0,0.1,0.1,0.1,0.1c0.2,0.2,0.4,0.4,0.6,0.6c0,0,0,0,0.1,0.1c0,0,0,0,0,0
			c0.2,0.1,0.4,0.3,0.6,0.4c0,0,0.1,0,0.1,0.1c0.2,0.1,0.3,0.1,0.5,0.2c0.1,0,0.2,0.1,0.2,0.1c0.1,0,0.3,0.1,0.4,0.1
			c0.1,0,0.2,0,0.2,0c0.2,0,0.4,0,0.6,0l0,0h0l0,0c0.2,0,0.4,0,0.6,0c0.1,0,0.2,0,0.2,0c0.1,0,0.3-0.1,0.4-0.1c0.1,0,0.2,0,0.2-0.1
			c0.2-0.1,0.3-0.1,0.5-0.2c0,0,0.1,0,0.1-0.1c0.2-0.1,0.4-0.2,0.6-0.4c0,0,0,0,0,0c0,0,0,0,0.1-0.1c0.2-0.2,0.4-0.4,0.6-0.6
			c0,0,0.1,0,0.1-0.1c0.2-0.2,0.3-0.3,0.4-0.5l67-95.2C440.8,124.6,440.3,121.5,438,119.9z"/>
	</g>
</g>
</svg>
