<?xml version="1.0" encoding="UTF-8"?>
<svg width="133px" height="45px" viewBox="0 0 133 45" version="1.1" xmlns="http://www.w3.org/2000/svg" xmlns:xlink="http://www.w3.org/1999/xlink">
    <!-- Generator: Sketch 48.2 (47327) - http://www.bohemiancoding.com/sketch -->
    <title>18b-plus</title>
    <desc>Created with Sketch.</desc>
    <defs>
        <polygon id="path-1" points="0 0.0392394958 16.0559244 0.0392394958 16.0559244 27.7042815 0 27.7042815"></polygon>
    </defs>
    <g id="Home" stroke="none" stroke-width="1" fill="none" fill-rule="evenodd" transform="translate(-347.000000, -4001.000000)">
        <g id="Stats" transform="translate(0.000000, 3833.000000)">
            <g id="Stat-2" transform="translate(347.000000, 168.000000)">
                <g id="18b-plus" transform="translate(0.000000, 0.000000)">
                    <path d="M57.0881597,35.0823782 C54.5762269,35.0823782 52.8218571,33.3278824 52.8218571,30.8158235 C52.8218571,28.2674622 54.5762269,26.4875042 57.0881597,26.4875042 C59.6002185,26.4875042 61.3547143,28.2674622 61.3547143,30.8158235 C61.3547143,33.3278824 59.6002185,35.0823782 57.0881597,35.0823782 M57.0881597,25.227 C53.8857227,25.227 51.5613529,27.5774622 51.5613529,30.8158235 C51.5613529,34.0185126 53.8857227,36.3428824 57.0881597,36.3428824 C60.2907227,36.3428824 62.6152185,34.0185126 62.6152185,30.8158235 C62.6152185,27.5774622 60.2907227,25.227 57.0881597,25.227" id="Fill-1" fill="#FF8626"></path>
                    <path d="M57.0881597,9.81419748 C59.1292941,9.81419748 60.6108908,11.2956681 60.6108908,13.3366765 C60.6108908,15.377937 59.1292941,16.8595336 57.0881597,16.8595336 C55.0506807,16.8595336 53.6276975,15.4108361 53.6276975,13.3366765 C53.6276975,11.2626429 55.0506807,9.81419748 57.0881597,9.81419748 M57.0881597,18.1200378 C59.8151345,18.1200378 61.871395,16.0636513 61.871395,13.3366765 C61.871395,10.6098277 59.8151345,8.55369328 57.0881597,8.55369328 C54.3526134,8.55369328 52.3671933,10.5652059 52.3671933,13.3366765 C52.3671933,16.1083992 54.3526134,18.1200378 57.0881597,18.1200378" id="Fill-3" fill="#FF8626"></path>
                    <path d="M67.2568866,40.267563 C64.6906261,42.4395378 61.0791555,43.6358824 57.0881471,43.6358824 C53.0972647,43.6358824 49.4860462,42.4395378 46.9196597,40.267563 C44.2525588,38.0101261 42.8426849,34.8704622 42.8426849,31.1878992 C42.8426849,26.112605 45.7032731,23.352479 47.4083571,22.1587815 L47.6772227,21.9707143 L47.6772227,21.2093697 L47.4328109,21.0201681 C46.5741555,20.3552521 43.7723067,17.8228992 43.7723067,13.1508403 C43.7723067,9.9589916 45.0001639,7.01331933 47.2294916,4.85647059 C49.6612563,2.5039916 53.0702899,1.2605042 57.0881471,1.2605042 C61.1061303,1.2605042 64.5152899,2.5039916 66.9469286,4.85647059 C69.1765084,7.01331933 70.4042395,9.9589916 70.4042395,13.1508403 C70.4042395,17.8677731 67.6497857,20.3664706 66.8056261,21.020042 L66.5610882,21.2093697 L66.5610882,21.9707143 L66.8299538,22.1589076 C68.5120966,23.3362185 71.3338613,26.0746639 71.3338613,31.1878992 C71.3338613,34.8704622 69.9239874,38.0101261 67.2568866,40.267563 M68.1239874,21.552605 C69.3883992,20.3884034 71.6647437,17.6635714 71.6647437,13.1508403 C71.6647437,9.6142437 70.3005,6.34689076 67.8233571,3.95054622 C65.1519706,1.36613445 61.4397857,0 57.0881471,0 C52.7367605,0 49.0245756,1.36613445 46.3531891,3.95054622 C43.8760462,6.34689076 42.5118025,9.6142437 42.5118025,13.1508403 C42.5118025,17.6336975 44.8310042,20.3789496 46.113063,21.5528571 C44.2027689,23.0669748 41.5821807,26.0764286 41.5821807,31.1878992 C41.5821807,39.2591597 47.9584412,44.8963866 57.0881471,44.8963866 C66.217979,44.8963866 72.5943655,39.2591597 72.5943655,31.1878992 C72.5943655,26.0469328 70.0108361,23.0531092 68.1239874,21.552605" id="Fill-5" fill="#FF8626"></path>
                    <path d="M54.9102227,5.79621429 C54.9519454,5.79621429 54.9944244,5.79205462 55.0370294,5.78323109 C56.3915672,5.50655042 57.8397605,5.50642437 59.1968193,5.78335714 C59.5390462,5.85281092 59.8708109,5.63297899 59.9403908,5.29188655 C60.0099706,4.95079412 59.7898866,4.61789496 59.4489202,4.54831513 C57.926105,4.23785294 56.3047185,4.23797899 54.7846765,4.54844118 C54.4437101,4.61802101 54.2237521,4.95092017 54.2933319,5.29201261 C54.3543403,5.5905 54.6169034,5.79621429 54.9102227,5.79621429" id="Fill-7" fill="#FF8626"></path>
                    <path d="M65.2639538,35.7936303 C64.3150462,36.9166134 63.0473571,37.8372857 61.5981555,38.4559412 C61.2779874,38.5925798 61.1292479,38.962916 61.2658866,39.283084 C61.3681134,39.5224538 61.6009286,39.6660252 61.8458445,39.6660252 C61.9284076,39.6660252 62.0123571,39.6497647 62.0930294,39.6152269 C63.7222311,38.9198067 65.1515168,37.8796387 66.2268529,36.6070336 C66.4514748,36.3413193 66.4179454,35.9435042 66.152105,35.7188824 C65.8862647,35.4941345 65.4885756,35.5277899 65.2639538,35.7936303" id="Fill-9" fill="#FF8626"></path>
                    <path d="M60.9901891,21.6722899 C64.739937,20.3278361 67.389895,17.0945168 67.389895,13.3268697 C67.389895,9.89514706 65.1106513,6.70934874 61.5835084,5.21060924 C61.2637185,5.07447479 60.8931303,5.22397059 60.7569958,5.54426471 C60.6208613,5.86455882 60.7702311,6.23451681 61.0906513,6.37065126 C64.1985504,7.69128151 66.1293908,10.3567437 66.1293908,13.3268697 C66.1293908,17.6013655 62.0861975,21.0789706 57.1167857,21.0789706 C52.1472479,21.0789706 48.1041807,17.6013655 48.1041807,13.3268697 C48.1041807,10.3803151 50.0129622,7.72430672 53.0859454,6.39523109 C53.4053571,6.25707983 53.5523319,5.88611345 53.4140546,5.56657563 C53.2759034,5.24716387 52.9054412,5.09968487 52.5853992,5.23834034 C49.0438866,6.77010504 46.8436765,9.86955882 46.8436765,13.3268697 C46.8436765,17.0945168 49.4936345,20.3278361 53.2433824,21.6722899 C48.924895,23.0434664 45.8352731,26.6390546 45.8352731,30.8478782 C45.8352731,32.0082983 46.0687185,33.1445168 46.5291807,34.224895 C46.6314076,34.4645168 46.8643487,34.6082143 47.1092647,34.6082143 C47.1917017,34.6082143 47.2755252,34.5919538 47.3560714,34.5576681 C47.6763655,34.4211555 47.8253571,34.0509454 47.6888445,33.7307773 C47.2953151,32.807458 47.0957773,31.8375 47.0957773,30.8478782 C47.0957773,26.1562815 51.5911134,22.3394748 57.1167857,22.3394748 C62.6423319,22.3394748 67.1377941,26.1562815 67.1377941,30.8478782 C67.1377941,31.7475 66.9722899,32.6337605 66.6455672,33.4820798 C66.5205252,33.8070378 66.6825,34.1717017 67.0072059,34.2967437 C67.3317857,34.4217857 67.6968277,34.260063 67.8218697,33.935105 C68.2043067,32.9415756 68.3982983,31.9029202 68.3982983,30.8478782 C68.3982983,26.6390546 65.3086765,23.0434664 60.9901891,21.6722899" id="Fill-11" fill="#FF8626"></path>
                    <path d="M52.6989202,38.4827899 C51.3097185,37.9003109 50.0777017,37.0364874 49.135979,35.9849748 C48.9039202,35.725563 48.5053487,35.7035042 48.2461891,35.9358151 C47.9867773,36.168 47.9647185,36.5664454 48.1970294,36.8257311 C49.2626597,38.0158992 50.6508529,38.9908992 52.2114832,39.6453529 C52.2911471,39.6786303 52.3737101,39.6943866 52.4548866,39.6943866 C52.7013151,39.6943866 52.9351387,39.5491765 53.0364832,39.3077899 C53.170979,38.9867395 53.0199706,38.6174118 52.6989202,38.4827899" id="Fill-13" fill="#FF8626"></path>
                    <path d="M59.4289538,39.127563 C57.9221471,39.4309664 56.3118529,39.4310924 54.804416,39.127563 C54.4631975,39.0586134 54.1309286,39.2797059 54.0622311,39.6209244 C53.9934076,39.9621429 54.2143739,40.2945378 54.5555924,40.3632353 C55.3909286,40.5315126 56.2526092,40.6167227 57.1166849,40.6167227 C57.9810126,40.6167227 58.8426933,40.5315126 59.6779034,40.3632353 C60.0191218,40.2945378 60.2400882,39.9621429 60.1712647,39.6209244 C60.1024412,39.2797059 59.7702983,39.0587395 59.4289538,39.127563" id="Fill-15" fill="#FF8626"></path>
                    <path d="M88.4141471,10.2479874 L92.556542,10.2479874 C96.4478445,10.2479874 96.9468782,12.2300042 96.9468782,13.9566429 C96.9468782,16.4867269 95.5518782,17.6651723 92.556542,17.6651723 L88.4141471,17.6651723 L88.4141471,10.2479874 Z M92.556542,18.9256765 C97.2270882,18.9256765 98.2073824,16.2234076 98.2073824,13.9566429 C98.2073824,10.659416 96.3061639,8.98748319 92.556542,8.98748319 L88.1557437,8.98748319 C87.5563739,8.98748319 87.1536429,9.39021429 87.1536429,9.98971008 L87.1536429,17.9235756 C87.1536429,18.5228193 87.5563739,18.9256765 88.1557437,18.9256765 L92.556542,18.9256765 Z" id="Fill-17" fill="#FF8626"></path>
                    <path d="M97.6286345,30.505916 C97.6286345,33.2932689 96.1519538,34.6483109 93.1143908,34.6483109 L88.4140966,34.6483109 L88.4140966,26.4255378 L93.1143908,26.4255378 C96.0676261,26.4255378 97.6286345,27.8364202 97.6286345,30.505916 Z M88.1558193,25.1650336 C87.5564496,25.1650336 87.1535924,25.5677647 87.1535924,26.1671345 L87.1535924,34.9067143 C87.1535924,35.506084 87.5564496,35.9088151 88.1558193,35.9088151 L93.1143908,35.9088151 C96.8381723,35.9088151 98.8891387,33.9900756 98.8891387,30.505916 C98.8891387,28.873563 98.3735924,27.5229328 97.3982143,26.6003697 C96.3914496,25.6479328 94.950063,25.1650336 93.1143908,25.1650336 L88.1558193,25.1650336 Z" id="Fill-19" fill="#FF8626"></path>
                    <path d="M94.4779916,42.8920966 L77.5051765,42.8920966 L77.5051765,2.00436555 L94.664042,2.00436555 C103.130849,2.00436555 107.793958,5.76482773 107.793958,12.592979 C107.793958,16.483021 106.130849,19.4197437 102.98463,21.0855 C102.778412,21.1946597 102.649336,21.4090714 102.649336,21.6425168 L102.649336,21.7662983 C102.649336,22.028105 102.811059,22.2625588 103.055723,22.355458 C105.784336,23.3924748 108.537655,26.5831891 108.537655,31.3737353 C108.537655,38.8015084 103.544546,42.8920966 94.4779916,42.8920966 M104.510092,21.6440294 C107.450092,19.6925168 109.054462,16.5186933 109.054462,12.592979 C109.054462,8.99776891 107.822067,6.02562605 105.490639,3.99772689 C103.00858,1.83860924 99.3658487,0.743861345 94.664042,0.743861345 L77.4948403,0.743861345 C76.7704286,0.743861345 76.2446723,1.26961765 76.2446723,1.99390336 L76.2446723,42.9025588 C76.2446723,43.6268445 76.7704286,44.1526008 77.4948403,44.1526008 L94.4779916,44.1526008 C99.1718571,44.1526008 102.892109,43.1039874 105.535261,41.0357521 C108.363832,38.8224328 109.79816,35.5715924 109.79816,31.3737353 C109.79816,26.5616345 107.279294,23.1649538 104.510092,21.6440294" id="Fill-21" fill="#FF8626"></path>
                    <path d="M82.0429412,35.7008193 C81.6947899,35.7008193 81.4126891,35.9829202 81.4126891,36.3310714 L81.4126891,39.2366597 C81.4126891,39.5846849 81.6947899,39.8669118 82.0429412,39.8669118 C82.3910924,39.8669118 82.6731933,39.5846849 82.6731933,39.2366597 L82.6731933,36.3310714 C82.6731933,35.9829202 82.3910924,35.7008193 82.0429412,35.7008193" id="Fill-23" fill="#FF8626"></path>
                    <path d="M82.0429412,30.1546008 C81.6947899,30.1546008 81.4126891,30.4367017 81.4126891,30.7848529 L81.4126891,33.6904412 C81.4126891,34.0384664 81.6947899,34.3206933 82.0429412,34.3206933 C82.3910924,34.3206933 82.6731933,34.0384664 82.6731933,33.6904412 L82.6731933,30.7848529 C82.6731933,30.4367017 82.3910924,30.1546008 82.0429412,30.1546008" id="Fill-25" fill="#FF8626"></path>
                    <path d="M82.0429412,24.6085084 C81.6947899,24.6085084 81.4126891,24.8906092 81.4126891,25.2387605 L81.4126891,28.1443487 C81.4126891,28.4923739 81.6947899,28.7746008 82.0429412,28.7746008 C82.3910924,28.7746008 82.6731933,28.4923739 82.6731933,28.1443487 L82.6731933,25.2387605 C82.6731933,24.8906092 82.3910924,24.6085084 82.0429412,24.6085084" id="Fill-27" fill="#FF8626"></path>
                    <path d="M82.0429412,19.0622899 C81.6947899,19.0622899 81.4126891,19.3443908 81.4126891,19.692542 L81.4126891,22.5981303 C81.4126891,22.9461555 81.6947899,23.2283824 82.0429412,23.2283824 C82.3910924,23.2283824 82.6731933,22.9461555 82.6731933,22.5981303 L82.6731933,19.692542 C82.6731933,19.3443908 82.3910924,19.0622899 82.0429412,19.0622899" id="Fill-29" fill="#FF8626"></path>
                    <path d="M82.0429412,13.5160714 C81.6947899,13.5160714 81.4126891,13.7981723 81.4126891,14.1463235 L81.4126891,17.0519118 C81.4126891,17.399937 81.6947899,17.6821639 82.0429412,17.6821639 C82.3910924,17.6821639 82.6731933,17.399937 82.6731933,17.0519118 L82.6731933,14.1463235 C82.6731933,13.7981723 82.3910924,13.5160714 82.0429412,13.5160714" id="Fill-31" fill="#FF8626"></path>
                    <path d="M82.0429412,7.96985294 C81.6947899,7.96985294 81.4126891,8.25195378 81.4126891,8.60010504 L81.4126891,11.5056933 C81.4126891,11.8537185 81.6947899,12.1359454 82.0429412,12.1359454 C82.3910924,12.1359454 82.6731933,11.8537185 82.6731933,11.5056933 L82.6731933,8.60010504 C82.6731933,8.25195378 82.3910924,7.96985294 82.0429412,7.96985294" id="Fill-33" fill="#FF8626"></path>
                    <path d="M100.34192,23.6296387 C99.3757437,22.7636723 98.4142311,22.128 97.7077185,21.7148067 C98.3349454,21.3467395 99.154021,20.7957731 99.9757437,20.0412353 C102.204189,17.9948067 103.38213,15.4192185 103.38213,12.592916 C103.38213,10.2089244 102.698181,8.45505882 101.291332,7.23123529 C99.6355336,5.79098319 96.8644412,5.02951261 93.2774244,5.02951261 L82.0429286,5.02951261 C81.6947773,5.02951261 81.4126765,5.3117395 81.4126765,5.65976471 C81.4126765,6.00791597 81.6947773,6.29001681 82.0429286,6.29001681 L93.2774244,6.29001681 C96.5559958,6.29001681 99.0410798,6.94447059 100.464189,8.18228571 C101.579357,9.1524958 102.121626,10.5952689 102.121626,12.592916 C102.121626,15.0787563 101.122929,17.262958 99.1532647,19.0848908 C97.6517521,20.4738403 96.1206176,21.1207311 96.1061218,21.1267815 C95.8730546,21.223084 95.7201555,21.4492185 95.7170042,21.7013193 C95.7137269,21.9535462 95.861458,22.1834622 96.0920042,22.2856891 C96.1596933,22.3156891 102.86545,25.3571597 102.86545,31.3737983 C102.86545,34.9977479 101.258685,36.2547227 100.730786,36.667916 C99.1100294,37.9359832 96.4683908,38.6063193 93.0913739,38.6063193 L84.8547353,38.6063193 C84.506584,38.6063193 84.2244832,38.8885462 84.2244832,39.2365714 C84.2244832,39.5847227 84.506584,39.8668235 84.8547353,39.8668235 L93.0913739,39.8668235 C96.7525084,39.8668235 99.6627605,39.1039664 101.507508,37.660563 C102.155155,37.1538403 104.125954,35.6119916 104.125954,31.3737983 C104.125954,28.5265714 102.817424,25.8486303 100.34192,23.6296387" id="Fill-35" fill="#FF8626"></path>
                    <path d="M84.2874832,21.7092227 C84.2874832,22.0573739 84.569584,22.3394748 84.9177353,22.3394748 L93.3631134,22.3394748 C93.7112647,22.3394748 93.9933655,22.0573739 93.9933655,21.7092227 C93.9933655,21.3610714 93.7112647,21.0789706 93.3631134,21.0789706 L84.9177353,21.0789706 C84.569584,21.0789706 84.2874832,21.3610714 84.2874832,21.7092227" id="Fill-37" fill="#FF8626"></path>
                    <g id="Group-41" transform="translate(0.000000, 0.274538)">
                        <mask id="mask-2" fill="white">
                            <use xlink:href="#path-1"></use>
                        </mask>
                        <g id="Clip-40"></g>
                        <path d="M9.72151261,23.9462143 C9.42794118,24.0059622 9.21693277,24.2641134 9.21693277,24.5637353 L9.21693277,26.4437773 L7.28533613,26.4437773 L7.28533613,24.7187773 C7.28533613,24.3928109 7.03676471,24.1206681 6.71205882,24.0910462 C4.74289916,23.9120546 2.86084034,23.1986092 1.37760504,22.0723487 L3.54743697,19.4320966 C4.30915966,19.998063 5.82327731,20.9173487 7.61584034,20.9173487 C9.61033613,20.9173487 10.8492857,19.8325588 10.8492857,18.0866345 C10.8492857,16.6809202 9.93567227,15.8450798 8.13882353,15.6031891 L7.47831933,15.5089034 C3.86962185,15.0507101 1.79987395,12.9856261 1.79987395,9.84293697 C1.79987395,6.74335714 3.75466387,4.34613025 6.7797479,3.73554202 C7.07382353,3.67617227 7.28533613,3.41776891 7.28533613,3.11776891 L7.28533613,1.2997437 L9.21693277,1.2997437 L9.21693277,3.05587815 C9.21693277,3.37264286 9.45226891,3.6402479 9.76651261,3.68096218 C11.5559244,3.9117605 12.9616387,4.56192857 13.8847059,5.12083613 L12.0346639,7.79058403 C10.9126891,7.13373529 9.83634454,6.82642437 8.6694958,6.82642437 C6.94815126,6.82642437 5.74588235,7.88839916 5.74588235,9.40907143 C5.74588235,11.2432311 7.30865546,11.6868025 8.48432773,11.8610042 C8.4889916,11.8616345 8.49378151,11.8623908 8.49844538,11.862895 L9.23571429,11.9550378 C12.9248319,12.4543235 14.7954202,14.3817605 14.7954202,17.6836513 C14.7954202,20.9584412 12.8986134,23.2994496 9.72151261,23.9462143 M9.39844538,10.7049958 L8.66205882,10.613105 C7.00651261,10.3662983 7.00638655,9.81306303 7.00638655,9.40907143 C7.00638655,8.43419748 7.86542017,8.08692857 8.6694958,8.08692857 C9.69063025,8.08692857 10.6003361,8.37243277 11.6192017,9.01289496 C11.6229832,9.01528992 11.6266387,9.01755882 11.6305462,9.01982773 C12.0582353,9.27646639 12.5605462,9.18003782 12.8805882,8.78033193 C12.8896639,8.76898739 12.8982353,8.75726471 12.9065546,8.74528992 L15.0627731,5.63411345 C15.2388655,5.41062605 15.3152521,5.14856723 15.2781933,4.89255882 C15.24,4.62986975 15.0865966,4.39655042 14.8389076,4.23155042 C13.9010924,3.62323109 12.4114286,2.85823109 10.477437,2.5149958 L10.477437,0.97944958 C10.477437,0.443483193 10.0731933,0.0392394958 9.53722689,0.0392394958 L6.96504202,0.0392394958 C6.42907563,0.0392394958 6.02483193,0.443483193 6.02483193,0.97944958 L6.02483193,2.61785294 C2.67491597,3.50789496 0.539369748,6.29234874 0.539369748,9.84293697 C0.539369748,13.6346597 3.07411765,16.2203319 7.30978992,16.7581891 L7.96563025,16.8517185 C9.58878151,17.0702899 9.58878151,17.7064664 9.58878151,18.0866345 C9.58878151,19.3844496 8.51596639,19.6568445 7.61584034,19.6568445 C6.48554622,19.6568445 5.16289916,19.1302059 4.07357143,18.2452059 C3.64134454,17.8994496 3.12340336,17.9515084 2.79012605,18.3682311 L0.217815126,21.4983151 C0.21605042,21.500584 0.214285714,21.5026008 0.212521008,21.5048697 C-0.124537815,21.9263824 -0.0525630252,22.5461723 0.370462185,22.8843655 C1.93273109,24.1476429 3.92218487,24.9877689 6.02483193,25.280458 L6.02483193,26.7640714 C6.02483193,27.3000378 6.42907563,27.7042815 6.96504202,27.7042815 L9.53722689,27.7042815 C10.0731933,27.7042815 10.477437,27.3000378 10.477437,26.7640714 L10.477437,25.0637773 C13.9329832,24.1535672 16.0559244,21.3687353 16.0559244,17.6836513 C16.0559244,13.7644916 13.6938655,11.2863403 9.39844538,10.7049958" id="Fill-39" fill="#FF8626" mask="url(#mask-2)"></path>
                    </g>
                    <path d="M36.4637773,42.8920966 L27.3731471,42.8920966 L27.3731471,12.6549958 C27.3731471,12.3068445 27.0910462,12.0247437 26.742895,12.0247437 L26.6188613,12.0247437 C26.4953319,12.0247437 26.3745756,12.0610462 26.2714664,12.1292395 L19.3773908,16.6852059 L19.3773908,7.9442395 C19.3773908,7.79033193 19.3935252,7.71671849 19.5610462,7.57970168 L27.1060462,2.26113025 C27.1165084,2.25381933 27.1265924,2.24613025 27.1365504,2.23818908 C27.3331891,2.0807521 27.5694076,2.00436555 27.8585672,2.00436555 L36.4637773,2.00436555 L36.4637773,42.8920966 Z M36.4742395,0.743861345 L27.8585672,0.743861345 C27.2874328,0.743861345 26.7852479,0.911130252 26.3653739,1.2410042 L18.817979,6.56134034 C18.8075168,6.56877731 18.7974328,6.57646639 18.7874748,6.58440756 C18.3300378,6.95020588 18.1168866,7.38230672 18.1168866,7.9442395 L18.1168866,16.9936513 C18.1168866,17.4507101 18.3150378,17.8187773 18.6602899,18.0035672 C19.0112143,18.1912563 19.4522647,18.1487773 19.8383571,17.8915084 L26.1126429,13.7450798 L26.1126429,42.9025588 C26.1126429,43.6268445 26.6383992,44.1526008 27.3628109,44.1526008 L36.4742395,44.1526008 C37.1985252,44.1526008 37.7242815,43.6268445 37.7242815,42.9025588 L37.7242815,1.99390336 C37.7242815,1.26961765 37.1985252,0.743861345 36.4742395,0.743861345 Z" id="Fill-42" fill="#FF8626"></path>
                    <path d="M31.724458,36.1630462 C31.3763067,36.1630462 31.0942059,36.4451471 31.0942059,36.7932983 L31.0942059,39.6083824 C31.0942059,39.9565336 31.3763067,40.2386345 31.724458,40.2386345 C32.0726092,40.2386345 32.3547101,39.9565336 32.3547101,39.6083824 L32.3547101,36.7932983 C32.3547101,36.4451471 32.0726092,36.1630462 31.724458,36.1630462" id="Fill-44" fill="#FF8626"></path>
                    <path d="M31.724458,30.2386765 C31.3763067,30.2386765 31.0942059,30.5207773 31.0942059,30.8689286 L31.0942059,33.6840126 C31.0942059,34.0321639 31.3763067,34.3142647 31.724458,34.3142647 C32.0726092,34.3142647 32.3547101,34.0321639 32.3547101,33.6840126 L32.3547101,30.8689286 C32.3547101,30.5207773 32.0726092,30.2386765 31.724458,30.2386765" id="Fill-46" fill="#FF8626"></path>
                    <path d="M31.724458,24.3143067 C31.3763067,24.3143067 31.0942059,24.5964076 31.0942059,24.9445588 L31.0942059,27.7596429 C31.0942059,28.1077941 31.3763067,28.389895 31.724458,28.389895 C32.0726092,28.389895 32.3547101,28.1077941 32.3547101,27.7596429 L32.3547101,24.9445588 C32.3547101,24.5964076 32.0726092,24.3143067 31.724458,24.3143067" id="Fill-48" fill="#FF8626"></path>
                    <path d="M21.1241597,11.2302983 C21.3238235,11.5155504 21.7169748,11.5848782 22.0018487,11.3852143 L29.4021429,6.20504622 L31.0942437,6.20504622 L31.0942437,21.8352983 C31.0942437,22.1834496 31.3763445,22.4655504 31.7244958,22.4655504 C32.072521,22.4655504 32.3547479,22.1834496 32.3547479,21.8352983 L32.3547479,5.57479412 C32.3547479,5.22664286 32.072521,4.94454202 31.7244958,4.94454202 L29.2034874,4.94454202 C29.0741597,4.94454202 28.9478571,4.9842479 28.8421008,5.0584916 L21.2790756,10.3526092 C20.9938235,10.5521471 20.9244958,10.9451723 21.1241597,11.2302983" id="Fill-50" fill="#FF8626"></path>
                    <path d="M119.836891,19.3932857 L124.46395,19.3932857 L124.46395,13.5637059 C124.46395,13.0481597 124.82395,12.6881597 125.33937,12.6881597 L131.087395,12.6881597 L131.087395,8.22471429 L125.33937,8.22471429 C124.82395,8.22471429 124.46395,7.86458824 124.46395,7.34904202 L124.46395,1.51946218 L119.836891,1.51946218 L119.836891,7.34904202 C119.836891,7.86458824 119.476891,8.22471429 118.961345,8.22471429 L113.213445,8.22471429 L113.213445,12.6881597 L118.961345,12.6881597 C119.476891,12.6881597 119.836891,13.0481597 119.836891,13.5637059 L119.836891,19.3932857 Z M124.685294,20.6537899 L119.61542,20.6537899 C119.023109,20.6537899 118.576387,20.2070672 118.576387,19.6146303 L118.576387,13.9486639 L112.991975,13.9486639 C112.399664,13.9486639 111.952941,13.5019412 111.952941,12.9095042 L111.952941,8.00336975 C111.952941,7.41080672 112.399664,6.96421008 112.991975,6.96421008 L118.576387,6.96421008 L118.576387,1.2979916 C118.576387,0.705680672 119.023109,0.258957983 119.61542,0.258957983 L124.685294,0.258957983 C125.277731,0.258957983 125.724454,0.705680672 125.724454,1.2979916 L125.724454,6.96421008 L131.308739,6.96421008 C131.901176,6.96421008 132.347899,7.41080672 132.347899,8.00336975 L132.347899,12.9095042 C132.347899,13.5019412 131.901176,13.9486639 131.308739,13.9486639 L125.724454,13.9486639 L125.724454,19.6146303 C125.724454,20.2070672 125.277731,20.6537899 124.685294,20.6537899 Z" id="Fill-52" fill="#FF8626"></path>
                </g>
            </g>
        </g>
    </g>
</svg>