<?xml version="1.0" encoding="UTF-8"?>
<svg width="36px" height="32px" viewBox="0 0 36 32" version="1.1" xmlns="http://www.w3.org/2000/svg" xmlns:xlink="http://www.w3.org/1999/xlink">
    <!-- Generator: Sketch 48.2 (47327) - http://www.bohemiancoding.com/sketch -->
    <title>icons8-shopping_cart</title>
    <desc>Created with Sketch.</desc>
    <defs></defs>
    <g id="Home" stroke="none" stroke-width="1" fill="none" fill-rule="evenodd" transform="translate(-682.000000, -3645.000000)">
        <g id="Post-Selection" transform="translate(-30.000000, 3239.000000)" fill="#45B9E6" fill-rule="nonzero">
            <g id="Engage-to-Award-Copy" transform="translate(680.000000, 389.000000)">
                <g id="Bar">
                    <g id="Overview">
                        <g id="icons8-shopping_cart" transform="translate(32.000000, 17.000000)">
                            <path d="M1.65517241,0 C0.717241379,0 0,0.717241379 0,1.65517241 C0,2.59310345 0.717241379,3.31034483 1.65517241,3.31034483 C2.26206897,3.31034483 2.8137931,2.97931034 3.08965517,2.48275862 C3.97241379,2.86896552 4.57931034,3.75172414 4.68965517,4.74482759 L6.23448276,24.2206897 C6.45517241,26.9793103 8.49655172,29.1862069 11.0896552,29.6827586 C11.3103448,31.0068966 12.4137931,32 13.7931034,32 C15.1172414,32 16.2206897,31.062069 16.4965517,29.7931034 L22.1241379,29.7931034 C22.4,31.062069 23.5034483,32 24.8275862,32 C26.3724138,32 27.5862069,30.7862069 27.5862069,29.2413793 C27.5862069,27.6965517 26.3724138,26.4827586 24.8275862,26.4827586 C23.5034483,26.4827586 22.4,27.4206897 22.1241379,28.6896552 L16.4965517,28.6896552 C16.2206897,27.4206897 15.1172414,26.4827586 13.7931034,26.4827586 C12.5241379,26.4827586 11.4206897,27.3655172 11.1448276,28.5793103 C9.48965517,28.1931034 8.16551724,26.9793103 7.55862069,25.3793103 L28.9103448,25.3793103 C29.6827586,25.3793103 30.3448276,24.8275862 30.5103448,24.0551724 L33.5448276,9.93103448 L33.6551724,9.93103448 C34.5931034,9.93103448 35.3103448,9.2137931 35.3103448,8.27586207 C35.3103448,7.33793103 34.5931034,6.62068966 33.6551724,6.62068966 L5.90344828,6.62068966 L5.73793103,4.63448276 C5.62758621,3.14482759 4.63448276,1.87586207 3.25517241,1.32413793 C3.14482759,0.606896552 2.48275862,0 1.65517241,0 Z M1.65517241,0.993103448 C2.04137931,0.993103448 2.31724138,1.26896552 2.31724138,1.65517241 C2.31724138,2.04137931 2.04137931,2.31724138 1.65517241,2.31724138 C1.26896552,2.31724138 0.993103448,2.04137931 0.993103448,1.65517241 C0.993103448,1.26896552 1.26896552,0.993103448 1.65517241,0.993103448 Z M6.0137931,7.72413793 L33.6551724,7.72413793 C33.9862069,7.72413793 34.2068966,7.94482759 34.2068966,8.27586207 C34.2068966,8.60689655 33.9862069,8.82758621 33.6551724,8.82758621 L6.06896552,8.82758621 L6.0137931,7.72413793 Z M6.17931034,9.93103448 L32.4413793,9.93103448 L29.462069,23.8344828 C29.4068966,24.1103448 29.1862069,24.2758621 28.9103448,24.2758621 L7.33793103,24.2758621 C7.33793103,24.2206897 7.33793103,24.1655172 7.33793103,24.1103448 L6.17931034,9.93103448 Z M7.72413793,11.0344828 C7.39310345,11.0344828 7.17241379,11.2551724 7.17241379,11.5862069 L7.17241379,12.6896552 C7.17241379,13.0206897 7.39310345,13.2413793 7.72413793,13.2413793 C8.05517241,13.2413793 8.27586207,13.0206897 8.27586207,12.6896552 L8.27586207,11.5862069 C8.27586207,11.2551724 8.05517241,11.0344828 7.72413793,11.0344828 Z M10.4827586,11.0344828 C10.1517241,11.0344828 9.93103448,11.2551724 9.93103448,11.5862069 L9.93103448,12.6896552 C9.93103448,13.0206897 10.1517241,13.2413793 10.4827586,13.2413793 C10.8137931,13.2413793 11.0344828,13.0206897 11.0344828,12.6896552 L11.0344828,11.5862069 C11.0344828,11.2551724 10.8137931,11.0344828 10.4827586,11.0344828 Z M13.2413793,11.0344828 C12.9103448,11.0344828 12.6896552,11.2551724 12.6896552,11.5862069 L12.6896552,12.6896552 C12.6896552,13.0206897 12.9103448,13.2413793 13.2413793,13.2413793 C13.5724138,13.2413793 13.7931034,13.0206897 13.7931034,12.6896552 L13.7931034,11.5862069 C13.7931034,11.2551724 13.5724138,11.0344828 13.2413793,11.0344828 Z M16,11.0344828 C15.6689655,11.0344828 15.4482759,11.2551724 15.4482759,11.5862069 L15.4482759,12.6896552 C15.4482759,13.0206897 15.6689655,13.2413793 16,13.2413793 C16.3310345,13.2413793 16.5517241,13.0206897 16.5517241,12.6896552 L16.5517241,11.5862069 C16.5517241,11.2551724 16.3310345,11.0344828 16,11.0344828 Z M18.7586207,11.0344828 C18.4275862,11.0344828 18.2068966,11.2551724 18.2068966,11.5862069 L18.2068966,12.6896552 C18.2068966,13.0206897 18.4275862,13.2413793 18.7586207,13.2413793 C19.0896552,13.2413793 19.3103448,13.0206897 19.3103448,12.6896552 L19.3103448,11.5862069 C19.3103448,11.2551724 19.0896552,11.0344828 18.7586207,11.0344828 Z M21.5172414,11.0344828 C21.1862069,11.0344828 20.9655172,11.2551724 20.9655172,11.5862069 L20.9655172,12.6896552 C20.9655172,13.0206897 21.1862069,13.2413793 21.5172414,13.2413793 C21.8482759,13.2413793 22.0689655,13.0206897 22.0689655,12.6896552 L22.0689655,11.5862069 C22.0689655,11.2551724 21.8482759,11.0344828 21.5172414,11.0344828 Z M24.2758621,11.0344828 C23.9448276,11.0344828 23.7241379,11.2551724 23.7241379,11.5862069 L23.7241379,12.6896552 C23.7241379,13.0206897 23.9448276,13.2413793 24.2758621,13.2413793 C24.6068966,13.2413793 24.8275862,13.0206897 24.8275862,12.6896552 L24.8275862,11.5862069 C24.8275862,11.2551724 24.6068966,11.0344828 24.2758621,11.0344828 Z M27.0344828,11.0344828 C26.7034483,11.0344828 26.4827586,11.2551724 26.4827586,11.5862069 L26.4827586,12.6896552 C26.4827586,13.0206897 26.7034483,13.2413793 27.0344828,13.2413793 C27.3655172,13.2413793 27.5862069,13.0206897 27.5862069,12.6896552 L27.5862069,11.5862069 C27.5862069,11.2551724 27.3655172,11.0344828 27.0344828,11.0344828 Z M29.7931034,11.0344828 C29.462069,11.0344828 29.2413793,11.2551724 29.2413793,11.5862069 L29.2413793,12.6896552 C29.2413793,13.0206897 29.462069,13.2413793 29.7931034,13.2413793 C30.1241379,13.2413793 30.3448276,13.0206897 30.3448276,12.6896552 L30.3448276,11.5862069 C30.3448276,11.2551724 30.1241379,11.0344828 29.7931034,11.0344828 Z M8.27586207,22.0689655 C7.94482759,22.0689655 7.72413793,22.2896552 7.72413793,22.6206897 C7.72413793,22.9517241 7.94482759,23.1724138 8.27586207,23.1724138 L23.7241379,23.1724138 C24.0551724,23.1724138 24.2758621,22.9517241 24.2758621,22.6206897 C24.2758621,22.2896552 24.0551724,22.0689655 23.7241379,22.0689655 L8.27586207,22.0689655 Z M25.9310345,22.0689655 C25.6,22.0689655 25.3793103,22.2896552 25.3793103,22.6206897 C25.3793103,22.9517241 25.6,23.1724138 25.9310345,23.1724138 L28.137931,23.1724138 C28.4689655,23.1724138 28.6896552,22.9517241 28.6896552,22.6206897 C28.6896552,22.2896552 28.4689655,22.0689655 28.137931,22.0689655 L25.9310345,22.0689655 Z M24.8275862,27.3103448 C25.8758621,27.3103448 26.7586207,28.1931034 26.7586207,29.2413793 C26.7586207,30.2896552 25.8758621,31.1724138 24.8275862,31.1724138 C23.7793103,31.1724138 22.8965517,30.2896552 22.8965517,29.2413793 C22.8965517,28.1931034 23.7793103,27.3103448 24.8275862,27.3103448 Z M13.7931034,27.4206897 C14.7862069,27.4206897 15.6137931,28.2482759 15.6137931,29.2413793 C15.6137931,30.2344828 14.7862069,31.062069 13.7931034,31.062069 C12.8,31.062069 11.9724138,30.2344828 11.9724138,29.2413793 C11.9724138,28.2482759 12.8,27.4206897 13.7931034,27.4206897 Z" id="Shape"></path>
                        </g>
                    </g>
                </g>
            </g>
        </g>
    </g>
</svg>