<?xml version="1.0" encoding="UTF-8"?>
<svg width="27px" height="40px" viewBox="0 0 27 40" version="1.1" xmlns="http://www.w3.org/2000/svg" xmlns:xlink="http://www.w3.org/1999/xlink">
    <!-- Generator: Sketch 48.2 (47327) - http://www.bohemiancoding.com/sketch -->
    <title>2</title>
    <desc>Created with Sketch.</desc>
    <defs>
        <polygon id="path-1" points="0 0.0821590909 26.058125 0.0821590909 26.058125 39.8863636 0 39.8863636"></polygon>
    </defs>
    <g id="Home" stroke="none" stroke-width="1" fill="none" fill-rule="evenodd" transform="translate(-534.000000, -1278.000000)">
        <g id="Adoptive" transform="translate(0.000000, 1064.000000)">
            <g id="Main-Points" transform="translate(531.000000, 208.000000)">
                <g id="Point-1" transform="translate(1.000000, 6.000000)">
                    <g id="2" transform="translate(2.000000, 0.000000)">
                        <g id="Group-3" transform="translate(0.000000, 0.031477)">
                            <mask id="mask-2" fill="white">
                                <use xlink:href="#path-1"></use>
                            </mask>
                            <g id="Clip-2"></g>
                            <path d="M24.9217614,38.75 L1.13630682,38.75 L1.13630682,32.5010227 C1.13630682,32.3011364 1.14551136,32.2571591 1.28198864,32.0853409 L14.6261932,17.1218182 C16.1766477,15.3853409 16.838125,13.8684091 16.838125,12.0495455 C16.838125,9.46397727 15.2772159,7.79340909 12.8614205,7.79340909 C11.0764205,7.79340909 8.87130682,8.61795455 8.49710227,12.5442045 L1.18210227,11.4359091 C1.18255682,11.4302273 1.18335227,11.4238636 1.18448864,11.4165909 L1.19130682,11.3546591 C1.34823864,8.53136364 2.58414773,5.97329545 4.67164773,4.15170455 C6.870625,2.23272727 9.83789773,1.21852273 13.2525568,1.21852273 C20.123125,1.21852273 24.9217614,5.53454545 24.9217614,11.7143182 C24.9217614,15.1594318 23.6939205,18.00375 20.940625,20.9364773 L11.734375,31.1653409 L11.734375,32.0634091 L24.9217614,32.0634091 L24.9217614,38.75 Z M24.9310795,30.9270455 L13.4776705,30.9270455 L21.7732386,21.7098864 C24.7364205,18.5519318 26.058125,15.46875 26.058125,11.7143182 C26.058125,8.45920455 24.8026705,5.50556818 22.5230114,3.39727273 C20.1780114,1.22852273 16.9723295,0.0821590909 13.2525568,0.0821590909 C5.86005682,0.0821590909 0.438579545,4.67931818 0.0583522727,11.2644318 C0.0172159091,11.5571591 0.075625,11.8426136 0.223806818,12.0718182 C0.390625,12.3296591 0.658352273,12.5009091 0.985965909,12.5553409 L8.36653409,13.6736364 C8.71642045,13.7238636 9.03869318,13.6393182 9.27335227,13.4355682 C9.49619318,13.2423864 9.62198864,12.9605682 9.62960227,12.6392045 C9.870625,10.1431818 10.9278977,8.92977273 12.8614205,8.92977273 C14.6400568,8.92977273 15.7017614,10.0961364 15.7017614,12.0495455 C15.7017614,13.5847727 15.1446023,14.835 13.7783523,16.3652273 L0.423579545,31.3405682 L0.403806818,31.3638636 C0.101875,31.7413636 -5.68181818e-05,32.0282955 -5.68181818e-05,32.5010227 L-5.68181818e-05,38.7594318 C-5.68181818e-05,39.4123864 0.473920455,39.8863636 1.126875,39.8863636 L24.9310795,39.8863636 C25.5841477,39.8863636 26.058125,39.4123864 26.058125,38.7594318 L26.058125,32.0539773 C26.058125,31.4010227 25.5841477,30.9270455 24.9310795,30.9270455 Z" id="Fill-1" fill="#55D0A5" mask="url(#mask-2)"></path>
                        </g>
                        <path d="M12.4941136,3.94560227 C9.24593182,4.18832955 6.34104545,5.97298864 5.09331818,8.49253409 C4.954,8.77367045 5.06911364,9.11446591 5.35036364,9.25378409 C5.43138636,9.29389773 5.51729545,9.312875 5.60206818,9.312875 C5.81115909,9.312875 6.01252273,9.19696591 6.11161364,8.99673864 C7.18456818,6.83003409 9.72309091,5.29219318 12.5786591,5.07889773 C12.8916136,5.05548864 13.1262727,4.78276136 13.1029773,4.46992045 C13.0795682,4.15696591 12.8051364,3.92378409 12.4941136,3.94560227" id="Fill-4" fill="#55D0A5"></path>
                        <path d="M18.4613636,6.90347727 C18.6213636,6.90347727 18.7806818,6.83609091 18.8929545,6.70506818 C19.0972727,6.46677273 19.0696591,6.10813636 18.8313636,5.90393182 C17.8553409,5.06734091 16.7035227,4.48484091 15.4079545,4.17256818 C15.1020455,4.09825 14.7959091,4.28677273 14.7225,4.59165909 C14.6488636,4.89677273 14.8365909,5.20370455 15.1415909,5.27711364 C16.2610227,5.547 17.2535227,6.04825 18.0918182,6.76665909 C18.1989773,6.85847727 18.3304545,6.90347727 18.4613636,6.90347727" id="Fill-6" fill="#55D0A5"></path>
                        <path d="M19.2100909,36.1632955 L20.9536136,36.1632955 C21.2673636,36.1632955 21.5217955,35.9089773 21.5217955,35.5951136 C21.5217955,35.28125 21.2673636,35.0269318 20.9536136,35.0269318 L19.2100909,35.0269318 C18.8962273,35.0269318 18.6419091,35.28125 18.6419091,35.5951136 C18.6419091,35.9089773 18.8962273,36.1632955 19.2100909,36.1632955" id="Fill-8" fill="#55D0A5"></path>
                        <path d="M15.0055455,36.1632955 L16.7490682,36.1632955 C17.0628182,36.1632955 17.31725,35.9089773 17.31725,35.5951136 C17.31725,35.28125 17.0628182,35.0269318 16.7490682,35.0269318 L15.0055455,35.0269318 C14.6916818,35.0269318 14.4373636,35.28125 14.4373636,35.5951136 C14.4373636,35.9089773 14.6916818,36.1632955 15.0055455,36.1632955" id="Fill-10" fill="#55D0A5"></path>
                        <path d="M10.2328182,35.5951136 C10.2328182,35.9089773 10.4871364,36.1632955 10.801,36.1632955 L12.5445227,36.1632955 C12.8582727,36.1632955 13.1127045,35.9089773 13.1127045,35.5951136 C13.1127045,35.28125 12.8582727,35.0269318 12.5445227,35.0269318 L10.801,35.0269318 C10.4871364,35.0269318 10.2328182,35.28125 10.2328182,35.5951136" id="Fill-12" fill="#55D0A5"></path>
                        <path d="M8.33995455,35.0269318 L6.01415909,35.0269318 L6.01415909,33.1707955 L19.8240455,17.3515909 C20.7539318,16.3101136 21.4412045,14.8682955 21.7096136,13.3957955 C22.0485909,11.5369318 21.7148409,9.71125 20.7447273,8.11602273 C20.5817727,7.84795455 20.2322273,7.76272727 19.9640455,7.92568182 C19.6959773,8.08875 19.61075,8.43829545 19.7737045,8.70636364 C21.7754091,11.9976136 20.1273409,15.3054545 18.9721136,16.5995455 L5.01802273,32.5840909 C4.92768182,32.6876136 4.87779545,32.8203409 4.87779545,32.9577273 L4.87779545,35.5951136 C4.87779545,35.9089773 5.13211364,36.1632955 5.44597727,36.1632955 C5.45484091,36.1632955 5.46325,36.1610227 5.472,36.1607955 C5.48075,36.1610227 5.48904545,36.1632955 5.49790909,36.1632955 L8.33995455,36.1632955 C8.65381818,36.1632955 8.90813636,35.9089773 8.90813636,35.5951136 C8.90813636,35.28125 8.65381818,35.0269318 8.33995455,35.0269318" id="Fill-14" fill="#55D0A5"></path>
                    </g>
                </g>
            </g>
        </g>
    </g>
</svg>
