<?xml version="1.0" encoding="UTF-8"?>
<svg width="55px" height="52px" viewBox="0 0 55 52" version="1.1" xmlns="http://www.w3.org/2000/svg" xmlns:xlink="http://www.w3.org/1999/xlink">
    <!-- Generator: Sketch 48.2 (47327) - http://www.bohemiancoding.com/sketch -->
    <title>icons8-safety_hat</title>
    <desc>Created with Sketch.</desc>
    <defs>
        <polygon id="path-1" points="0.36427509 0 54.6274375 0 54.6274375 51.15 0.36427509 51.15"></polygon>
    </defs>
    <g id="About-/-Vision-[Updated]" stroke="none" stroke-width="1" fill="none" fill-rule="evenodd" transform="translate(-689.000000, -1786.000000)">
        <g id="Continuous-Improvement" transform="translate(0.000000, 1593.000000)">
            <g id="We-Listen-and-Grow" transform="translate(540.000000, 193.000000)">
                <g id="icons8-safety_hat" transform="translate(149.000000, 0.000000)">
                    <mask id="mask-2" fill="white">
                        <use xlink:href="#path-1"></use>
                    </mask>
                    <g id="Clip-2"></g>
                    <path d="M27.5,0 C25.9438793,0 24.540431,0.740603448 23.6481034,1.89655172 L23.2517241,1.89655172 C20.965431,1.89655172 18.9171552,3.08189655 17.7213793,4.89310345 C9.11198276,8.04896552 2.84482759,17.4207759 2.84482759,28.4482759 L2.84482759,35.7310345 L1.05163793,38.290431 C0.425775862,39.1751724 0.218103448,40.2827586 0.466551724,41.3353448 C0.711206897,42.3869828 1.39681034,43.2802586 2.3337069,43.7989655 L13.0975862,49.6811207 C14.8983621,50.6768103 16.9428448,51.1955172 19.0025,51.1955172 L19.0584483,51.1955172 L36.0231034,51.1215517 C38.0533621,51.1101724 40.0646552,50.5990517 41.8388793,49.6327586 L52.6406897,43.7913793 C53.5965517,43.2802586 54.2774138,42.3793966 54.5258621,41.3239655 C54.7743103,40.2723276 54.5628448,39.1647414 53.9369828,38.2828448 L52.1997414,35.7974138 C52.1921552,35.7642241 52.1959483,35.7348276 52.1807759,35.7044828 C52.1741379,35.6902586 52.1627586,35.6826724 52.1551724,35.6712931 L52.1551724,28.4482759 C52.1551724,17.4207759 45.8880172,8.04896552 37.2786207,4.89310345 C36.0828448,3.08189655 34.034569,1.89655172 31.7482759,1.89655172 L31.3594828,1.89655172 C30.459569,0.740603448 29.0561207,0 27.5,0 Z M27.5,1.89655172 C28.7517241,1.89655172 29.8412931,2.68172414 30.2784483,3.79310345 C30.3818103,4.06715517 30.459569,4.36396552 30.4785345,4.675 L31.3518966,16.8205172 C31.3898276,17.3430172 31.8336207,17.7318103 32.3637069,17.7062069 C32.8862069,17.665431 33.275,17.2093103 33.2380172,16.6877586 L32.3750862,4.5412931 C32.3561207,4.29284483 32.3153448,4.05956897 32.2603448,3.8225 C33.8894828,4.00077586 35.3156897,5.03439655 36.0155172,6.47482759 C36.2715517,6.98974138 36.4232759,7.54922414 36.4716379,8.13431034 L36.9827586,14.2981034 C37.0311207,14.795 37.437931,15.1724138 37.9310345,15.1724138 L38.005,15.1724138 C38.5275,15.1240517 38.9162931,14.6688793 38.8793103,14.1501724 L38.3681897,7.98637931 C38.3492241,7.7862931 38.3198276,7.5862069 38.290431,7.38612069 C44.6723276,10.4974138 49.3321552,17.5317241 50.1249138,25.9144828 L48.4616379,26.4663793 C46.1317241,27.2439655 44.5689655,29.4117241 44.5689655,31.8668103 L44.5689655,35.0862069 C44.5689655,35.6087069 44.9947414,36.0344828 45.5172414,36.0344828 C46.0397414,36.0344828 46.4655172,35.6087069 46.4655172,35.0862069 L46.4655172,31.8668103 C46.4655172,30.2300862 47.5067241,28.7849138 49.0581034,28.2671552 L50.2396552,27.874569 C50.2434483,28.067069 50.2586207,28.2557759 50.2586207,28.4482759 L50.2586207,35.5119828 C43.8321552,38.290431 35.7936207,39.8275862 27.5,39.8275862 C19.2101724,39.8275862 11.1678448,38.290431 4.74137931,35.5119828 L4.74137931,28.4482759 C4.74137931,28.2557759 4.75655172,28.067069 4.76034483,27.874569 L5.94189655,28.2671552 C7.49327586,28.7849138 8.53448276,30.2300862 8.53448276,31.8668103 L8.53448276,35.0862069 C8.53448276,35.6087069 8.96025862,36.0344828 9.48275862,36.0344828 C10.0052586,36.0344828 10.4310345,35.6087069 10.4310345,35.0862069 L10.4310345,31.8668103 C10.4310345,29.4117241 8.86827586,27.2439655 6.5412069,26.4663793 L4.87508621,25.9144828 C5.66784483,17.5317241 10.3276724,10.4974138 16.709569,7.38612069 C16.6801724,7.5862069 16.6507759,7.7862931 16.6318103,7.98637931 L16.1206897,14.1501724 C16.0837069,14.6688793 16.4725,15.1240517 16.995,15.1724138 C17.5061207,15.2093966 17.9688793,14.8206034 18.0172414,14.2981034 L18.5283621,8.13431034 C18.5767241,7.54922414 18.7284483,6.98974138 18.9844828,6.47482759 C19.6843103,5.03439655 21.1105172,4.00077586 22.7396552,3.8225 C22.6846552,4.05956897 22.6438793,4.29284483 22.6249138,4.5412931 L21.7363793,17.039569 C21.6956034,17.562069 22.0843966,18.0172414 22.6068966,18.0542241 L22.6846552,18.0542241 C23.1768103,18.0542241 23.5921552,17.6768103 23.6215517,17.1837069 L24.5214655,4.675 C24.540431,4.36396552 24.6181897,4.06715517 24.7215517,3.79310345 C25.1587069,2.68172414 26.2482759,1.89655172 27.5,1.89655172 Z M22.4921552,19.7544828 C21.962069,19.7326724 21.5144828,20.1100862 21.4765517,20.6363793 L21.3106034,22.9511207 C21.2774138,23.4736207 21.6662069,23.925 22.1915517,23.962931 C22.2143103,23.962931 22.2361207,23.962931 22.2588793,23.962931 C22.7510345,23.962931 23.1663793,23.584569 23.2033621,23.0848276 L23.3664655,20.7691379 C23.4034483,20.2475862 23.0146552,19.7952586 22.4921552,19.7544828 Z M15.1724138,32.2413793 C14.6499138,32.2413793 14.2241379,32.6671552 14.2241379,33.1896552 L14.2241379,35.0862069 C14.2241379,35.6087069 14.6499138,36.0344828 15.1724138,36.0344828 C15.6949138,36.0344828 16.1206897,35.6087069 16.1206897,35.0862069 L16.1206897,33.1896552 C16.1206897,32.6671552 15.6949138,32.2413793 15.1724138,32.2413793 Z M19.9137931,32.2413793 C19.3912931,32.2413793 18.9655172,32.6671552 18.9655172,33.1896552 L18.9655172,35.0862069 C18.9655172,35.6087069 19.3912931,36.0344828 19.9137931,36.0344828 C20.4362931,36.0344828 20.862069,35.6087069 20.862069,35.0862069 L20.862069,33.1896552 C20.862069,32.6671552 20.4362931,32.2413793 19.9137931,32.2413793 Z M24.6551724,32.2413793 C24.1326724,32.2413793 23.7068966,32.6671552 23.7068966,33.1896552 L23.7068966,35.0862069 C23.7068966,35.6087069 24.1326724,36.0344828 24.6551724,36.0344828 C25.1776724,36.0344828 25.6034483,35.6087069 25.6034483,35.0862069 L25.6034483,33.1896552 C25.6034483,32.6671552 25.1776724,32.2413793 24.6551724,32.2413793 Z M30.3448276,32.2413793 C29.8223276,32.2413793 29.3965517,32.6671552 29.3965517,33.1896552 L29.3965517,35.0862069 C29.3965517,35.6087069 29.8223276,36.0344828 30.3448276,36.0344828 C30.8673276,36.0344828 31.2931034,35.6087069 31.2931034,35.0862069 L31.2931034,33.1896552 C31.2931034,32.6671552 30.8673276,32.2413793 30.3448276,32.2413793 Z M35.0862069,32.2413793 C34.5637069,32.2413793 34.137931,32.6671552 34.137931,33.1896552 L34.137931,35.0862069 C34.137931,35.6087069 34.5637069,36.0344828 35.0862069,36.0344828 C35.6087069,36.0344828 36.0344828,35.6087069 36.0344828,35.0862069 L36.0344828,33.1896552 C36.0344828,32.6671552 35.6087069,32.2413793 35.0862069,32.2413793 Z M39.8275862,32.2413793 C39.3050862,32.2413793 38.8793103,32.6671552 38.8793103,33.1896552 L38.8793103,35.0862069 C38.8793103,35.6087069 39.3050862,36.0344828 39.8275862,36.0344828 C40.3500862,36.0344828 40.7758621,35.6087069 40.7758621,35.0862069 L40.7758621,33.1896552 C40.7758621,32.6671552 40.3500862,32.2413793 39.8275862,32.2413793 Z M50.9252586,37.2824138 L52.3922414,39.3724138 C52.7032759,39.82 52.810431,40.3605172 52.6881034,40.8981897 C52.5553448,41.4311207 52.2215517,41.8644828 51.7398276,42.1318966 L40.9389655,47.9732759 C39.4274138,48.7802586 37.7309483,49.2136207 36.0155172,49.225 L19.0508621,49.2989655 C17.325,49.2913793 15.5431897,48.8656034 14.0060345,48.0216379 L3.245,42.1318966 C2.77086207,41.8758621 2.43706897,41.4387069 2.30431034,40.8981897 C2.18198276,40.3681034 2.28534483,39.8275862 2.60775862,39.3828448 L4.07474138,37.2862069 C10.7164655,40.1424138 18.9949138,41.7241379 27.5,41.7241379 C36.0126724,41.7241379 44.2797414,40.1424138 50.9252586,37.2824138 Z" id="Fill-1" fill="#55D0A5" mask="url(#mask-2)"></path>
                </g>
            </g>
        </g>
    </g>
</svg>