<?xml version="1.0" encoding="UTF-8"?>
<svg width="45px" height="45px" viewBox="0 0 45 45" version="1.1" xmlns="http://www.w3.org/2000/svg" xmlns:xlink="http://www.w3.org/1999/xlink">
    <!-- Generator: Sketch 48.2 (47327) - http://www.bohemiancoding.com/sketch -->
    <title>join-the-team_icon</title>
    <desc>Created with Sketch.</desc>
    <defs>
        <polygon id="path-1" points="0.0482142857 0 44.6488393 0 44.6488393 45 0.0482142857 45"></polygon>
    </defs>
    <g id="Careers-CTA" stroke="none" stroke-width="1" fill="none" fill-rule="evenodd" transform="translate(-48.000000, 0.000000)">
        <g id="join-the-team_icon">
            <g transform="translate(48.000000, 0.000000)">
                <mask id="mask-2" fill="white">
                    <use xlink:href="#path-1"></use>
                </mask>
                <g id="Clip-2"></g>
                <path d="M9.675,11.6517857 C12.6474107,11.5674107 15.4872321,13.2115179 17.0758929,15.8078571 L18.3632143,17.9075893 C18.8405357,18.68625 19.5275893,19.3138393 20.3472321,19.715625 L23.0898214,21.065625 C23.5020536,21.2665179 23.7551786,21.6779464 23.7551786,22.1359821 C23.7551786,22.5249107 23.5767857,22.8800893 23.259375,23.1058929 C22.9427679,23.3349107 22.5498214,23.394375 22.1825893,23.2722321 L19.8723214,22.5 C18.5263393,22.0540179 17.3426786,21.2191071 16.4708036,20.1021429 L13.9403571,16.8814286 C13.6671429,16.5326786 13.1616964,16.47 12.81375,16.7464286 C12.465,17.0196429 12.4023214,17.5250893 12.67875,17.8730357 L14.1259821,19.7220536 C14.1259821,19.74375 14.113125,19.76625 14.113125,19.7879464 L14.113125,26.5114286 L13.9998214,41.7133929 C14.0191071,42.1561607 13.8616071,42.5764286 13.5578571,42.8970536 C13.2500893,43.216875 12.8354464,43.3928571 12.3886607,43.3928571 C11.5328571,43.3928571 10.8265179,42.7242857 10.7855357,41.9110714 L10.8980357,28.1314286 C10.9020536,27.7047321 10.569375,27.3463393 10.1426786,27.3214286 C9.70633929,27.3029464 9.34071429,27.613125 9.29491071,28.0374107 L7.80107143,41.8644643 C7.756875,42.7210714 7.05375,43.3928571 6.19071429,43.3928571 C5.74794643,43.3928571 5.33330357,43.216875 5.02553571,42.8970536 C4.72098214,42.5764286 4.56428571,42.1561607 4.58357143,41.7575893 L6.07660714,26.5178571 L6.07660714,17.4117857 C6.07660714,16.9690179 5.71660714,16.6082143 5.27303571,16.6082143 C4.83107143,16.6082143 4.46946429,16.9690179 4.46946429,17.4117857 L4.47348214,24.0854464 C3.83625,24.0348214 3.28098214,23.6233929 3.076875,23.0086607 L1.73330357,18.9747321 C1.48821429,18.2466964 1.61035714,17.4399107 2.05875,16.8123214 L3.49071429,14.8033929 C4.44214286,13.4758929 5.81705357,12.5051786 7.38964286,12.0535714 L7.700625,11.9659821 C7.93285714,11.9000893 8.161875,11.8430357 8.39732143,11.7996429 C8.82080357,11.71125 9.25071429,11.6646429 9.675,11.6517857 Z M34.993125,11.5730357 C35.4551786,11.5730357 35.9228571,11.6140179 36.3865179,11.7048214 C36.6099107,11.7490179 36.826875,11.8028571 37.0430357,11.8655357 L37.9438393,12.1226786 C39.3999107,12.5397321 40.6679464,13.3842857 41.6097321,14.5679464 C42.5764286,15.7797321 43.0416964,17.3177679 43.0416964,18.8710714 L43.0416964,26.1160714 C43.0416964,26.7814286 42.5016964,27.3214286 41.8355357,27.3214286 C41.1701786,27.3214286 40.6309821,26.7814286 40.6309821,26.1160714 L40.6309821,17.4117857 C40.6309821,16.9690179 40.269375,16.6082143 39.8266071,16.6082143 C39.3846429,16.6082143 39.0238393,16.9690179 39.0238393,17.4117857 L39.0238393,26.1160714 C39.0238393,26.1377679 39.0238393,26.1602679 39.0238393,26.1819643 L39.7141071,41.7101786 C39.7325893,42.1561607 39.5766964,42.5764286 39.2721429,42.8970536 C38.9322321,43.2482143 38.4685714,43.4274107 37.9663393,43.3864286 C37.1491071,43.32375 36.534375,42.5989286 36.4941964,41.7825 L35.80875,28.0840179 C35.7878571,27.6573214 35.4326786,27.3214286 35.0059821,27.3214286 C34.5784821,27.3214286 34.2241071,27.6573214 34.2016071,28.0840179 L33.5209821,41.7575893 C33.4775893,42.5732143 32.878125,43.3076786 32.0608929,43.3832143 C31.5586607,43.4338393 31.0821429,43.2546429 30.7398214,42.8970536 C30.4328571,42.5764286 30.2785714,42.1561607 30.2978571,41.7101786 L30.988125,26.5178571 L30.988125,17.3772321 C30.988125,16.9344643 30.6265179,16.5736607 30.18375,16.5736607 C29.7417857,16.5736607 29.3801786,16.9344643 29.3801786,17.3772321 L29.3801786,19.389375 C29.34,19.4303571 29.3054464,19.47375 29.2741071,19.524375 C28.5452679,20.6541964 27.7240179,21.718125 26.555625,22.3866964 L25.1405357,23.1934821 C25.2755357,22.8640179 25.3623214,22.5096429 25.3623214,22.1359821 C25.3623214,21.4955357 25.1461607,20.8960714 24.7692857,20.4123214 L25.5696429,19.8883929 C26.4423214,19.3138393 27.1020536,18.4789286 27.4596429,17.499375 L27.68625,16.875 C28.8225,13.7426786 31.7732143,11.57625 34.993125,11.5730357 Z M35.0903571,9.96910714 C31.1633036,9.93455357 27.5472321,12.5429464 26.1634821,16.3566964 L25.9497321,16.9505357 C25.711875,17.6030357 25.2683036,18.1623214 24.688125,18.5448214 L23.3670536,19.4110714 L21.0567857,18.2748214 C20.5103571,18.0048214 20.0523214,17.5877679 19.7349107,17.0694643 L18.4572321,14.9882143 C16.2666964,11.4099107 12.0857143,9.3825 7.97625,10.2423214 C7.73758929,10.2929464 7.49973214,10.3524107 7.26107143,10.4215179 L6.946875,10.5091071 C5.02553571,11.05875 3.346875,12.2448214 2.18491071,13.87125 L0.747321429,15.8801786 C-2.16840434e-19,16.9248214 -0.200892857,18.2651786 0.207321429,19.4866071 L1.55089286,23.5173214 C1.97517857,24.7917857 3.13955357,25.6516071 4.47348214,25.7046429 L4.47348214,26.4391071 L2.97964286,41.6378571 C2.93866071,42.5266071 3.25205357,43.3647321 3.86678571,44.0083929 C4.47991071,44.6480357 5.30517857,45 6.19392857,45 C7.67169643,45 8.92446429,44.0019643 9.29491071,42.6616071 C9.67660714,44.0172321 10.9205357,45 12.3926786,45 C13.2782143,45 14.1034821,44.6480357 14.7158036,44.0083929 C15.3313393,43.3647321 15.6447321,42.5266071 15.6069643,41.6820536 L15.7202679,26.5178571 L15.7202679,21.661875 C16.7215179,22.7354464 17.9614286,23.5575 19.3644643,24.0251786 L21.6747321,24.7974107 C22.1866071,24.9669643 22.7169643,24.9701786 23.2183929,24.8480357 C24.013125,25.1807143 24.9396429,25.1590179 25.7359821,24.7066071 L27.2499107,23.8403571 C28.0494643,23.3823214 28.7654464,22.8077679 29.3801786,22.1359821 L29.3801786,26.4800893 L28.6995536,41.5317857 C28.6617857,42.3040179 28.8570536,43.0850893 29.3207143,43.7038393 C29.9491071,44.5355357 30.8844643,45 31.9082143,45 C33.3803571,45 34.6258929,44.0108036 35.0059821,42.64875 C35.3860714,44.0108036 36.6316071,45 38.1069643,45 C39.1266964,45 40.0620536,44.5323214 40.6904464,43.700625 C41.1549107,43.081875 41.3501786,42.3040179 41.3124107,41.5317857 L40.730625,28.7027679 C41.1991071,28.9036607 41.7350893,28.9816071 42.2911607,28.8908036 C43.6725,28.6746429 44.6488393,27.4058036 44.6488393,26.0059821 L44.6488393,18.9120536 C44.6488393,16.959375 44.0517857,15.0227679 42.8223214,13.5072321 C41.6724107,12.0913393 40.1416071,11.0772321 38.3866071,10.575 L37.4882143,10.3210714 C37.2559821,10.2519643 37.0205357,10.1957143 36.7850893,10.1483036 C36.2169643,10.0317857 35.6488393,9.97232143 35.0903571,9.96910714 Z M26.9702679,3.21428571 C26.5275,3.21428571 26.1658929,3.57508929 26.1658929,4.01785714 L26.1658929,5.625 C26.1658929,6.06776786 26.5275,6.42857143 26.9702679,6.42857143 C27.4122321,6.42857143 27.7730357,6.06776786 27.7730357,5.625 L27.7730357,4.01785714 C27.7730357,3.57508929 27.4122321,3.21428571 26.9702679,3.21428571 Z M22.9524107,3.21428571 C22.5096429,3.21428571 22.1480357,3.57508929 22.1480357,4.01785714 L22.1480357,5.625 C22.1480357,6.06776786 22.5096429,6.42857143 22.9524107,6.42857143 C23.394375,6.42857143 23.7551786,6.06776786 23.7551786,5.625 L23.7551786,4.01785714 C23.7551786,3.57508929 23.394375,3.21428571 22.9524107,3.21428571 Z M18.9345536,3.21428571 C18.4917857,3.21428571 18.1301786,3.57508929 18.1301786,4.01785714 L18.1301786,5.625 C18.1301786,6.06776786 18.4917857,6.42857143 18.9345536,6.42857143 C19.3773214,6.42857143 19.7373214,6.06776786 19.7373214,5.625 L19.7373214,4.01785714 C19.7373214,3.57508929 19.3773214,3.21428571 18.9345536,3.21428571 Z M35.0059821,1.41267857 C36.8855357,1.41267857 38.4115179,2.94107143 38.4115179,4.82142857 C38.4115179,6.70178571 36.8855357,8.22696429 35.0059821,8.22696429 C33.125625,8.22696429 31.5996429,6.70178571 31.5996429,4.82142857 C31.5996429,2.94107143 33.125625,1.41267857 35.0059821,1.41267857 Z M10.8980357,1.41267857 C12.7791964,1.41267857 14.304375,2.94107143 14.304375,4.82142857 C14.304375,6.70178571 12.7791964,8.22696429 10.8980357,8.22696429 C9.01848214,8.22696429 7.49330357,6.70178571 7.49330357,4.82142857 C7.49330357,2.94107143 9.01848214,1.41267857 10.8980357,1.41267857 Z M35.0059821,0 C32.3469643,0 30.18375,2.16241071 30.18375,4.82142857 C30.18375,7.48044643 32.3469643,9.64285714 35.0059821,9.64285714 C37.665,9.64285714 39.8266071,7.48044643 39.8266071,4.82142857 C39.8266071,2.16241071 37.665,0 35.0059821,0 Z M10.8980357,0 C8.23982143,0 6.07660714,2.16241071 6.07660714,4.82142857 C6.07660714,7.48044643 8.23982143,9.64285714 10.8980357,9.64285714 C13.5578571,9.64285714 15.7202679,7.48044643 15.7202679,4.82142857 C15.7202679,2.16241071 13.5578571,0 10.8980357,0 Z" id="Fill-1" fill="#55D0A5" mask="url(#mask-2)"></path>
            </g>
        </g>
    </g>
</svg>