<?xml version="1.0" encoding="UTF-8"?>
<svg width="45px" height="45px" viewBox="0 0 45 45" version="1.1" xmlns="http://www.w3.org/2000/svg" xmlns:xlink="http://www.w3.org/1999/xlink">
    <!-- Generator: Sketch 48.2 (47327) - http://www.bohemiancoding.com/sketch -->
    <title>support</title>
    <desc>Created with Sketch.</desc>
    <defs></defs>
    <g id="Home" stroke="none" stroke-width="1" fill="none" fill-rule="evenodd" transform="translate(-697.000000, -2332.000000)">
        <g id="We're-with-you" transform="translate(0.000000, 2126.000000)" fill="#55D0A5" fill-rule="nonzero">
            <g transform="translate(209.000000, 203.000000)" id="Main-Points">
                <g transform="translate(324.000000, 3.000000)">
                    <g id="Point-2" transform="translate(162.000000, 0.000000)">
                        <g id="support" transform="translate(2.000000, 0.000000)">
                            <path d="M35.2241379,0.775862069 C31.7327586,0.698275862 27.7758621,2.56034483 25.4482759,4.88793103 C22.6551724,7.68103448 22.6551724,10.7068966 23.7413793,14.2758621 L19.4741379,18.5431034 L10.4741379,9.54310345 C10.4741379,9.46551724 10.4741379,9.46551724 10.4741379,9.38793103 L10.0862069,7.37068966 C10.0086207,6.98275862 9.77586207,6.59482759 9.38793103,6.36206897 L3.95689655,2.79310345 C3.3362069,2.40517241 2.48275862,2.48275862 1.93965517,3.02586207 L0.698275862,4.34482759 C0.155172414,4.88793103 0.0775862069,5.6637931 0.465517241,6.28448276 L3.95689655,11.7155172 C4.18965517,12.0258621 4.5,12.2586207 4.88793103,12.4137931 L6.98275862,12.8793103 C7.06034483,12.8793103 7.06034483,12.8793103 7.13793103,12.8793103 L16.137931,21.8793103 L10.9396552,27.1551724 C7.99137931,26.8448276 5.12068966,28.0862069 3.3362069,30.4913793 C1.00862069,33.5172414 1.0862069,37.9396552 3.49137931,40.887931 C5.04310345,42.8275862 7.29310345,43.9913793 9.69827586,44.1465517 C9.85344828,44.1465517 10.0086207,44.1465517 10.1637931,44.1465517 C12.4137931,44.1465517 14.5862069,43.2155172 16.2155172,41.6637931 C18,39.8793103 18.9310345,37.3965517 18.6982759,34.8362069 L22.112069,31.4224138 C22.2672414,32.0431034 22.5775862,32.5862069 23.0431034,33.0517241 L33.4396552,43.4482759 C34.2155172,44.2241379 35.2241379,44.612069 36.1551724,44.612069 C37.0862069,44.612069 38.1724138,44.2241379 38.8706897,43.4482759 L41.0431034,41.2758621 C42.5172414,39.8017241 42.5172414,37.3189655 41.0431034,35.7672414 L30.6465517,25.2931034 C30.1810345,24.8275862 29.637931,24.5172414 29.0172414,24.362069 L31.4224138,21.9568966 C34.9913793,23.0431034 38.0172414,23.0431034 40.8103448,20.25 C43.6034483,17.4568966 45.8534483,12.1810345 44.612069,8.22413793 C44.5344828,7.99137931 44.3017241,7.75862069 44.0689655,7.68103448 C43.8362069,7.60344828 43.5258621,7.68103448 43.3706897,7.9137931 L38.5603448,12.7241379 C38.4051724,12.9568966 38.0948276,13.0344828 37.7844828,12.9568966 L36.9310345,12.7241379 C35.0689655,12.2586207 33.5948276,10.7844828 33.0517241,8.92241379 L32.8189655,8.06896552 C32.7413793,7.8362069 32.8189655,7.52586207 33.0517241,7.29310345 L37.862069,2.40517241 C38.0172414,2.25 38.0948276,1.93965517 38.0948276,1.70689655 C38.0172414,1.47413793 37.862069,1.24137931 37.5517241,1.1637931 C36.8534483,0.931034483 36.0775862,0.775862069 35.2241379,0.775862069 Z M35.2241379,2.32758621 C35.4568966,2.32758621 35.612069,2.32758621 35.8448276,2.32758621 L31.9655172,6.20689655 C31.3448276,6.82758621 31.112069,7.68103448 31.3448276,8.45689655 L31.5775862,9.31034483 C32.1982759,11.7155172 34.137931,13.5775862 36.5431034,14.2758621 L37.3965517,14.5086207 C38.1724138,14.7413793 39.0258621,14.5086207 39.6465517,13.887931 L43.4482759,10.0862069 C43.6810345,13.1896552 41.9741379,17.0689655 39.8017241,19.2413793 C37.3965517,21.6465517 34.9137931,21.4913793 31.5,20.4051724 C31.1896552,20.3275862 30.9568966,20.4051724 30.7241379,20.5603448 L17.3017241,33.9827586 C17.1465517,34.137931 17.0689655,34.3706897 17.0689655,34.6034483 C17.3793103,36.7758621 16.6810345,38.9482759 15.1293103,40.5 C13.7327586,41.8965517 11.7931034,42.6724138 9.77586207,42.5172414 C7.75862069,42.4396552 5.97413793,41.4310345 4.65517241,39.8793103 C2.71551724,37.4741379 2.63793103,33.8275862 4.57758621,31.3448276 C5.97413793,29.5603448 7.99137931,28.5517241 10.1637931,28.5517241 C10.4741379,28.5517241 10.862069,28.5517241 11.1724138,28.6293103 C11.4051724,28.6293103 11.637931,28.5517241 11.7931034,28.3965517 L25.2155172,14.9741379 C25.4482759,14.7413793 25.5258621,14.4310345 25.3706897,14.1982759 C24.2844828,10.7844828 24.1293103,8.30172414 26.5344828,5.89655172 C28.6293103,3.95689655 32.1982759,2.32758621 35.2241379,2.32758621 Z M3.10344828,4.11206897 L8.61206897,7.68103448 L9.07758621,9.69827586 L7.44827586,11.3275862 L5.35344828,10.862069 L1.86206897,5.43103448 L3.10344828,4.11206897 Z M9.85344828,11.0172414 L18.4655172,19.6293103 L17.3793103,20.7155172 L8.68965517,12.1810345 L9.23275862,11.637931 L9.85344828,11.0172414 Z M28.2413793,11.25 C28.0086207,11.25 27.8534483,11.3275862 27.6982759,11.4827586 C27.387931,11.7931034 27.387931,12.2586207 27.6982759,12.5689655 L33.2068966,18.0775862 C33.362069,18.2327586 33.5172414,18.3103448 33.75,18.3103448 C33.9827586,18.3103448 34.137931,18.2327586 34.2931034,18.0775862 C34.6034483,17.7672414 34.6034483,17.3017241 34.2931034,16.9913793 L28.7844828,11.4827586 C28.6293103,11.3275862 28.4741379,11.25 28.2413793,11.25 Z M26.0689655,17.8448276 C25.8362069,17.8448276 25.6810345,17.9224138 25.5258621,18.0775862 C25.2155172,18.387931 25.2155172,18.8534483 25.5258621,19.1637931 L26.612069,20.25 C26.7672414,20.4051724 26.9224138,20.4827586 27.1551724,20.4827586 C27.387931,20.4827586 27.5431034,20.4051724 27.6982759,20.25 C28.0086207,19.9396552 28.0086207,19.4741379 27.6982759,19.1637931 L26.612069,18.0775862 C26.4568966,17.9224138 26.3017241,17.8448276 26.0689655,17.8448276 Z M23.3534483,20.5603448 C23.1206897,20.5603448 22.9655172,20.637931 22.8103448,20.7931034 C22.5,21.1034483 22.5,21.5689655 22.8103448,21.8793103 L23.8965517,22.9655172 C24.0517241,23.1206897 24.2844828,23.1982759 24.4396552,23.1982759 C24.6724138,23.1982759 24.8275862,23.1206897 24.9827586,22.9655172 C25.2931034,22.6551724 25.2931034,22.1896552 24.9827586,21.8793103 L23.8965517,20.7931034 C23.7413793,20.637931 23.5086207,20.5603448 23.3534483,20.5603448 Z M20.5603448,23.3534483 C20.3275862,23.3534483 20.1724138,23.4310345 20.0172414,23.5862069 C19.7068966,23.8965517 19.7068966,24.362069 20.0172414,24.6724138 L21.1034483,25.7586207 C21.2586207,25.9137931 21.4913793,25.9913793 21.6465517,25.9913793 C21.8793103,25.9913793 22.0344828,25.9137931 22.1896552,25.7586207 C22.5,25.4482759 22.5,24.9827586 22.1896552,24.6724138 L21.1034483,23.5862069 C20.9482759,23.3534483 20.7931034,23.3534483 20.5603448,23.3534483 Z M28.1637931,25.7586207 C28.7068966,25.8362069 29.1724138,25.9913793 29.5603448,26.3793103 L39.9568966,36.7758621 C40.887931,37.7068966 40.887931,39.1810345 39.9568966,40.0344828 L37.7844828,42.2068966 C36.8534483,43.137931 35.3793103,43.137931 34.5258621,42.2068966 L24.0517241,31.887931 C23.5862069,31.4224138 23.3534483,30.7241379 23.4310345,30.0258621 L27.6206897,25.7586207 C27.8534483,25.7586207 28.0086207,25.7586207 28.1637931,25.7586207 Z M17.8448276,26.0689655 C17.612069,26.0689655 17.4568966,26.1465517 17.3017241,26.3017241 C16.9913793,26.612069 16.9913793,27.0775862 17.3017241,27.387931 L18.387931,28.4741379 C18.5431034,28.6293103 18.6982759,28.7068966 18.9310345,28.7068966 C19.1637931,28.7068966 19.3189655,28.6293103 19.4741379,28.4741379 C19.7844828,28.1637931 19.7844828,27.6982759 19.4741379,27.387931 L18.387931,26.3017241 C18.2327586,26.1465517 18,26.0689655 17.8448276,26.0689655 Z M15.1293103,28.7844828 C14.8965517,28.7844828 14.7413793,28.862069 14.5862069,29.0172414 C14.2758621,29.3275862 14.2758621,29.7931034 14.5862069,30.1034483 L15.6724138,31.1896552 C15.8275862,31.3448276 15.9827586,31.4224138 16.2155172,31.4224138 C16.4482759,31.4224138 16.6034483,31.3448276 16.7586207,31.1896552 C17.0689655,30.8793103 17.0689655,30.4137931 16.7586207,30.1034483 L15.6724138,29.0172414 C15.5172414,28.862069 15.2844828,28.7844828 15.1293103,28.7844828 Z M29.5603448,28.9396552 C29.3275862,28.9396552 29.1724138,29.0172414 29.0172414,29.1724138 C28.7068966,29.4827586 28.7068966,29.9482759 29.0172414,30.2586207 L36.6982759,37.9396552 C36.8534483,38.0948276 37.0086207,38.1724138 37.2413793,38.1724138 C37.4741379,38.1724138 37.6293103,38.0948276 37.7844828,37.9396552 C38.0948276,37.6293103 38.0948276,37.1637931 37.7844828,36.8534483 L30.1034483,29.1724138 C29.9482759,29.0172414 29.7931034,28.9396552 29.5603448,28.9396552 Z M27.387931,31.112069 C27.1551724,31.112069 27,31.1896552 26.8448276,31.3448276 C26.5344828,31.6551724 26.5344828,32.1206897 26.8448276,32.4310345 L34.5258621,40.112069 C34.6810345,40.2672414 34.8362069,40.3448276 35.0689655,40.3448276 C35.3017241,40.3448276 35.4568966,40.2672414 35.612069,40.112069 C35.9224138,39.8017241 35.9224138,39.3362069 35.612069,39.0258621 L27.9310345,31.3448276 C27.7758621,31.1896552 27.5431034,31.112069 27.387931,31.112069 Z M11.0948276,31.4224138 C11.0172414,31.4224138 10.9396552,31.4224138 10.862069,31.4224138 L7.37068966,32.3534483 C7.13793103,32.4310345 6.90517241,32.6637931 6.82758621,32.8965517 L5.89655172,36.387931 C5.81896552,36.6206897 5.89655172,36.9310345 6.12931034,37.1637931 L8.68965517,39.7241379 C8.84482759,39.8793103 9,39.9568966 9.23275862,39.9568966 C9.31034483,39.9568966 9.38793103,39.9568966 9.46551724,39.9568966 L12.9568966,39.0258621 C13.1896552,38.9482759 13.4224138,38.7155172 13.5,38.4827586 L14.4310345,34.9913793 C14.5086207,34.7586207 14.4310345,34.4482759 14.1982759,34.2155172 L11.637931,31.5775862 C11.4827586,31.5 11.3275862,31.4224138 11.0948276,31.4224138 Z M10.862069,33.0517241 L12.7241379,34.9137931 L12.0258621,37.4741379 L9.46551724,38.1724138 L7.60344828,36.3103448 L8.30172414,33.75 L10.862069,33.0517241 Z" id="Shape"></path>
                        </g>
                    </g>
                </g>
            </g>
        </g>
    </g>
</svg>