<?xml version="1.0" encoding="UTF-8"?>
<svg width="55px" height="55px" viewBox="0 0 55 55" version="1.1" xmlns="http://www.w3.org/2000/svg" xmlns:xlink="http://www.w3.org/1999/xlink">
    <!-- Generator: Sketch 48.2 (47327) - http://www.bohemiancoding.com/sketch -->
    <title>icons8-trust</title>
    <desc>Created with Sketch.</desc>
    <defs>
        <polygon id="path-1" points="0 0.0034375 55 0.0034375 55 54.945 0 54.945"></polygon>
    </defs>
    <g id="About-/-Vision-[Updated]" stroke="none" stroke-width="1" fill="none" fill-rule="evenodd" transform="translate(-282.000000, -1784.000000)">
        <g id="Continuous-Improvement" transform="translate(0.000000, 1593.000000)">
            <g id="How-do-we-Know" transform="translate(135.000000, 191.000000)">
                <g id="icons8-trust" transform="translate(147.000000, 0.000000)">
                    <mask id="mask-2" fill="white">
                        <use xlink:href="#path-1"></use>
                    </mask>
                    <g id="Clip-2"></g>
                    <path d="M24.9076667,0.00733333333 C22.286,0.00733333333 19.66525,1.00283333 17.6669167,3.00025 C13.6748333,6.99325 13.6748333,13.48875 17.6669167,17.4845 L31.5104167,31.3243333 C31.911,31.7249167 32.44175,31.944 33.0036667,31.944 C33.56925,31.944 34.10275,31.7249167 34.50425,31.3243333 L48.3330833,17.4845 C52.3251667,13.48875 52.3251667,6.99325 48.3330833,3.00025 C44.3400833,-0.9955 37.8445833,-0.9955 33.8488333,3.00025 L33,3.84908333 L32.1511667,3.00025 C30.15375,1.00283333 27.5320833,0.00733333333 24.9076667,0.00733333333 Z M41.0923333,1.837 C43.2446667,1.837 45.39975,2.6565 47.036,4.29733333 C50.31675,7.5735 50.31675,12.9085 47.036,16.1846667 L33.2044167,30.0318333 C33.0715,30.1638333 32.9431667,30.1638333 32.8065833,30.0318333 L18.964,16.1846667 C15.68325,12.9085 15.68325,7.5735 18.964,4.29733333 C20.6039167,2.6565 22.7553333,1.84066667 24.9076667,1.84066667 C27.06275,1.84066667 29.2150833,2.6565 30.8513333,4.29733333 L31.7075,5.14891667 L31.50675,5.346 C31.1455833,5.70441667 31.1455833,6.28375 31.50675,6.64216667 C31.6818333,6.82091667 31.9183333,6.91075 32.1548333,6.91075 C32.3876667,6.91075 32.6241667,6.82091667 32.79925,6.64216667 L33,6.44141667 L35.1486667,4.29733333 C36.7849167,2.6565 38.94,1.837 41.0923333,1.837 Z M30.0025,7.22608333 C29.7705833,7.22608333 29.5340833,7.315 29.3544167,7.49466667 L27.8364167,9.01266667 C27.4789167,9.37108333 27.4789167,9.95041667 27.8364167,10.3088333 C28.0151667,10.4875833 28.248,10.5774167 28.4845,10.5774167 C28.721,10.5774167 28.9538333,10.4875833 29.1325833,10.3088333 L30.6515,8.79083333 C31.009,8.43241667 31.009,7.85216667 30.6515,7.49466667 C30.4718333,7.315 30.2353333,7.22608333 30.0025,7.22608333 Z M14.9389167,30.547 C14.3834167,30.53325 13.8288333,30.558 13.2733333,30.6221667 L2.42733333,31.89725 C1.04591667,32.06225 0,33.2365 0,34.6325833 L0,46.2348333 C0,47.0900833 0.386833333,47.8775 1.05966667,48.4045833 C1.72975,48.9270833 2.58866667,49.1095 3.41641667,48.9023333 L9.43158333,47.40175 C10.96425,47.02225 12.5794167,47.212 13.9791667,47.9499167 L25.5163333,54.0265 C26.719,54.6599167 28.0371667,54.97525 29.3580833,54.97525 C30.6615833,54.97525 31.9650833,54.6709167 33.1576667,54.05125 L52.6835833,43.9248333 C54.11175,43.18325 55,41.7266667 55,40.1078333 C55,38.77225 54.3913333,37.5365833 53.3353333,36.7170833 C52.2784167,35.8966667 50.9254167,35.62075 49.6329167,35.9580833 L37.3395,39.1444167 C37.10025,38.4285 36.6813333,37.7730833 36.1221667,37.25425 C35.19175,36.3870833 33.93775,35.9434167 32.6709167,36.036 L30.6615833,36.1799167 C29.8741667,36.23675 29.0895,36.0900833 28.37725,35.7536667 L19.7514167,31.6818333 C18.2370833,30.9695833 16.59625,30.58275 14.9389167,30.547 Z M14.8958333,32.3803333 C16.29925,32.40875 17.6889167,32.7350833 18.96675,33.3400833 L27.59625,37.411 C28.59175,37.8803333 29.6954167,38.0884167 30.7945,38.0095833 L32.8029167,37.8665833 C33.5729167,37.8125 34.3108333,38.0700833 34.8764167,38.59625 C35.4383333,39.1196667 35.75,39.8355833 35.75,40.6055833 L35.75,40.97775 C35.75,41.3398333 35.5391667,41.6689167 35.2091667,41.8155833 L32.50225,43.02925 C30.4718333,43.9431667 28.1233333,43.9926667 26.0571667,43.1658333 L21.4344167,41.3141667 C20.9614167,41.1244167 20.4279167,41.35725 20.2418333,41.8265833 C20.0520833,42.2959167 20.28125,42.8294167 20.75425,43.0155 L25.377,44.8699167 C27.90425,45.8800833 30.7761667,45.8186667 33.2575833,44.7021667 L35.9608333,43.4875833 C36.94625,43.0439167 37.5833333,42.0594167 37.5833333,40.97775 L50.09125,37.73 C50.8355833,37.54025 51.6055833,37.6979167 52.2105833,38.16725 C52.81925,38.6356667 53.1666667,39.3451667 53.1666667,40.1188333 C53.1666667,41.0391667 52.6579167,41.8733333 51.8420833,42.2959167 L32.3125,52.4223333 C30.45075,53.3885 28.2269167,53.3811667 26.3688333,52.404 L14.8316667,46.3274167 C13.6354167,45.6976667 12.3181667,45.375 10.989,45.375 C10.3198333,45.375 9.64975,45.4575 8.99158333,45.6225 L2.97183333,47.1258333 C2.69591667,47.1973333 2.40991667,47.1368333 2.18808333,46.9608333 C1.96258333,46.78575 1.83333333,46.5208333 1.83333333,46.2348333 L1.83333333,34.6325833 C1.83333333,34.1669167 2.18075,33.7736667 2.64275,33.7195833 L13.48875,32.4454167 C13.9580833,32.3913333 14.4265,32.3693333 14.8958333,32.3803333 Z M4.58333333,34.8333333 C4.07825,34.8333333 3.66666667,35.2449167 3.66666667,35.75 C3.66666667,36.2550833 4.07825,36.6666667 4.58333333,36.6666667 L6.41666667,36.6666667 C6.92175,36.6666667 7.33333333,36.2550833 7.33333333,35.75 C7.33333333,35.2449167 6.92175,34.8333333 6.41666667,34.8333333 L4.58333333,34.8333333 Z M4.58333333,39.4166667 C4.07825,39.4166667 3.66666667,39.82825 3.66666667,40.3333333 C3.66666667,40.8384167 4.07825,41.25 4.58333333,41.25 L6.41666667,41.25 C6.92175,41.25 7.33333333,40.8384167 7.33333333,40.3333333 C7.33333333,39.82825 6.92175,39.4166667 6.41666667,39.4166667 L4.58333333,39.4166667 Z M4.58333333,44 C4.07825,44 3.66666667,44.4115833 3.66666667,44.9166667 C3.66666667,45.42175 4.07825,45.8333333 4.58333333,45.8333333 L6.41666667,45.8333333 C6.92175,45.8333333 7.33333333,45.42175 7.33333333,44.9166667 C7.33333333,44.4115833 6.92175,44 6.41666667,44 L4.58333333,44 Z" id="Fill-1" fill="#45B9E6" mask="url(#mask-2)"></path>
                </g>
            </g>
        </g>
    </g>
</svg>